<svg width="378" height="77" viewBox="0 0 378 77" fill="none" xmlns="http://www.w3.org/2000/svg">
<path d="M32.188 13.4824H43.8464V24.4731H32.1499V28.4024H8.45407V24.4731H0V13.4824H8.4919C8.96195 3.36448 15.3699 0.331055 28.476 0.331055C34.4381 0.331055 41.8245 0.963049 46.2105 1.70806V11.9165H35.3926C32.9001 11.9165 32.3146 12.4209 32.188 13.4824Z" fill="black"/>
<path d="M47.3923 16.5538C47.3923 8.19 53.9904 4.07227 70.7074 4.07227C87.527 4.07227 94.0108 8.22734 94.0108 16.5538C94.0108 24.7898 87.641 28.9947 70.7074 28.9947C53.7629 28.9947 47.3923 24.7898 47.3923 16.5538ZM71.7244 16.3132C71.7244 13.4449 71.2167 13.0916 70.7467 13.0916C70.2244 13.0916 69.7549 13.4449 69.7549 16.3132C69.7549 19.1807 70.2244 19.5348 70.7467 19.5348C71.2167 19.5348 71.7244 19.1807 71.7244 16.3132Z" fill="black"/>
<path d="M141.009 5.63822V17.9165C138.593 17.6526 133.699 17.2993 129.161 17.2993C124.025 17.2993 120.071 17.7661 118.889 18.0814V28.4028H95.1927V4.85537H118.495L118.889 11.5251H119.283C123.033 5.78907 126.389 4.07227 132.313 4.07227C136.737 4.07227 139.865 4.96838 141.009 5.63822Z" fill="black"/>
<path d="M235.808 15.8461H221.786C221.9 16.857 222.461 17.4125 224.673 17.4125H235.808V27.6202C232.681 28.1995 225.65 28.9947 217.794 28.9947C203.022 28.9947 198.204 27.2282 198.039 15.8458H189.598V4.85532H198.039C204.636 4.85532 208.704 3.68055 209.506 0.925781H221.748V4.85532H235.808V15.8461Z" fill="black"/>
<path d="M283.201 11.9165V28.4025H261.081V15.2517C261.081 14.7467 260.967 14.1521 260.408 14.1521C260.051 14.1521 259.747 14.2277 259.505 14.3926V28.4025H237.385V0.925781H259.505V10.3503H259.899C262.861 6.18046 267.133 4.07197 272.663 4.07197C278.981 4.07197 283.201 5.24675 283.201 11.9165Z" fill="black"/>
<path d="M330.212 17.0209H307.572C307.927 18.3979 308.995 18.5868 311.844 18.5868H329.806V27.6205C325.548 28.1998 317.169 28.995 308.843 28.995C291.974 28.995 284.383 25.8515 284.383 16.742C284.383 7.44524 292.253 4.07227 307.737 4.07227C324.836 4.07227 331.001 8.19 331.001 15.063L330.212 17.0209ZM307.382 14.7092H309.67C309.594 12.7756 309.351 11.9547 308.601 11.9547C307.572 11.9544 307.42 13.5211 307.382 14.7092Z" fill="black"/>
<path d="M378 11.9168V28.4028H363.78V15.252C363.78 14.747 363.66 14.1524 363.115 14.1524C362.758 14.1524 362.44 14.228 362.198 14.3929V28.4028H347.986V15.252C347.986 14.747 347.858 14.1524 347.312 14.1524C346.956 14.1524 346.638 14.228 346.396 14.3929V28.4028H332.184V4.85537H346.002L346.396 10.3506H346.792C349.359 6.18075 351.926 4.07227 355.486 4.07227C359.085 4.07227 361.652 5.67556 362.122 10.3506H362.592C365.161 6.18075 368.25 4.07227 371.797 4.07227C375.75 4.07227 378 6.02989 378 11.9168Z" fill="black"/>
<path d="M38.074 47.0894C28.0494 47.0894 24.432 57.0206 23.0765 60.7564L22.928 61.1411C21.3537 60.7128 19.9557 60.5048 18.5601 60.5048C14.3743 60.5048 11.3551 62.5331 10.0518 66.2023C9.99183 66.3717 10.0773 66.5737 10.2601 66.6408L10.654 66.8057C10.8205 66.8724 11.0252 66.798 11.1011 66.6218C12.3108 64.0379 14.7571 62.7875 18.5599 62.7875C19.827 62.7875 21.0163 62.8952 22.1942 63.1295C20.435 67.6597 17.0824 73.4299 8.52998 73.4299C5.33522 73.4299 1.92913 72.524 1.92913 70.0028C1.92913 68.3592 3.44972 66.5093 5.81409 65.3017C5.89579 65.2453 5.95631 65.1724 5.98254 65.0849C6.00902 64.9982 5.99918 64.8907 5.95455 64.8108L5.76466 64.4569C5.66253 64.2993 5.46609 64.2392 5.29008 64.3173C2.29553 65.7856 0.434753 68.2704 0.434753 70.7856C0.434753 74.1348 3.60254 76.2796 8.49191 76.2796C17.4259 76.2796 21.3146 69.0197 23.45 63.3884C24.5099 63.6478 25.5481 63.96 26.6395 64.288C29.6502 65.1831 32.7736 66.1224 37.2484 66.1224C39.3227 66.1224 41.3 65.9144 43.4808 65.4836C43.6394 65.4518 43.7675 65.3132 43.7675 65.139V64.7476C43.7675 64.6469 43.708 64.5386 43.6298 64.4735C43.5516 64.4093 43.4493 64.383 43.3355 64.403C42.0361 64.6594 40.4782 64.7882 38.8242 64.7882C33.7641 64.7882 29.9971 63.4946 26.673 62.3357C25.8066 62.0445 24.9812 61.7553 24.1415 61.4939L24.2711 61.1346C25.3716 58.0786 28.2945 49.9519 38.112 49.9519C42.1584 49.9519 44.6748 51.2973 44.6748 53.4782C44.6748 55.4476 42.8024 57.3336 40.9901 58.027C40.894 58.0636 40.8199 58.142 40.7752 58.2395C40.743 58.3515 40.7583 58.4572 40.8292 58.5429L41.0574 58.8963C41.1474 59.0261 41.3227 59.0935 41.47 59.0266C44.1992 58.053 46.1689 55.3782 46.1689 52.6951C46.1694 49.3427 42.9139 47.0894 38.074 47.0894Z" fill="black"/>
<path d="M94.2821 60.6922C94.1719 60.5449 93.9641 60.5003 93.8015 60.6193C92.5701 61.4809 91.2049 62.3935 89.5741 63.2197C90.0993 61.9422 90.3724 60.685 90.3724 59.4556C90.3724 57.3932 89.5965 55.503 88.1823 54.1212C86.5392 52.5289 84.1229 51.6754 81.1707 51.6754C80.2535 51.6754 79.3268 51.7631 78.3852 51.908C76.0778 51.1928 73.5289 50.8169 71.0127 50.8169C59.4758 50.8169 48.145 58.5519 48.145 66.4418C48.145 72.3694 54.4679 76.0526 64.6184 76.0526C77.1619 76.0526 85.1595 70.518 88.4859 65.3054C91.2321 64.0427 93.2192 62.5248 94.47 61.4844C94.6087 61.3684 94.6321 61.1516 94.524 61.0087L94.2821 60.6922ZM89.0672 59.7575C89.0672 61.1819 88.581 62.6687 87.6439 64.07C85.0103 65.1468 82.0977 65.6993 78.9967 65.6993C74.2382 65.6993 68.6839 64.377 68.6839 60.6684C68.6839 57.0714 73.9437 54.1468 80.4207 54.1468C87.9438 54.1465 89.0672 57.6709 89.0672 59.7575ZM71.9288 53.4005C72.3472 53.4005 72.8692 53.4118 73.46 53.4273C69.7256 55.198 67.3933 57.9698 67.3933 60.7434C67.3933 65.9843 75.1672 67.3723 79.2769 67.3723C81.4158 67.3723 83.553 67.04 85.6783 66.3822C81.152 70.5576 72.8788 73.1893 64.0724 73.1893C60.6333 73.1893 49.4494 72.6906 49.4494 66.2005C49.4494 59.7365 60.5808 53.4005 71.9288 53.4005Z" fill="black"/>
<path d="M131.131 50.6274C119.626 50.6274 104.662 62.5248 97.1669 73.6957C97.4421 66.1927 105.029 56.2743 110.2 51.8285C110.308 51.7336 110.346 51.5734 110.297 51.4414C110.247 51.2955 110.107 51.2083 109.965 51.2083C104.456 51.2083 98.8013 53.2376 95.8728 55.1166C95.718 55.206 95.6653 55.3852 95.7326 55.5501L95.8988 55.9034C95.9374 55.9891 96.0092 56.0548 96.098 56.0856C96.2009 56.1159 96.2985 56.1082 96.3819 56.0646C98.3562 55.0354 102.168 53.8924 106.153 53.706C99.0133 60.0099 95.8319 66.6581 95.8319 75.1454C95.8319 75.299 95.9197 75.4253 96.0521 75.4752L97.0063 75.828C97.0454 75.8423 97.0852 75.8501 97.1251 75.8501C97.2363 75.8501 97.3578 75.7947 97.4221 75.6992C105.926 62.936 120.177 53.6794 131.298 53.6794C135.538 53.6794 137.694 54.9667 137.694 57.522C137.694 59.9806 135.743 62.3176 135.138 62.9796C135.017 63.127 135.022 63.3315 135.15 63.4671L135.582 63.9011C135.649 63.9662 135.751 64.0028 135.844 63.9996C135.937 63.9976 136.037 63.958 136.101 63.8896C138.097 61.7004 138.998 59.6367 138.998 57.2073C138.998 52.9635 136.202 50.6274 131.131 50.6274Z" fill="black"/>
<path d="M232.054 64.0982C231.884 64.0454 231.713 64.1115 231.622 64.2681L231.43 64.6215C231.383 64.7052 231.374 64.8031 231.405 64.8931C231.435 64.9969 231.502 65.0703 231.59 65.1084C232.597 65.5429 233.789 66.3237 233.789 67.5777C233.789 70.7688 225.979 73.1892 215.62 73.1892C201.063 73.1892 195.875 69.0364 195.875 65.1394C195.875 61.269 200.523 59.669 205.462 57.9908C207.802 57.1769 210.231 56.3512 212.258 55.2388C215.19 56.2617 218.997 57.4054 222.776 57.4054C228.483 57.4054 232.231 54.8599 233.618 50.0483C233.662 49.8974 233.595 49.7222 233.443 49.6468L233.088 49.4436C233.005 49.3985 232.908 49.3887 232.818 49.4175C232.715 49.4458 232.641 49.5095 232.602 49.6085C230.969 53.0634 227.544 54.821 222.46 54.821C220.019 54.821 217.377 54.4276 214.582 53.6503C216.444 52.0277 217.36 50.1097 217.36 47.7942C217.36 47.594 217.194 47.4438 217.007 47.4438H216.409C216.221 47.4438 216.056 47.5942 216.056 47.7942C216.056 49.9818 215.047 51.629 212.759 53.1331C210.382 52.3838 208.127 51.5017 205.941 50.6462C202.223 49.1827 199.008 47.9107 196.539 47.9107C194.058 47.9107 191.533 49.4706 191.533 52.467C191.533 54.2294 192.671 56.178 193.731 57.2312C193.857 57.3565 194.073 57.3628 194.208 57.2465L194.526 56.9681C194.664 56.8341 194.681 56.6271 194.564 56.4737C193.729 55.4733 192.824 53.8979 192.824 52.5449C192.824 50.3234 195.005 49.9901 196.311 49.9901C199.113 49.9901 202.805 51.4864 206.72 53.0656C207.854 53.5227 209.019 54.0054 210.206 54.4572C208.758 55.1027 207.125 55.6588 205.551 56.2123C200.15 58.0815 194.572 60.0113 194.572 65.3424C194.572 71.7438 203.001 76.0522 215.545 76.0522C226.877 76.0522 235.094 72.7046 235.094 68.0832C235.094 66.3155 233.876 64.7202 232.054 64.0982Z" fill="black"/>
<path d="M270.768 51.9915C260.472 51.9915 248.913 60.0961 239.806 73.697C240.055 67.0353 246.483 53.9448 252.161 48.6348C252.229 48.5716 252.268 48.4834 252.268 48.3774C252.269 48.2849 252.231 48.1957 252.164 48.1326L251.172 47.1841C251.051 47.0686 250.864 47.0593 250.717 47.159C249.024 48.4526 248.193 48.5426 243.867 48.5426C242.078 48.5528 236.637 48.5822 236.637 55.1349C236.637 55.3073 236.769 55.4667 236.957 55.4845L237.351 55.5216C237.446 55.5308 237.555 55.5 237.627 55.4364C237.698 55.3582 237.738 55.268 237.738 55.1725C237.738 52.1017 240.286 51.7346 243.514 51.2627C245.321 51.0137 247.301 50.7252 249.02 49.8732C242.465 56.6084 238.456 66.1186 238.456 75.145C238.456 75.2986 238.543 75.4249 238.69 75.4747L239.63 75.8276C239.791 75.8825 239.956 75.8296 240.044 75.7003C249.092 62.3896 259.844 55.0557 270.323 55.0557C277.062 55.0557 281.068 57.8789 281.068 62.6254C281.068 69.0405 274.471 74.2511 266.345 74.2511C263.906 74.2511 261.002 73.791 261.002 71.5828C261.002 69.4758 263.577 68.1597 265.782 67.6806C265.882 67.6585 265.977 67.5939 266.026 67.5034C266.072 67.3992 266.074 67.2934 266.033 67.2004L265.867 66.8466C265.804 66.69 265.65 66.6113 265.482 66.6381C261.86 67.2989 259.712 69.2004 259.712 71.7342C259.712 74.6102 262.38 76.331 266.853 76.331C275.474 76.331 282.766 69.8209 282.766 62.1207C282.766 55.9674 278.051 51.9915 270.768 51.9915Z" fill="black"/>
<path d="M330.346 62.9777C330.214 62.8754 330.013 62.8842 329.891 62.9982C322.172 70.2386 314.547 73.1893 303.58 73.1893C292.694 73.1893 285.933 70.1689 285.933 65.3049C285.933 60.7624 291.848 56.9384 298.852 56.9384C303.761 56.9384 307.106 58.79 310.059 60.4174C312.584 61.8172 314.961 63.1411 317.919 63.1411C321.256 63.1411 323.257 61.4213 323.257 58.5442C323.257 54.2245 318.732 50.9673 312.745 50.9673C307.656 50.9673 303.774 53.3484 301.84 54.8359C300.816 54.6372 299.769 54.5427 298.723 54.5427C291.896 54.5427 284.628 58.3477 284.628 65.3804C284.628 69.356 286.864 72.2957 291.278 74.1208C295.35 75.7963 300.166 76.0521 302.677 76.0521C313.036 76.0521 323.002 71.6918 330.737 63.7706C330.804 63.7016 330.838 63.6082 330.831 63.5122C330.825 63.4029 330.778 63.314 330.701 63.2558L330.346 62.9777ZM317.997 61.6563C315.454 61.6563 313.269 60.2991 310.739 58.7369C308.876 57.5706 306.787 56.2869 304.297 55.4524C307.213 54.3801 310.081 53.8303 312.822 53.8303C317.219 53.8303 321.953 55.3286 321.953 58.6209C321.953 60.4585 320.403 61.6563 317.997 61.6563Z" fill="black"/>
<path d="M377.084 67.016L376.715 66.8646C376.552 66.7942 376.364 66.8573 376.265 67.0109C374.712 69.8326 371.968 73.1895 367.69 73.1895C366.086 73.1895 365.756 72.6761 365.756 71.899C365.756 70.0982 367.798 68.1617 370.181 65.9319C373.363 62.9413 376.967 59.5541 376.967 55.1729C376.967 52.4914 375.529 50.8169 373.22 50.8169C368.931 50.8169 364.813 56.657 360.843 62.299C357.113 67.583 353.275 73.0387 349.676 73.0387C348.841 73.0387 348.567 72.7944 348.567 72.0506C348.567 69.9241 351.22 67.5688 354.032 65.0668C357.478 61.9853 361.052 58.8186 361.052 55.1729C361.052 53.1735 359.932 51.0572 356.795 51.0572C351.578 51.0572 348.429 56.906 345.381 62.5562C342.471 67.9479 339.717 73.0389 335.502 73.0389C334.214 73.0389 333.961 72.5568 333.961 71.8476C333.961 69.8993 336.3 67.3996 338.784 64.7591C341.771 61.5718 344.855 58.28 344.855 55.0599C344.855 52.647 343.264 51.0951 340.79 51.0951C337.897 51.0951 335.296 53.1178 333.828 56.5307C333.76 56.6898 333.823 56.888 333.989 56.9717L334.346 57.1611C334.427 57.2078 334.523 57.2291 334.612 57.1875C334.715 57.1596 334.789 57.0965 334.829 57.0133C336.251 54.1129 338.437 52.3773 340.677 52.3773C342.485 52.3773 343.565 53.3664 343.565 55.0096C343.565 57.4538 341.146 60.0229 338.591 62.7516C335.671 65.8532 332.657 69.0698 332.657 72.6455C332.657 74.7766 333.778 76.0147 335.744 76.0147C339.739 76.0147 342.461 71.0079 345.333 65.7194C348.485 59.8961 351.752 53.8676 356.91 53.8676C358.167 53.8676 359.671 54.2224 359.671 55.918C359.671 58.1953 356.986 60.5564 354.135 63.0358C350.761 65.9885 347.277 69.0525 347.277 72.6826C347.277 74.7001 348.407 76.0147 350.16 76.0147C353.556 76.0147 356.718 71.2232 360.073 66.1466C363.886 60.3903 368.191 53.8676 373.258 53.8676C374.934 53.8676 375.678 54.5141 375.678 55.956C375.678 58.6319 373.102 61.0777 370.366 63.6613C367.439 66.4418 364.413 69.2986 364.413 72.758C364.413 74.9753 365.659 76.2408 367.805 76.2408C373.496 76.2408 377.115 67.8269 377.259 67.468C377.331 67.2989 377.253 67.0909 377.084 67.016Z" fill="black"/>
<path d="M185.943 15.6187C186.548 14.6842 186.984 13.6971 187.128 12.6559C187.142 12.5599 187.197 12.4537 187.232 12.3602C187.232 11.8036 187.232 11.2358 187.232 10.6807C186.948 9.81369 186.766 8.94113 186.37 8.11292C184.77 4.71388 180.125 2.48411 175.068 2.69435C171.44 2.83719 168.71 4.13426 166.606 6.15529C166.165 6.57929 165.772 7.04214 165.444 7.3852C164.355 6.48607 163.386 5.4837 162.134 4.69709C156.735 1.28126 148.386 2.35781 144.945 6.85645C144.085 7.96331 143.559 9.12857 143.385 10.3893C143.376 10.4557 143.317 10.5164 143.281 10.5805C143.281 11.1498 143.281 11.7042 143.281 12.2738C143.552 13.1005 143.718 13.9618 144.099 14.7626C145.037 16.713 146.793 18.3181 148.756 19.8254C151.691 22.0574 154.98 24.0143 158.272 25.9664C153.323 24.7861 147.637 26.2117 144.945 29.7406C144.085 30.8469 143.559 32.0119 143.385 33.2586C143.376 33.325 143.317 33.3977 143.281 33.4644C143.281 34.0197 143.281 34.588 143.281 35.1433C143.552 35.9836 143.718 36.8313 144.099 37.632C145.037 39.5828 146.793 41.2014 148.756 42.6952C150.962 44.3664 153.363 45.9043 155.824 47.389C151.569 47.0911 147.202 48.5686 144.945 51.5193C144.085 52.6264 143.559 53.7922 143.385 55.0522C143.376 55.1188 143.317 55.1805 143.281 55.2446C143.281 55.8137 143.281 56.3683 143.281 56.9376C143.552 57.7633 143.718 58.6116 144.099 59.4235C145.037 61.3774 146.793 62.9817 148.756 64.475C152.297 67.1746 156.345 69.4683 160.284 71.8293C161.624 72.635 162.962 73.4136 164.312 74.1919C165.097 74.6442 165.624 74.654 166.38 74.1889C171.143 71.2377 175.945 68.317 180.619 65.3072C182.829 63.8883 184.673 62.2194 185.943 60.282C186.548 59.334 186.984 58.361 187.128 57.319C187.142 57.2158 187.197 57.1173 187.232 57.0238C187.232 56.4537 187.232 55.8992 187.232 55.3298C186.948 54.4778 186.766 53.604 186.37 52.7618C184.77 49.3772 180.125 47.1475 175.068 47.3585C174.875 47.3662 174.67 47.378 174.482 47.3933C176.536 46.105 178.597 44.8252 180.619 43.5134C182.829 42.0945 184.673 40.4401 185.943 38.4893C186.548 37.5535 186.984 36.5672 187.128 35.5255C187.142 35.4295 187.197 35.337 187.232 35.2438C187.232 34.6732 187.232 34.1061 187.232 33.5501C186.948 32.6973 186.766 31.8107 186.37 30.9828C184.77 27.5975 180.125 25.369 175.068 25.5647C174.003 25.6055 173.028 25.7589 172.104 25.9794C174.966 24.2255 177.82 22.4508 180.62 20.6441C182.829 19.2249 184.673 17.5552 185.943 15.6187ZM165.898 29.7676C165.742 29.937 165.593 30.1134 165.444 30.2543C165.269 30.1109 165.082 29.9496 164.911 29.8015C165.255 29.9039 165.568 29.8932 165.898 29.7676Z" fill="black"/>
</svg>
