<svg width="358" height="73" viewBox="0 0 358 73" fill="none" xmlns="http://www.w3.org/2000/svg">
<path d="M30.826 12.8487H41.8422V23.3098H30.79V27.0498H8.39945V23.3098H0.411072V12.8487H8.43519C8.87935 3.21831 14.9343 0.331055 27.3185 0.331055C32.9522 0.331055 39.9317 0.932596 44.0761 1.64171V11.3582H33.8541C31.4989 11.3582 30.9456 11.8383 30.826 12.8487Z" fill="#FFCC33"/>
<path d="M45.1927 15.7717C45.1927 7.81092 51.4274 3.8916 67.2235 3.8916C83.1166 3.8916 89.2433 7.84646 89.2433 15.7717C89.2433 23.6108 83.2243 27.6131 67.2235 27.6131C51.2124 27.6131 45.1927 23.6108 45.1927 15.7717ZM68.1845 15.5427C68.1845 12.8126 67.7048 12.4763 67.2607 12.4763C66.7672 12.4763 66.3235 12.8126 66.3235 15.5427C66.3235 18.2721 66.7672 18.6091 67.2607 18.6091C67.7048 18.6091 68.1845 18.2721 68.1845 15.5427Z" fill="#FFCC33"/>
<path d="M133.653 5.3821V17.0687C131.37 16.8176 126.745 16.4813 122.457 16.4813C117.604 16.4813 113.868 16.9256 112.751 17.2257V27.0497H90.3601V4.63697H112.378L112.751 10.9853H113.123C116.667 5.52568 119.838 3.8916 125.436 3.8916C129.616 3.8916 132.572 4.74454 133.653 5.3821Z" fill="#FFCC33"/>
<path d="M223.23 15.0982H209.98C210.088 16.0604 210.618 16.5891 212.707 16.5891H223.23V26.3049C220.275 26.8564 213.632 27.6132 206.208 27.6132C192.25 27.6132 187.697 25.9319 187.541 15.0979H179.565V4.63704H187.541C193.774 4.63704 197.619 3.51887 198.377 0.896851H209.944V4.63704H223.23V15.0982Z" fill="#FFCC33"/>
<path d="M268.012 11.3582V27.0498H247.11V14.5327C247.11 14.052 247.003 13.486 246.475 13.486C246.137 13.486 245.85 13.5581 245.622 13.715V27.0498H224.719V0.897095H245.622V9.8675H245.993C248.792 5.89857 252.829 3.89168 258.055 3.89168C264.024 3.89168 268.012 5.00985 268.012 11.3582Z" fill="#FFCC33"/>
<path d="M312.433 16.216H291.04C291.376 17.5267 292.385 17.7065 295.077 17.7065H312.05V26.3048C308.026 26.8563 300.109 27.6131 292.242 27.6131C276.301 27.6131 269.129 24.6211 269.129 15.9506C269.129 7.1018 276.565 3.89136 291.197 3.89136C307.353 3.89136 313.179 7.81068 313.179 14.3525L312.433 16.216ZM290.861 14.0157H293.023C292.951 12.1753 292.722 11.3939 292.013 11.3939C291.04 11.3937 290.897 12.8849 290.861 14.0157Z" fill="#FFCC33"/>
<path d="M357.589 11.3582V27.0497H344.153V14.5326C344.153 14.052 344.039 13.486 343.524 13.486C343.187 13.486 342.886 13.558 342.658 13.7149V27.0497H329.229V14.5326C329.229 14.052 329.107 13.486 328.591 13.486C328.255 13.486 327.955 13.558 327.725 13.7149V27.0497H314.297V4.63697H327.354L327.726 9.86742H328.101C330.525 5.89849 332.951 3.8916 336.315 3.8916C339.716 3.8916 342.142 5.41764 342.586 9.86742H343.03C345.457 5.89849 348.377 3.8916 351.727 3.8916C355.463 3.8916 357.589 5.7549 357.589 11.3582Z" fill="#FFCC33"/>
<path d="M36.3878 44.8365C26.9154 44.8365 23.4972 54.2892 22.2165 57.845L22.0761 58.2112C20.5885 57.8035 19.2675 57.6056 17.9488 57.6056C13.9936 57.6056 11.1407 59.5361 9.90923 63.0285C9.85252 63.1897 9.9333 63.382 10.1061 63.4459L10.4782 63.6029C10.6355 63.6663 10.829 63.5955 10.9007 63.4278C12.0438 60.9684 14.3553 59.7782 17.9486 59.7782C19.146 59.7782 20.2697 59.8808 21.3827 60.1038C19.7205 64.4157 16.5525 69.9078 8.4712 69.9078C5.45242 69.9078 2.23395 69.0456 2.23395 66.6459C2.23395 65.0814 3.67079 63.3207 5.90492 62.1713C5.98212 62.1176 6.03931 62.0482 6.06409 61.965C6.08911 61.8824 6.07981 61.7801 6.03764 61.704L5.85821 61.3672C5.76171 61.2172 5.57609 61.16 5.40977 61.2344C2.58018 62.6319 0.821899 64.997 0.821899 67.391C0.821899 70.5788 3.81519 72.6203 8.43522 72.6203C16.8771 72.6203 20.5516 65.7102 22.5694 60.3502C23.5708 60.5971 24.5519 60.8943 25.5831 61.2065C28.428 62.0585 31.3793 62.9524 35.6076 62.9524C37.5677 62.9524 39.4361 62.7545 41.4967 62.3444C41.6466 62.3142 41.7677 62.1823 41.7677 62.0165V61.6439C41.7677 61.548 41.7114 61.445 41.6376 61.383C41.5637 61.3219 41.467 61.2969 41.3595 61.316C40.1316 61.56 38.6595 61.6826 37.0966 61.6826C32.3153 61.6826 28.7558 60.4513 25.6148 59.3482C24.7961 59.071 24.0162 58.7958 23.2227 58.547L23.3452 58.205C24.3851 55.2963 27.147 47.5611 36.4237 47.5611C40.2472 47.5611 42.625 48.8417 42.625 50.9176C42.625 52.7921 40.8558 54.5871 39.1432 55.2471C39.0525 55.2819 38.9824 55.3566 38.9402 55.4494C38.9097 55.556 38.9243 55.6567 38.9912 55.7382L39.2069 56.0745C39.2919 56.1981 39.4575 56.2623 39.5967 56.1986C42.1756 55.2719 44.0368 52.726 44.0368 50.1722C44.0373 46.9813 40.9611 44.8365 36.3878 44.8365Z" fill="#FFCC33"/>
<path d="M89.4998 57.7835C89.3956 57.6433 89.1993 57.6008 89.0456 57.7141C87.8821 58.5341 86.592 59.4028 85.051 60.1892C85.5474 58.9733 85.8054 57.7766 85.8054 56.6064C85.8054 54.6434 85.0723 52.8443 83.736 51.5291C82.1833 50.0136 79.9001 49.2012 77.1106 49.2012C76.2439 49.2012 75.3682 49.2847 74.4785 49.4225C72.2982 48.7418 69.8897 48.384 67.5121 48.384C56.6107 48.384 45.9041 55.7464 45.9041 63.2561C45.9041 68.898 51.8787 72.4037 61.47 72.4037C73.3226 72.4037 80.8797 67.1358 84.0229 62.1744C86.6177 60.9725 88.4954 59.5278 89.6773 58.5375C89.8083 58.4271 89.8305 58.2207 89.7283 58.0848L89.4998 57.7835ZM84.5721 56.8939C84.5721 58.2496 84.1127 59.6647 83.2272 60.9985C80.7386 62.0234 77.9865 62.5493 75.0563 62.5493C70.56 62.5493 65.3116 61.2907 65.3116 57.7609C65.3116 54.3372 70.2817 51.5535 76.4019 51.5535C83.5106 51.5532 84.5721 54.9077 84.5721 56.8939ZM68.3778 50.8432C68.7731 50.8432 69.2663 50.8539 69.8246 50.8687C66.2959 52.554 64.0921 55.1923 64.0921 57.8322C64.0921 62.8205 71.4378 64.1417 75.3211 64.1417C77.3422 64.1417 79.3616 63.8254 81.3698 63.1993C77.0929 67.1735 69.2754 69.6784 60.9541 69.6784C57.7045 69.6784 47.1367 69.2037 47.1367 63.0264C47.1367 56.8738 57.6549 50.8432 68.3778 50.8432Z" fill="#FFCC33"/>
<path d="M124.319 48.2037C113.447 48.2037 99.3078 59.5278 92.2256 70.1605C92.4856 63.019 99.6545 53.5785 104.54 49.3469C104.643 49.2566 104.679 49.1041 104.632 48.9784C104.586 48.8396 104.453 48.7566 104.319 48.7566C99.1129 48.7566 93.7699 50.6881 91.0028 52.4765C90.8565 52.5617 90.8067 52.7322 90.8703 52.8892L91.0273 53.2255C91.0638 53.3071 91.1317 53.3695 91.2156 53.3989C91.3128 53.4277 91.405 53.4204 91.4839 53.3788C93.3494 52.3993 96.9515 51.3114 100.717 51.1339C93.9703 57.1341 90.9642 63.4619 90.9642 71.5403C90.9642 71.6865 91.0471 71.8067 91.1722 71.8542L92.0738 72.19C92.1108 72.2036 92.1484 72.211 92.1861 72.211C92.2912 72.211 92.406 72.1583 92.4668 72.0674C100.502 59.9192 113.968 51.1086 124.477 51.1086C128.483 51.1086 130.521 52.3339 130.521 54.7661C130.521 57.1062 128.676 59.3306 128.105 59.9607C127.991 60.101 127.995 60.2956 128.116 60.4247L128.524 60.8378C128.588 60.8998 128.684 60.9346 128.772 60.9315C128.86 60.9296 128.955 60.8919 129.015 60.8268C130.902 58.7431 131.752 56.7789 131.752 54.4665C131.752 50.4272 129.111 48.2037 124.319 48.2037Z" fill="#FFCC33"/>
<path d="M219.682 61.0259C219.522 60.9756 219.361 61.0386 219.274 61.1877L219.093 61.524C219.049 61.6036 219.04 61.6969 219.069 61.7825C219.098 61.8813 219.161 61.9511 219.244 61.9874C220.195 62.401 221.322 63.1442 221.322 64.3378C221.322 67.375 213.942 69.6789 204.154 69.6789C190.398 69.6789 185.497 65.7262 185.497 62.017C185.497 58.3331 189.888 56.8101 194.555 55.2128C196.766 54.4381 199.061 53.6522 200.976 52.5934C203.747 53.567 207.344 54.6556 210.915 54.6556C216.308 54.6556 219.85 52.2328 221.161 47.653C221.202 47.5094 221.138 47.3427 220.995 47.2709L220.659 47.0774C220.581 47.0345 220.489 47.0252 220.404 47.0526C220.307 47.0796 220.237 47.1402 220.2 47.2344C218.657 50.5228 215.421 52.1958 210.617 52.1958C208.31 52.1958 205.814 51.8213 203.172 51.0814C204.932 49.537 205.798 47.7114 205.798 45.5075C205.798 45.3169 205.641 45.1741 205.464 45.1741H204.899C204.722 45.1741 204.565 45.3172 204.565 45.5075C204.565 47.5898 203.613 49.1576 201.45 50.5891C199.204 49.876 197.073 49.0364 195.008 48.2221C191.495 46.8291 188.456 45.6184 186.123 45.6184C183.779 45.6184 181.394 47.1032 181.394 49.9552C181.394 51.6326 182.469 53.4874 183.47 54.4898C183.589 54.6091 183.794 54.6151 183.921 54.5044L184.222 54.2394C184.352 54.1118 184.368 53.9148 184.258 53.7688C183.468 52.8166 182.613 51.3171 182.613 50.0293C182.613 47.9149 184.674 47.5976 185.908 47.5976C188.556 47.5976 192.044 49.0218 195.744 50.525C196.816 50.96 197.916 51.4194 199.038 51.8495C197.67 52.4639 196.127 52.9931 194.639 53.52C189.535 55.2991 184.265 57.136 184.265 62.2102C184.265 68.3031 192.23 72.4039 204.082 72.4039C214.79 72.4039 222.555 69.2176 222.555 64.8188C222.555 63.1363 221.404 61.6179 219.682 61.0259Z" fill="#FFCC33"/>
<path d="M256.263 49.502C246.535 49.502 235.612 57.2161 227.007 70.1617C227.242 63.8209 233.316 51.3612 238.682 46.3071C238.746 46.247 238.783 46.163 238.783 46.0621C238.784 45.9741 238.748 45.8892 238.685 45.8291L237.747 44.9263C237.633 44.8163 237.457 44.8075 237.317 44.9024C235.717 46.1337 234.933 46.2193 230.845 46.2193C229.154 46.2291 224.013 46.257 224.013 52.494C224.013 52.6581 224.138 52.8098 224.315 52.8267L224.688 52.862C224.778 52.8708 224.88 52.8415 224.948 52.7809C225.015 52.7065 225.053 52.6206 225.053 52.5297C225.053 49.607 227.461 49.2575 230.511 48.8084C232.219 48.5713 234.09 48.2968 235.714 47.4858C229.52 53.8964 225.731 62.9484 225.731 71.5398C225.731 71.686 225.814 71.8062 225.952 71.8537L226.841 72.1895C226.993 72.2418 227.15 72.1915 227.232 72.0684C235.782 59.399 245.941 52.4186 255.843 52.4186C262.211 52.4186 265.997 55.1057 265.997 59.6235C265.997 65.7295 259.762 70.689 252.084 70.689C249.779 70.689 247.036 70.2511 247.036 68.1493C247.036 66.1438 249.469 64.8911 251.552 64.4351C251.647 64.4141 251.737 64.3526 251.783 64.2665C251.826 64.1672 251.829 64.0666 251.79 63.9781L251.633 63.6413C251.573 63.4922 251.428 63.4173 251.269 63.4429C247.847 64.0718 245.817 65.8817 245.817 68.2934C245.817 71.0308 248.338 72.6687 252.565 72.6687C260.711 72.6687 267.601 66.4723 267.601 59.1431C267.601 53.2863 263.146 49.502 256.263 49.502Z" fill="#FFCC33"/>
<path d="M312.56 59.959C312.435 59.8617 312.245 59.87 312.13 59.9786C304.836 66.87 297.631 69.6786 287.268 69.6786C276.982 69.6786 270.593 66.8037 270.593 62.1741C270.593 57.8505 276.183 54.2107 282.8 54.2107C287.44 54.2107 290.601 55.9731 293.39 57.5221C295.777 58.8544 298.022 60.1145 300.818 60.1145C303.97 60.1145 305.861 58.4776 305.861 55.7392C305.861 51.6276 301.585 48.5273 295.929 48.5273C291.12 48.5273 287.452 50.7937 285.624 52.2096C284.657 52.0204 283.667 51.9305 282.679 51.9305C276.228 51.9305 269.36 55.5522 269.36 62.2459C269.36 66.03 271.473 68.828 275.644 70.5652C279.492 72.1599 284.042 72.4034 286.415 72.4034C296.204 72.4034 305.621 68.2532 312.929 60.7137C312.993 60.6481 313.025 60.5591 313.019 60.4678C313.013 60.3638 312.968 60.2791 312.896 60.2238L312.56 59.959ZM300.891 58.7013C298.488 58.7013 296.424 57.4095 294.033 55.9226C292.272 54.8125 290.298 53.5906 287.946 52.7963C290.702 51.7757 293.411 51.2524 296.002 51.2524C300.156 51.2524 304.629 52.6785 304.629 55.8121C304.629 57.5612 303.165 58.7013 300.891 58.7013Z" fill="#FFCC33"/>
<path d="M356.724 63.8023L356.375 63.6582C356.221 63.5912 356.043 63.6513 355.949 63.7975C354.483 66.4832 351.889 69.6784 347.847 69.6784C346.332 69.6784 346.019 69.1897 346.019 68.45C346.019 66.736 347.949 64.8928 350.2 62.7704C353.208 59.924 356.613 56.6999 356.613 52.5299C356.613 49.9776 355.254 48.3838 353.073 48.3838C349.02 48.3838 345.128 53.9424 341.377 59.3127C337.853 64.342 334.226 69.5348 330.825 69.5348C330.036 69.5348 329.778 69.3022 329.778 68.5943C329.778 66.5703 332.284 64.3284 334.941 61.9471C338.198 59.014 341.574 55.9999 341.574 52.5299C341.574 50.6268 340.517 48.6125 337.552 48.6125C332.622 48.6125 329.647 54.1795 326.767 59.5574C324.018 64.6893 321.415 69.535 317.432 69.535C316.215 69.535 315.976 69.0761 315.976 68.4011C315.976 66.5467 318.186 64.1674 320.533 61.6542C323.356 58.6205 326.27 55.4873 326.27 52.4224C326.27 50.1257 324.766 48.6485 322.429 48.6485C319.695 48.6485 317.237 50.5739 315.85 53.8222C315.786 53.9737 315.845 54.1624 316.003 54.242L316.339 54.4223C316.416 54.4667 316.507 54.487 316.591 54.4474C316.689 54.4209 316.758 54.3608 316.796 54.2816C318.14 51.521 320.205 49.869 322.321 49.869C324.03 49.869 325.051 50.8105 325.051 52.3744C325.051 54.7009 322.765 57.1462 320.35 59.7434C317.592 62.6956 314.744 65.7572 314.744 69.1606C314.744 71.1889 315.803 72.3674 317.661 72.3674C321.436 72.3674 324.008 67.6019 326.722 62.5682C329.7 57.0255 332.787 51.2875 337.661 51.2875C338.848 51.2875 340.27 51.6252 340.27 53.239C340.27 55.4067 337.732 57.654 335.039 60.0139C331.851 62.8244 328.559 65.7407 328.559 69.1959C328.559 71.1162 329.626 72.3674 331.283 72.3674C334.492 72.3674 337.479 67.8067 340.649 62.9749C344.252 57.4959 348.321 51.2875 353.109 51.2875C354.692 51.2875 355.394 51.9029 355.394 53.2753C355.394 55.8222 352.96 58.1501 350.376 60.6092C347.61 63.2558 344.751 65.9749 344.751 69.2677C344.751 71.3781 345.928 72.5826 347.956 72.5826C353.333 72.5826 356.752 64.5741 356.889 64.2326C356.957 64.0716 356.883 63.8736 356.724 63.8023Z" fill="#FFCC33"/>
<path d="M176.112 14.8818C176.683 13.9924 177.095 13.0529 177.231 12.0618C177.244 11.9705 177.296 11.8694 177.33 11.7804C177.33 11.2506 177.33 10.7102 177.33 10.1818C177.061 9.35657 176.89 8.52605 176.515 7.73775C175.003 4.5025 170.614 2.38018 165.835 2.58029C162.407 2.71625 159.827 3.95081 157.839 5.87445C157.423 6.27803 157.052 6.71857 156.742 7.0451C155.713 6.1893 154.797 5.23523 153.614 4.48652C148.513 1.23529 140.623 2.25996 137.372 6.54183C136.559 7.59536 136.062 8.70446 135.898 9.90444C135.889 9.96765 135.834 10.0254 135.8 10.0864C135.8 10.6283 135.8 11.1559 135.8 11.6981C136.056 12.485 136.213 13.3047 136.573 14.0671C137.458 15.9234 139.118 17.4511 140.973 18.8858C143.746 21.0103 146.854 22.8729 149.965 24.7309C145.289 23.6075 139.915 24.9644 137.372 28.3232C136.559 29.3763 136.062 30.4852 135.898 31.6718C135.889 31.735 135.834 31.8042 135.8 31.8676C135.8 32.3962 135.8 32.9371 135.8 33.4657C136.056 34.2654 136.213 35.0723 136.573 35.8344C137.458 37.6912 139.118 39.2318 140.973 40.6536C143.057 42.2443 145.327 43.7081 147.651 45.1213C143.631 44.8377 139.505 46.244 137.372 49.0525C136.559 50.1063 136.062 51.2159 135.898 52.4152C135.889 52.4786 135.834 52.5373 135.8 52.5983C135.8 53.14 135.8 53.6679 135.8 54.2098C136.056 54.9957 136.213 55.8031 136.573 56.5759C137.458 58.4356 139.118 59.9626 140.973 61.3839C144.319 63.9534 148.144 66.1366 151.866 68.3839C153.132 69.1507 154.396 69.8918 155.672 70.6326C156.414 71.0632 156.911 71.0725 157.626 70.6298C162.127 67.8208 166.664 65.0408 171.081 62.176C173.168 60.8255 174.911 59.237 176.112 57.393C176.683 56.4907 177.095 55.5645 177.231 54.5728C177.244 54.4745 177.296 54.3808 177.33 54.2918C177.33 53.7492 177.33 53.2213 177.33 52.6794C177.061 51.8685 176.89 51.0368 176.515 50.2351C175.003 47.0137 170.614 44.8914 165.835 45.0922C165.653 45.0996 165.46 45.1108 165.282 45.1254C167.222 43.8991 169.17 42.681 171.081 41.4324C173.168 40.0819 174.911 38.5072 176.112 36.6504C176.683 35.7597 177.095 34.8209 177.231 33.8294C177.244 33.7381 177.296 33.65 177.33 33.5613C177.33 33.0182 177.33 32.4784 177.33 31.9492C177.061 31.1375 176.89 30.2936 176.515 29.5056C175.003 26.2834 170.614 24.1623 165.835 24.3486C164.829 24.3875 163.908 24.5334 163.035 24.7433C165.739 23.0739 168.436 21.3848 171.081 19.6651C173.169 18.3143 174.912 16.7251 176.112 14.8818ZM157.171 28.349C157.023 28.5102 156.883 28.6781 156.742 28.8122C156.576 28.6758 156.4 28.5222 156.238 28.3812C156.563 28.4788 156.859 28.4685 157.171 28.349Z" fill="#FFCC33"/>
</svg>
