<?xml version="1.0" standalone="no"?>
<!DOCTYPE svg PUBLIC "-//W3C//DTD SVG 1.1//EN" "http://www.w3.org/Graphics/SVG/1.1/DTD/svg11.dtd" >
<svg xmlns="http://www.w3.org/2000/svg" xmlns:xlink="http://www.w3.org/1999/xlink" version="1.1">
<metadata>
Created by FontForge 20170731 at Thu Dec  8 18:54:06 2022
 By Aleksey,,,
Pangram Pangram
</metadata>
<defs>
<font id="MonumentExtended-Thin" horiz-adv-x="475" >
  <font-face 
    font-family="Monument Extended Thin"
    font-weight="100"
    font-stretch="normal"
    units-per-em="2048"
    panose-1="0 0 2 0 0 0 0 0 0 0"
    ascent="1638"
    descent="-410"
    x-height="1188"
    cap-height="1434"
    bbox="-2089 -614 3473 2079"
    underline-thickness="61"
    underline-position="-183"
    unicode-range="U+0020-25CA"
  />
<missing-glyph horiz-adv-x="1126" 
d="M209 1638h715v-2252h-715v2252zM750 1413v74h-371v-74h145v-84h-147v-74h373v74h-148v84h148zM602 1038v158h-225v-233h373v75h-148zM451 1120h73v-82h-73v82zM750 827v74h-373v-74h147v-84h-147v-73h225v157h148zM750 541v225h-74v-148h-299v-77h373zM750 238v254h-226
v-125h78v51h74v-107h-225v181h-74v-254h373zM750 -152v254h-373v-254h373zM451 29h225v-107h-225v107zM750 -279v74h-373v-74h158l-158 -106v-74h373v74h-230l158 106h72z" />
    <glyph glyph-name="f_f" unicode="ff" horiz-adv-x="2287" 
d="M2144 1577h-303q-91 0 -145 -12.5t-87.5 -48.5t-45 -91t-11.5 -149v-88h592v-62h-592v-1126h-65v1126h-879v-1126h-65v1126h-379v62h379v86q0 99 13.5 162t51 111.5t106 69.5t175.5 21h508v-61h-500q-91 0 -145 -12.5t-87.5 -48.5t-45 -91t-11.5 -149v-88h879v86
q0 99 13.5 162t51 111.5t106 69.5t175.5 21h311v-61z" />
    <glyph glyph-name="f_f_i" unicode="ffi" horiz-adv-x="2721" 
d="M2517 1577h-655q-91 0 -145 -12.5t-87.5 -48.5t-45 -91t-11.5 -149v-88h944v-1188h-66v1126h-878v-1126h-66v1126h-899v-1126h-65v1126h-379v62h379v86q0 99 13.5 162t51 111.5t106 69.5t175.5 21h551v-61h-543q-91 0 -145 -12.5t-87.5 -48.5t-45 -91t-11.5 -149v-88h899
v86q0 99 13.5 162t51 111.5t106 69.5t175.5 21h664v-61z" />
    <glyph glyph-name="f_i" unicode="fi" horiz-adv-x="1757" 
d="M1552 1577h-655q-91 0 -145 -12.5t-87.5 -48.5t-45 -91t-11.5 -149v-88h944v-1188h-65v1126h-879v-1126h-65v1126h-379v62h379v86q0 99 13.5 162t51 111.5t106 69.5t175.5 21h663v-61z" />
    <glyph glyph-name="f_l" unicode="fl" horiz-adv-x="1757" 
d="M889 1638h663v-1638h-65v1577h-590q-91 0 -145 -12.5t-87.5 -48.5t-45 -91t-11.5 -149v-88h592v-62h-592v-1126h-65v1126h-379v62h379v86q0 99 13.5 162t51 111.5t106 69.5t175.5 21z" />
    <glyph glyph-name=".notdef" horiz-adv-x="1126" 
d="M209 1638h715v-2252h-715v2252zM750 1413v74h-371v-74h145v-84h-147v-74h373v74h-148v84h148zM602 1038v158h-225v-233h373v75h-148zM451 1120h73v-82h-73v82zM750 827v74h-373v-74h147v-84h-147v-73h225v157h148zM750 541v225h-74v-148h-299v-77h373zM750 238v254h-226
v-125h78v51h74v-107h-225v181h-74v-254h373zM750 -152v254h-373v-254h373zM451 29h225v-107h-225v107zM750 -279v74h-373v-74h158l-158 -106v-74h373v74h-230l158 106h72z" />
    <glyph glyph-name=".null" horiz-adv-x="0" 
 />
    <glyph glyph-name="nonmarkingreturn" horiz-adv-x="682" 
 />
    <glyph glyph-name="space" unicode=" " horiz-adv-x="819" 
 />
    <glyph glyph-name="exclam" unicode="!" horiz-adv-x="520" 
d="M227 1434h66v-1024h-66v1024zM205 0v98h110v-98h-110z" />
    <glyph glyph-name="quotedbl" unicode="&#x22;" horiz-adv-x="757" 
d="M205 1556h61l-10 -655h-41zM492 1556h61l-10 -655h-41z" />
    <glyph glyph-name="numbersign" unicode="#" horiz-adv-x="2652" 
d="M2447 1014v-62h-553l-202 -676h632v-61h-651l-155 -522h-66l156 522h-805l-156 -522h-65l155 522h-532v61h551l202 676h-630v62h649l137 461h66l-138 -461h805l138 461h65l-137 -461h534zM821 276h805l203 676h-805z" />
    <glyph glyph-name="dollar" unicode="$" horiz-adv-x="2060" 
d="M1835 373q0 -94 -35 -165t-98.5 -118t-161 -76t-213 -41.5t-264.5 -13.5v-164h-66v164q-213 3 -360.5 30.5t-251.5 88t-152.5 160.5t-48.5 247h66q0 -127 44 -214.5t138.5 -142t231 -79.5t333.5 -29v676q-228 14 -369.5 39.5t-228.5 74.5t-120 117t-33 175
q0 205 178.5 289t572.5 84v163h66v-163q364 -9 537.5 -131t173.5 -371h-66q0 116 -42 199t-127 133.5t-200.5 75.5t-275.5 30v-657q153 -10 242.5 -18.5t190 -26t153.5 -42t101 -64t66.5 -96t18.5 -134.5zM311 1102q0 -51 9 -91t30.5 -72t48.5 -55.5t73 -42t93.5 -31
t119.5 -22.5t142 -16.5t170 -13.5v655h-39q-341 0 -494 -70t-153 -241zM1071 20q171 0 295 17.5t217 57.5t139.5 109.5t46.5 168.5q0 48 -8.5 85.5t-29.5 68t-47.5 52t-73.5 38.5t-94.5 28t-123.5 20t-148.5 15t-180.5 12v-672h8z" />
    <glyph glyph-name="percent" unicode="%" horiz-adv-x="2590" 
d="M666 633q-99 0 -179.5 26t-132 68t-86 98t-49 113t-14.5 117q0 75 24.5 145.5t76 134t144.5 102t216 38.5q100 0 180.5 -26t132 -67.5t86 -97.5t49 -113t14.5 -116q0 -60 -14.5 -117t-49 -113.5t-86 -98t-132 -67.5t-180.5 -26zM1872 1434h82l-1235 -1434h-82zM666 694
q80 0 151 23t127.5 67t89.5 114t33 157q0 116 -57.5 199t-146.5 121t-197 38q-79 0 -150 -22.5t-127.5 -65.5t-89.5 -112.5t-33 -157.5q0 -87 33 -157t89.5 -114t127.5 -67t150 -23zM1923 -41q-99 0 -179.5 26t-132 68t-86 98t-49 113t-14.5 117q0 75 24.5 145.5t76 134
t144.5 102t216 38.5q100 0 180.5 -26t132 -67.5t86.5 -97.5t49.5 -113t14.5 -116q0 -60 -14.5 -117t-49.5 -113.5t-86.5 -98t-132 -67.5t-180.5 -26zM1923 20q80 0 151 23t127.5 67t89.5 114t33 157q0 116 -57.5 199t-146.5 121t-197 38q-79 0 -150 -22.5t-127 -65.5
t-89 -112.5t-33 -157.5q0 -115 57.5 -199t146 -123t195.5 -39z" />
    <glyph glyph-name="ampersand" unicode="&#x26;" horiz-adv-x="1953" 
d="M1462 221l287 -221h-104l-228 176q-240 -217 -655 -217q-130 0 -230.5 22t-161 57.5t-99 85.5t-52.5 99.5t-14 106.5q0 81 26 146t82.5 120t125.5 98t173 94q-114 94 -175.5 181.5t-61.5 187.5q0 138 102 228t305 90q97 0 172.5 -25.5t120 -68t67.5 -95t23 -110.5
q0 -121 -95.5 -207.5t-338.5 -194.5q12 -9 95.5 -70t127.5 -94l457 -350q155 175 168 432h66q-12 -284 -183 -471zM440 1157q0 -88 61.5 -170t172.5 -170q23 13 55 27q106 49 171 85t113 76t67.5 80t19.5 91q0 61 -26 107.5t-71 74t-101 41.5t-120 14q-57 0 -105.5 -7.5
t-93 -26t-75.5 -47t-49.5 -73.5t-18.5 -102zM762 20q390 0 604 195l-453 348q-45 34 -128.5 95.5t-116.5 86.5q-89 -41 -154 -79.5t-124 -89t-89.5 -112.5t-30.5 -134q0 -84 39 -146t109.5 -97t155.5 -51t188 -16z" />
    <glyph glyph-name="quotesingle" unicode="'" horiz-adv-x="471" 
d="M205 1556h61l-10 -655h-41z" />
    <glyph glyph-name="parenleft" unicode="(" horiz-adv-x="1159" 
d="M205 616q0 502 186 762t563 260v-61q-128 0 -232 -32t-189 -103.5t-142.5 -182.5t-89 -273t-31.5 -370q0 -260 47.5 -448t139 -300t214 -164t283.5 -52v-62q-377 0 -563 261t-186 765z" />
    <glyph glyph-name="parenright" unicode=")" horiz-adv-x="1159" 
d="M954 616q0 -504 -186 -765t-563 -261v62q161 0 283.5 52t214 164t139 300t47.5 448q0 208 -31.5 370t-89 273t-142.5 182.5t-189 103.5t-232 32v61q377 0 563 -260t186 -762z" />
    <glyph glyph-name="asterisk" unicode="*" horiz-adv-x="1159" 
d="M238 987l-33 57l319 181l-319 178l33 57l315 -188l-6 366h65l-4 -366l314 188l32 -57l-319 -180l319 -179l-32 -57l-314 189l4 -367h-65l6 367z" />
    <glyph glyph-name="plus" unicode="+" horiz-adv-x="1884" 
d="M975 727h704v-61h-704v-666h-66v666h-704v61h704v666h66v-666z" />
    <glyph glyph-name="comma" unicode="," horiz-adv-x="479" 
d="M184 0v98h111v-98l-70 -287h-41l49 287h-49z" />
    <glyph glyph-name="hyphen" unicode="-" horiz-adv-x="1966" 
d="M246 666v61h1474v-61h-1474z" />
    <glyph glyph-name="period" unicode="." horiz-adv-x="479" 
d="M184 0v98h111v-98h-111z" />
    <glyph glyph-name="slash" unicode="/" horiz-adv-x="1007" 
d="M737 1475h66l-533 -1782h-65z" />
    <glyph glyph-name="zero" unicode="0" horiz-adv-x="1867" 
d="M934 -41q-166 0 -305.5 54.5t-237.5 153t-152.5 240.5t-54.5 312q0 341 207 548.5t543 207.5q220 0 390 -93.5t264.5 -265.5t94.5 -397q0 -226 -94.5 -399t-264.5 -267t-390 -94zM934 20q148 0 274 49.5t217 139t142 221t51 289.5q0 209 -88 367.5t-243 242.5t-353 84
t-353 -83.5t-243 -242t-88 -368.5q0 -159 51 -290.5t142 -221t217 -138.5t274 -49z" />
    <glyph glyph-name="one" unicode="1" horiz-adv-x="1597" 
d="M831 1434v-1373h562v-61h-1188v61h561v1305l-539 -236l-22 58l561 246h65z" />
    <glyph glyph-name="two" unicode="2" horiz-adv-x="1773" 
d="M1589 1059q0 -100 -44 -179.5t-118.5 -132.5t-171 -95.5t-205 -75.5t-217 -65.5t-209.5 -72t-180.5 -88.5t-131.5 -122.5t-62 -166.5h1339v-61h-1405v20q0 75 23 139.5t55.5 112t94 92t111.5 72.5t137 60.5t140.5 50t151.5 46.5q106 32 160 49.5t142 51t134 65t97 76.5
t72.5 101t21.5 123q0 173 -144.5 263.5t-410.5 90.5q-310 0 -484 -116.5t-174 -344.5h-65q0 248 185 385.5t538 137.5q301 0 460.5 -107t159.5 -309z" />
    <glyph glyph-name="three" unicode="3" horiz-adv-x="1773" 
d="M1255 739q163 -33 248.5 -114t85.5 -236q0 -206 -165.5 -318t-516.5 -112q-345 0 -534 129.5t-189 372.5h66q0 -116 51.5 -202.5t144.5 -137.5t213.5 -76t268.5 -25q282 0 439 90.5t157 278.5q0 61 -17 108t-46.5 80.5t-82 57t-110.5 37.5t-145.5 22t-173 10.5
t-206.5 2.5v61q114 0 199 3t168 11.5t141 23t108.5 38t80.5 56.5t46.5 78t16.5 103q0 332 -583 332q-670 0 -670 -440h-66q0 245 182 373.5t533 128.5q670 0 670 -383q0 -155 -80 -237.5t-234 -115.5z" />
    <glyph glyph-name="four" unicode="4" horiz-adv-x="1994" 
d="M1434 420h356v-62h-356v-358h-66v358h-1163v62l1163 1014h66v-1014zM1368 1348l-1065 -928h1065v928z" />
    <glyph glyph-name="five" unicode="5" horiz-adv-x="1814" 
d="M1008 1014q128 0 239.5 -31t197.5 -90t135.5 -153t49.5 -212q0 -257 -191.5 -413t-533.5 -156q-624 0 -721 471h66q94 -410 665 -410q303 0 476.5 140.5t173.5 361.5q0 86 -29.5 157t-81.5 121t-122.5 84.5t-152 51t-171.5 16.5q-178 0 -343.5 -52.5t-357.5 -162.5
l-59 33l160 664h1175v-62h-1122l-133 -553q322 195 680 195z" />
    <glyph glyph-name="six" unicode="6" horiz-adv-x="1867" 
d="M979 1014q121 0 221.5 -17t187.5 -56t147 -98.5t94 -150t34 -205.5q0 -260 -194 -394t-535 -134q-369 0 -549 175t-180 487q0 142 18 260t51 205.5t82 154.5t107 111t131 72t149.5 39.5t165.5 11.5q280 0 645 -86v-62q-152 32 -211 44t-179.5 27t-225.5 15
q-351 0 -508 -181t-160 -589q29 73 85 136.5t141 117.5t209.5 85.5t273.5 31.5zM934 20q322 0 492.5 123.5t170.5 343.5q0 233 -153 349t-465 116q-196 0 -350.5 -59.5t-240 -165.5t-85.5 -240q0 -71 23.5 -137.5t73.5 -126.5t123 -105t178.5 -71.5t232.5 -26.5z" />
    <glyph glyph-name="seven" unicode="7" horiz-adv-x="1603" 
d="M123 1372v62h1358v-62q-416 -190 -621 -529t-205 -843h-65q0 995 790 1372h-1257z" />
    <glyph glyph-name="eight" unicode="8" horiz-adv-x="1867" 
d="M1266 803q417 -79 417 -391q0 -81 -25 -148t-81.5 -124.5t-142.5 -97t-212.5 -61.5t-287.5 -22t-288.5 22t-213 61.5t-142 96.5t-81.5 124.5t-25 148.5q0 312 418 391q-295 76 -295 309q0 363 627 363t627 -363q0 -233 -295 -309zM373 1114q0 -285 561 -285t561 285
q0 139 -132.5 219t-428.5 80t-428.5 -80t-132.5 -219zM934 20q182 0 316.5 29.5t213.5 83.5t116.5 123.5t37.5 155.5q0 171 -167.5 263.5t-516.5 92.5t-516.5 -92.5t-167.5 -263.5q0 -86 37.5 -155.5t116.5 -123.5t213.5 -83.5t316.5 -29.5z" />
    <glyph glyph-name="nine" unicode="9" horiz-adv-x="1867" 
d="M934 1475q369 0 549 -175t180 -487q0 -142 -18.5 -260t-51 -205.5t-82 -154.5t-107.5 -111t-131 -72t-149.5 -39.5t-165.5 -11.5q-280 0 -645 86v61q150 -32 210.5 -44t181 -27t225.5 -15q351 0 507.5 181.5t159.5 589.5q-29 -73 -85 -136.5t-140.5 -117.5t-209 -85.5
t-273.5 -31.5q-153 0 -273 27.5t-214.5 87.5t-145.5 164t-51 247q0 260 194 394.5t535 134.5zM889 481q196 0 350.5 59.5t240 165.5t85.5 240q0 71 -23.5 137.5t-73.5 126.5t-123 105t-178.5 71.5t-232.5 26.5q-322 0 -493 -123.5t-171 -343.5q0 -465 619 -465z" />
    <glyph glyph-name="colon" unicode=":" horiz-adv-x="479" 
d="M184 614v99h111v-99h-111zM184 0v98h111v-98h-111z" />
    <glyph glyph-name="semicolon" unicode=";" horiz-adv-x="479" 
d="M184 614v99h111v-99h-111zM233 0h-49v98h111v-98l-70 -287h-41z" />
    <glyph glyph-name="less" unicode="&#x3c;" horiz-adv-x="1843" 
d="M205 731l1433 416v-66l-1314 -385l1314 -383v-65l-1433 414v69z" />
    <glyph glyph-name="equal" unicode="=" horiz-adv-x="1884" 
d="M205 993v62h1474v-62h-1474zM205 338v61h1474v-61h-1474z" />
    <glyph glyph-name="greater" unicode="&#x3e;" horiz-adv-x="1843" 
d="M205 1081v66l1433 -416v-69l-1433 -414v65l1315 383z" />
    <glyph glyph-name="question" unicode="?" horiz-adv-x="1732" 
d="M784 389h-65q0 87 25.5 153.5t68.5 108t98.5 72.5t117.5 51.5t123.5 39.5t117 42.5t98.5 54t68.5 80t25.5 115.5q0 73 -29.5 128t-79 88.5t-124 54.5t-154 28.5t-178.5 7.5q-126 0 -222.5 -13.5t-178.5 -46t-135 -86t-82 -135t-29 -190.5h-66q0 147 46 250.5t137.5 165
t216 89.5t293.5 28q329 0 490 -85t161 -284q0 -75 -25.5 -132.5t-68.5 -93t-99 -62t-117.5 -46.5l-123 -40t-117.5 -47.5t-99 -64t-68.5 -95.5t-25.5 -136zM676 0v98h110v-98h-110z" />
    <glyph glyph-name="at" unicode="@" horiz-adv-x="2598" 
d="M1352 -430q197 0 352 24t271.5 72.5t201 112.5t156.5 153l41 -41q-75 -91 -159 -156t-203.5 -119t-284 -81t-375.5 -27q-1147 0 -1147 1041q0 529 281.5 799t844.5 270q261 0 454 -52.5t331.5 -166.5t208 -301.5t69.5 -450.5q0 -121 -9.5 -213.5t-33.5 -174t-63 -134
t-100.5 -82t-143.5 -29.5q-83 0 -140 20.5t-87 60t-43.5 84t-16.5 106.5q-133 -244 -497 -244q-142 0 -250.5 39t-176 109.5t-101.5 164.5t-34 209t34 209t101.5 164.5t176 109.5t250.5 39q183 0 307 -63.5t188 -177.5v200h66v-694q0 -53 4 -90t17.5 -74t37.5 -59.5
t65 -36.5t99 -14q69 0 119 27.5t82 76t51 124.5t26 162.5t7 201.5q0 242 -65.5 414.5t-196 276t-311 150.5t-425.5 47q-533 0 -797 -251.5t-264 -755.5q0 -503 265 -741t817 -238zM1260 102q132 0 229.5 36t154.5 100.5t84 145.5t27 179t-27 179t-84 145.5t-154.5 100.5
t-229.5 36t-230 -36t-154.5 -100.5t-84 -145.5t-27.5 -179t27.5 -179t84 -145.5t154.5 -100.5t230 -36z" />
    <glyph glyph-name="A" unicode="A" horiz-adv-x="2156" 
d="M1972 0h-74l-231 391h-1178l-231 -391h-74l852 1434h82zM1077 1382l-551 -929h1104z" />
    <glyph glyph-name="B" unicode="B" horiz-adv-x="2002" 
d="M1513 735q306 -70 306 -352q0 -177 -114 -280t-312 -103h-1188v1434h1085q223 0 335 -100.5t112 -264.5q0 -108 -54.5 -197.5t-169.5 -136.5zM1290 1372h-1020v-616h1020q75 0 141.5 18.5t121 55t86.5 98t32 141.5q0 139 -97.5 221t-283.5 82zM270 61h1102q187 0 284 85
t97 237q0 79 -32 140.5t-86.5 97.5t-121 54.5t-141.5 18.5h-1102v-633z" />
    <glyph glyph-name="C" unicode="C" horiz-adv-x="1998" 
d="M184 719q0 343 231 549.5t619 206.5q163 0 303 -44t238 -119.5t160 -175t80 -212.5h-66q-13 69 -46 135.5t-93 131t-139 113.5t-192 79t-245 30q-188 0 -338 -52.5t-247 -146t-148 -219.5t-51 -276q0 -151 51 -278t148 -221t247 -147t338 -53q132 0 245 30.5t192 79.5
t139 114.5t93 133t46 136.5h66q-17 -114 -79 -214t-160.5 -176t-238.5 -120.5t-303 -44.5q-388 0 -619 207.5t-231 552.5z" />
    <glyph glyph-name="D" unicode="D" horiz-adv-x="1961" 
d="M1044 1434q148 0 278.5 -44.5t233 -130.5t162.5 -225.5t60 -316.5t-60 -316.5t-162.5 -225.5t-233 -130.5t-278.5 -44.5h-839v1434h839zM270 61h754q316 0 502 175.5t186 480.5t-186 480t-502 175h-754v-1311z" />
    <glyph glyph-name="E" unicode="E" horiz-adv-x="1740" 
d="M1556 1434v-62h-1286v-624h1246v-62h-1246v-625h1286v-61h-1351v1434h1351z" />
    <glyph glyph-name="F" unicode="F" horiz-adv-x="1740" 
d="M1556 1434v-62h-1286v-696h1164v-62h-1164v-614h-65v1434h1351z" />
    <glyph glyph-name="G" unicode="G" horiz-adv-x="2000" 
d="M184 717q0 225 111.5 398.5t304.5 266.5t436 93q143 0 265.5 -31.5t210 -85t153 -125t102.5 -149t50 -160.5h-66q-8 58 -34 119t-82 129t-133.5 120t-198.5 86.5t-267 34.5q-157 0 -289 -40t-222 -107.5t-153.5 -157.5t-92.5 -188.5t-29 -202.5t27.5 -202.5t89 -189
t150 -158t219 -107.5t288.5 -40q222 0 382 46.5t345 150.5v389h-747v62h813v-484q-202 -117 -379.5 -171t-413.5 -54q-242 0 -433 93t-299 266t-108 399z" />
    <glyph glyph-name="H" unicode="H" horiz-adv-x="1986" 
d="M1716 748v686h66v-1434h-66v686h-1446v-686h-65v1434h65v-686h1446z" />
    <glyph glyph-name="I" unicode="I" 
d="M205 1434h65v-1434h-65v1434z" />
    <glyph glyph-name="J" unicode="J" horiz-adv-x="1925" 
d="M1720 1434v-715q0 -135 -24 -245t-79.5 -203.5t-142 -156.5t-215.5 -98.5t-296 -35.5t-297 35t-216 98.5t-141.5 157t-79.5 203t-24 245.5h65q0 -120 18.5 -216.5t66 -185t124.5 -147.5t199.5 -94t284.5 -35t284.5 35t199 94t124 147.5t66 185t18.5 216.5v653h-797v62
h862z" />
    <glyph glyph-name="K" unicode="K" horiz-adv-x="1916" 
d="M1624 1434h109l-824 -596l824 -838h-91l-786 799l-586 -424v-375h-65v1434h65v-981z" />
    <glyph glyph-name="L" unicode="L" horiz-adv-x="1658" 
d="M270 1434v-1373h1205v-61h-1270v1434h65z" />
    <glyph glyph-name="M" unicode="M" horiz-adv-x="2379" 
d="M2099 1434h76v-1434h-66v1335l-886 -1335h-66l-887 1335v-1335h-65v1434h76l909 -1368z" />
    <glyph glyph-name="N" unicode="N" horiz-adv-x="2011" 
d="M1741 61v1373h65v-1434h-94l-1442 1372v-1372h-65v1434h94z" />
    <glyph glyph-name="O" unicode="O" horiz-adv-x="2088" 
d="M1044 -41q-401 0 -630.5 206.5t-229.5 553.5q0 346 229.5 551t630.5 205q399 0 630 -206t231 -550q0 -346 -231 -553t-630 -207zM1044 20q187 0 338 52t250.5 144.5t153 221t53.5 281.5q0 152 -53 279.5t-152.5 219.5t-250.5 143.5t-339 51.5t-338.5 -51t-250 -143
t-152.5 -219.5t-53 -280.5q0 -154 53 -282.5t153 -221t250.5 -144t337.5 -51.5z" />
    <glyph glyph-name="P" unicode="P" horiz-adv-x="1900" 
d="M1147 1434q260 0 414.5 -132t154.5 -356t-154.5 -355.5t-414.5 -131.5h-877v-459h-65v1434h942zM270 520h877q229 0 366.5 110t137.5 316t-137.5 316t-366.5 110h-877v-852z" />
    <glyph glyph-name="Q" unicode="Q" horiz-adv-x="2072" 
d="M1679 170l250 -250l-45 -45l-254 254q-226 -170 -586 -170q-401 0 -630.5 206.5t-229.5 553.5q0 346 229.5 551t630.5 205q399 0 630 -206t231 -550q0 -169 -58 -308.5t-168 -240.5zM1044 20q327 0 539 156l-346 346l45 45l350 -350q101 92 154 220.5t53 281.5
q0 152 -53 279.5t-152.5 219.5t-250.5 143.5t-339 51.5t-338.5 -51t-250 -143t-152.5 -219.5t-53 -280.5q0 -154 53 -282.5t153 -221t250.5 -144t337.5 -51.5z" />
    <glyph glyph-name="R" unicode="R" horiz-adv-x="1900" 
d="M1423 659q107 -14 169.5 -82t62.5 -180v-397h-66v397q0 98 -61.5 151.5t-163.5 53.5h-1094v-602h-65v1434h942q272 0 400 -101t128 -305q0 -285 -252 -369zM1147 1372h-877v-708h877q237 0 350 88t113 276q0 186 -111 265t-352 79z" />
    <glyph glyph-name="S" unicode="S" horiz-adv-x="1978" 
d="M164 485h65q0 -107 32 -185.5t94.5 -132t163.5 -86.5t229.5 -47t302.5 -14q171 0 295 17.5t217 57.5t139.5 109.5t46.5 168.5q0 66 -15 113t-59 81t-93.5 54t-148.5 35t-191 23t-253 17q-308 18 -470 60.5t-228 122t-66 223.5q0 205 179.5 289t574.5 84
q397 0 585.5 -121.5t188.5 -380.5h-65q0 101 -33 177t-93.5 126t-155 80.5t-207.5 43.5t-261 13q-341 0 -494 -70t-153 -241q0 -68 16 -117.5t56 -85.5t89.5 -58.5t136.5 -39t174.5 -25.5t225.5 -18q114 -7 178.5 -12t152.5 -14t135.5 -18.5t109 -24.5t93 -34.5t67.5 -46
t52 -60.5t27 -77.5t11 -97.5q0 -95 -35.5 -166.5t-100 -118.5t-164 -76t-217 -41t-268.5 -12q-228 0 -384.5 25t-267.5 85.5t-162.5 162.5t-51.5 253z" />
    <glyph glyph-name="T" unicode="T" horiz-adv-x="1966" 
d="M1782 1434v-62h-766v-1372h-66v1372h-766v62h1598z" />
    <glyph glyph-name="U" unicode="U" horiz-adv-x="2007" 
d="M1802 1434v-736q0 -739 -798 -739q-799 0 -799 739v736h65v-736q0 -78 9 -146.5t32 -138.5t59 -127t93.5 -107.5t132.5 -85t178.5 -54t229.5 -19.5t229.5 20t178.5 54t132.5 84.5t93.5 107.5t58.5 127t31.5 138.5t9 146.5v736h65z" />
    <glyph glyph-name="V" unicode="V" horiz-adv-x="2156" 
d="M1077 51l821 1383h74l-854 -1434h-82l-852 1434h74z" />
    <glyph glyph-name="W" unicode="W" horiz-adv-x="3168" 
d="M2316 74l596 1360h72l-631 -1434h-74l-696 1372l-696 -1372h-74l-629 1434h72l594 -1360l692 1360h82z" />
    <glyph glyph-name="X" unicode="X" horiz-adv-x="2048" 
d="M283 0h-99l789 717l-789 717h99l741 -676l741 676h99l-789 -717l789 -717h-99l-741 676z" />
    <glyph glyph-name="Y" unicode="Y" horiz-adv-x="2123" 
d="M1061 549l792 885h86l-845 -947v-487h-66v487l-844 947h86z" />
    <glyph glyph-name="Z" unicode="Z" horiz-adv-x="1863" 
d="M205 1434h1454v-62l-1362 -1311h1362v-61h-1454v61l1362 1311h-1362v62z" />
    <glyph glyph-name="bracketleft" unicode="[" horiz-adv-x="1159" 
d="M954 1638v-61h-684v-1925h684v-62h-749v2048h749z" />
    <glyph glyph-name="backslash" unicode="\" horiz-adv-x="1007" 
d="M737 -307l-532 1782h65l533 -1782h-66z" />
    <glyph glyph-name="bracketright" unicode="]" horiz-adv-x="1159" 
d="M205 1638h749v-2048h-749v62h684v1925h-684v61z" />
    <glyph glyph-name="asciicircum" unicode="^" horiz-adv-x="1843" 
d="M965 1638l673 -921h-82l-632 866l-637 -866h-82l678 921h82z" />
    <glyph glyph-name="underscore" unicode="_" horiz-adv-x="2375" 
d="M246 -297v61h1884v-61h-1884z" />
    <glyph glyph-name="grave" unicode="`" horiz-adv-x="1124" 
d="M205 1628l715 -164v-61l-715 164v61z" />
    <glyph glyph-name="a" unicode="a" horiz-adv-x="1822" 
d="M1016 1229q314 0 466.5 -117t155.5 -364v-748h-65v166q-114 -48 -189 -77t-183.5 -63t-215.5 -50.5t-217 -16.5q-158 0 -271.5 28t-181.5 82.5t-99.5 128.5t-31.5 173q0 420 678 420q298 0 711 -123v80q0 83 -22 149.5t-55 109.5t-84 74t-97 47.5t-107 25.5t-101 11
t-91 2q-150 0 -314.5 -25.5t-402.5 -97.5l-23 60q384 125 740 125zM768 20q192 0 389.5 56.5t415.5 150.5v373q-116 36 -201 59t-231.5 46.5t-278.5 23.5q-92 0 -172.5 -8.5t-164 -32.5t-142 -62.5t-96 -103.5t-37.5 -151q0 -182 127 -266.5t391 -84.5z" />
    <glyph glyph-name="b" unicode="b" horiz-adv-x="1839" 
d="M942 1229q336 0 524.5 -169.5t188.5 -465.5t-188.5 -465.5t-524.5 -169.5q-255 0 -428 99t-244 280v-338h-65v1638h65v-788q71 181 244 280t428 99zM932 20q142 0 260.5 36t207.5 106t139 180.5t50 251.5t-50 251.5t-139 180t-207.5 105.5t-260.5 36t-261 -36
t-209.5 -105.5t-141 -180t-50.5 -251.5t50.5 -251.5t140.5 -180.5t209.5 -106t261.5 -36z" />
    <glyph glyph-name="c" unicode="c" horiz-adv-x="1806" 
d="M184 594q0 298 194.5 466.5t551.5 168.5q283 0 459.5 -106.5t232.5 -303.5h-72q-56 171 -212 259.5t-408 88.5q-114 0 -214 -20.5t-186.5 -65t-148 -110.5t-96.5 -162t-35 -215t35 -215.5t96.5 -162.5t148 -110.5t186.5 -65t214 -20.5q252 0 408 89t212 260h72
q-56 -197 -232.5 -303.5t-459.5 -106.5q-357 0 -551.5 168.5t-194.5 466.5z" />
    <glyph glyph-name="d" unicode="d" horiz-adv-x="1839" 
d="M1569 850v788h65v-1638h-65v338q-71 -181 -244 -280t-428 -99q-336 0 -524.5 169.5t-188.5 465.5t188.5 465.5t524.5 169.5q255 0 428 -99t244 -280zM907 20q142 0 261.5 36t209.5 106t140.5 180.5t50.5 251.5t-50.5 251.5t-141 180t-209.5 105.5t-261 36t-260.5 -36
t-207.5 -105.5t-139 -180t-50 -251.5t50 -251.5t139 -180.5t207.5 -106t260.5 -36z" />
    <glyph glyph-name="e" unicode="e" horiz-adv-x="1843" 
d="M940 20q264 0 417.5 86.5t205.5 241.5h71q-52 -181 -225.5 -285t-468.5 -104q-365 0 -560.5 168t-195.5 467q0 298 194.5 466.5t551.5 168.5q355 0 542 -166t187 -459h-1409v-10q0 -119 35 -215.5t97 -162.5t149.5 -110.5t189.5 -65t219 -20.5zM930 1167
q-107 0 -201.5 -18t-178 -57t-145.5 -96.5t-101.5 -141.5t-49.5 -188h1337q-12 169 -103.5 283.5t-233 166t-324.5 51.5z" />
    <glyph glyph-name="f" unicode="f" horiz-adv-x="1343" 
d="M897 1597q-91 0 -145 -12.5t-87.5 -47.5t-45 -90t-11.5 -149v-110h592v-62h-592v-1126h-65v1126h-379v62h379v108q0 98 13.5 161.5t51 111.5t106 69t175.5 21q135 0 311 -21v-61q-160 20 -303 20z" />
    <glyph glyph-name="g" unicode="g" horiz-adv-x="1839" 
d="M1569 850v338h65v-1153q0 -105 -16.5 -186t-59.5 -154.5t-114 -122t-185 -76.5t-268 -28q-178 0 -317 8.5t-393 31.5v62q191 -17 260.5 -23t194 -12t247.5 -6q140 0 242 22t168 62t105.5 104t55 139.5t15.5 176.5v305q-71 -182 -243.5 -280.5t-426.5 -98.5
q-337 0 -526 169.5t-189 465.5t189 465.5t526 169.5q254 0 426.5 -98.5t243.5 -280.5zM909 20q142 0 261 36t208.5 106t140 180.5t50.5 251.5t-50.5 251.5t-140 180t-208.5 105.5t-261 36q-113 0 -212 -22.5t-181 -69t-141.5 -113.5t-92 -161t-32.5 -207q0 -141 50 -251.5
t139.5 -180.5t208.5 -106t261 -36z" />
    <glyph glyph-name="h" unicode="h" horiz-adv-x="1826" 
d="M981 1229q127 0 224.5 -20t177 -67t130.5 -123t79 -188.5t30 -263.5v-567h-66v567q0 135 -23.5 236t-68.5 170.5t-115.5 112.5t-160 62t-207.5 19q-196 0 -357.5 -77.5t-257.5 -222t-96 -328.5v-539h-65v1638h65v-817q89 192 278.5 300t432.5 108z" />
    <glyph glyph-name="i" unicode="i" 
d="M205 1434v204h65v-204h-65zM205 0v1188h65v-1188h-65z" />
    <glyph glyph-name="j" unicode="j" horiz-adv-x="882" 
d="M633 1434v204h65v-204h-65zM633 1188h65v-1338q0 -80 -5.5 -135t-22.5 -105t-47 -79t-79.5 -46t-119.5 -17q-98 0 -301 40v62q12 -2 64.5 -12t81 -14.5t72.5 -9.5t75 -5q56 0 93.5 10.5t62.5 32t38 61.5t18 89.5t5 125.5v1340z" />
    <glyph glyph-name="k" unicode="k" horiz-adv-x="1722" 
d="M1421 1188h117l-682 -447l682 -741h-86l-651 707l-531 -349v-358h-65v1638h65v-1206z" />
    <glyph glyph-name="l" unicode="l" 
d="M205 0v1638h65v-1638h-65z" />
    <glyph glyph-name="m" unicode="m" horiz-adv-x="2809" 
d="M2050 1229q114 0 200 -20t153.5 -64.5t110.5 -117t66 -176.5t25 -243v-608h-65v608q0 305 -115 432t-375 127q-131 0 -240.5 -36t-193.5 -107.5t-131 -188t-47 -268.5v-567h-66v608q0 305 -114.5 432t-374.5 127q-131 0 -240.5 -36t-194 -107.5t-131.5 -188t-47 -268.5
v-567h-65v1188h65v-314q79 179 239.5 267t373.5 88q235 0 365.5 -93.5t170.5 -310.5q48 137 142.5 229t216.5 133.5t272 41.5z" />
    <glyph glyph-name="n" unicode="n" horiz-adv-x="1826" 
d="M981 1229q127 0 224.5 -20t177 -67t130.5 -123t79 -188.5t30 -263.5v-567h-66v567q0 135 -23.5 236t-68.5 170.5t-115.5 112.5t-160 62t-207.5 19q-196 0 -357.5 -77.5t-257.5 -222t-96 -328.5v-539h-65v1188h65v-367q89 192 278.5 300t432.5 108z" />
    <glyph glyph-name="o" unicode="o" horiz-adv-x="1859" 
d="M930 -41q-346 0 -546 170t-200 465t200 465t546 170t545.5 -170t199.5 -465t-199.5 -465t-545.5 -170zM930 20q145 0 268 36t215.5 106t144.5 180.5t52 251.5t-52 251.5t-144.5 180t-215 105.5t-268.5 36t-268.5 -36t-215 -105.5t-144.5 -180t-52 -251.5t52 -251.5
t144.5 -180.5t215.5 -106t268 -36z" />
    <glyph glyph-name="p" unicode="p" horiz-adv-x="1839" 
d="M950 1229q336 0 520.5 -169t184.5 -466t-184.5 -466t-520.5 -169q-256 0 -432.5 100t-247.5 281v-832h-65v1680h65v-340q71 181 247.5 281t432.5 100zM940 20q141 0 259 36t205.5 106t136 180.5t48.5 251.5q0 113 -31.5 207t-89.5 161.5t-138.5 113.5t-178.5 68.5
t-211 22.5q-142 0 -262.5 -36t-212 -105.5t-143.5 -180t-52 -251.5t52 -251.5t143.5 -180.5t212 -106t262.5 -36z" />
    <glyph glyph-name="q" unicode="q" horiz-adv-x="1839" 
d="M1569 848v340h65v-1680h-65v832q-71 -181 -247.5 -281t-432.5 -100q-336 0 -520.5 169t-184.5 466t184.5 466t520.5 169q256 0 432.5 -100t247.5 -281zM899 20q142 0 262.5 36t212 106t143.5 180.5t52 251.5t-52 251.5t-143.5 180t-212 105.5t-262.5 36
q-113 0 -211 -22.5t-178.5 -68.5t-138.5 -113.5t-89.5 -161.5t-31.5 -207q0 -141 48.5 -251.5t136 -180.5t205.5 -106t259 -36z" />
    <glyph glyph-name="r" unicode="r" horiz-adv-x="1347" 
d="M866 1229q170 0 338 -41v-62q-163 41 -338 41q-65 0 -125.5 -10t-136.5 -35.5t-161.5 -78t-172.5 -130.5v-913h-65v1188h65v-205q100 97 207.5 153.5t196 74.5t192.5 18z" />
    <glyph glyph-name="s" unicode="s" horiz-adv-x="1849" 
d="M184 362h66q17 -99 73.5 -167t156 -105.5t223.5 -53.5t296 -16q328 0 464 64t136 219q0 44 -6.5 77t-24 59t-38.5 44t-61.5 32t-80 22.5t-107 16t-130 13t-160.5 12.5q-45 3 -69 5q-159 12 -265.5 26.5t-191.5 38t-131.5 58.5t-70 84t-23.5 118q0 76 32 133t87.5 92.5
t142 57t184 29.5t225.5 8q127 0 223 -9t182.5 -32.5t145 -62.5t98.5 -101t56 -147h-66q-12 59 -40.5 105.5t-73.5 77.5t-99 52.5t-125 33t-142 16.5t-159 5q-314 0 -460 -57.5t-146 -200.5q0 -42 11.5 -73.5t31.5 -55.5t62 -42.5t86 -31.5t122 -24t152 -19t193 -18
q28 -2 81 -7q89 -8 131 -12t112 -12t102 -15.5t81.5 -21t71.5 -29t51.5 -38t41.5 -51t21 -65t9 -81.5q0 -189 -157.5 -271.5t-508.5 -82.5q-115 0 -207 6.5t-183.5 23t-160.5 46t-125.5 73.5t-91.5 108t-47 146z" />
    <glyph glyph-name="t" unicode="t" horiz-adv-x="1466" 
d="M1282 1188v-62h-674v-737q0 -71 8.5 -126t23.5 -94t41.5 -66t55.5 -43.5t73 -25t86 -11.5t103 -3q86 0 283 31v-61q-181 -31 -283 -31q-96 0 -162 9t-125.5 35.5t-94 74t-54.5 124.5t-20 187v737h-379v62h379v325l65 43v-368h674z" />
    <glyph glyph-name="u" unicode="u" horiz-adv-x="1826" 
d="M1556 649v539h66v-1188h-66v367q-89 -192 -278 -300t-432 -108q-127 0 -224.5 20t-177 67t-130.5 123t-79 188.5t-30 263.5v567h65v-567q0 -169 35.5 -285t109.5 -185.5t178.5 -100t252.5 -30.5q146 0 276.5 46t226 127t151.5 199.5t56 256.5z" />
    <glyph glyph-name="v" unicode="v" horiz-adv-x="1882" 
d="M942 61l682 1127h74l-719 -1188h-74l-721 1188h74z" />
    <glyph glyph-name="w" unicode="w" horiz-adv-x="2856" 
d="M2056 70l547 1118h70l-580 -1188h-72v2l-591 1118l-596 -1120h-72l-578 1188h70l545 -1118l592 1118h75z" />
    <glyph glyph-name="x" unicode="x" horiz-adv-x="1785" 
d="M281 0h-97l664 594l-664 594h97l612 -549l612 549h97l-664 -594l664 -594h-97l-612 549z" />
    <glyph glyph-name="y" unicode="y" horiz-adv-x="1830" 
d="M922 29l651 1159h74l-717 -1272q-16 -28 -43 -77.5t-40.5 -73.5t-37.5 -64t-38.5 -60t-38 -49.5t-42 -44t-44.5 -33t-51.5 -26.5t-57 -14t-66.5 -6q-87 0 -262 30v62l66 -11t57.5 -9t43 -5.5t48.5 -4.5t47 -1q32 0 59.5 4.5t53 17.5t44 24t41 37t36.5 43t36.5 55t35 59.5
t39.5 71t42 75.5l47 84h-41l-680 1188h74z" />
    <glyph glyph-name="z" unicode="z" horiz-adv-x="1667" 
d="M205 1188h1257v-62l-1161 -1065h1161v-61h-1257v61l1161 1065h-1161v62z" />
    <glyph glyph-name="braceleft" unicode="{" horiz-adv-x="1146" 
d="M205 565v103q48 0 79.5 3t64.5 12t52 26t35.5 46t22.5 71.5t5.5 102t-9.5 138.5q-18 161 1.5 270t80.5 176t159 96t246 29v-61q-160 0 -254 -35t-133.5 -106t-44 -178.5t15.5 -251.5q11 -70 7.5 -124.5t-11 -94.5t-25.5 -68t-36 -46t-42.5 -28t-45.5 -14t-45 -4v-21
q24 0 45 -4t45.5 -14t42.5 -28t36 -46t25.5 -68t11 -94.5t-7.5 -124.5q-20 -146 -16 -254t44 -179.5t134 -106.5t254 -35v-62q-127 0 -215 19t-149.5 60.5t-91 108.5t-39 163.5t7.5 224.5q9 79 9.5 138.5t-5.5 102t-22.5 71.5t-35.5 46t-52 26t-64.5 12t-79.5 3z" />
    <glyph glyph-name="bar" unicode="|" 
d="M205 -307v1945h65v-1945h-65z" />
    <glyph glyph-name="braceright" unicode="}" horiz-adv-x="1146" 
d="M942 668v-103q-48 0 -79.5 -3t-64.5 -12t-52 -26t-35.5 -46t-22.5 -71.5t-5.5 -102t9.5 -138.5q17 -128 7.5 -224.5t-39 -163.5t-91 -108.5t-149.5 -60.5t-215 -19v62q160 0 254 35t134 106.5t44 179.5t-16 254q-11 70 -7.5 124.5t11 94.5t25.5 68t36 46t42.5 28t45.5 14
t45 4v21q-24 0 -45 4t-45.5 14t-42.5 28t-36 46t-25.5 68t-11 94.5t7.5 124.5q20 144 15.5 251.5t-44 178.5t-133.5 106t-254 35v61q148 0 246 -29t159 -96t80.5 -176t1.5 -270q-9 -79 -9.5 -138.5t5.5 -102t22.5 -71.5t35.5 -46t52 -26t64.5 -12t79.5 -3z" />
    <glyph glyph-name="asciitilde" unicode="~" horiz-adv-x="1867" 
d="M270 451h-65q0 44 2 79.5t10 89t22 94.5t41 85.5t64 74.5t93.5 49t127.5 19q76 0 141.5 -23.5t113 -61.5t91 -84t85 -92t84.5 -84t100.5 -61.5t122.5 -23.5q87 0 146.5 31.5t91 92.5t44 134t12.5 172h66q0 -44 -2 -79.5t-10 -89t-22 -94.5t-41 -85.5t-64 -74.5t-93.5 -49
t-127.5 -19q-76 0 -141.5 23.5t-113 61.5t-91 84t-85 92t-84.5 84t-100.5 61.5t-122.5 23.5q-70 0 -122.5 -21.5t-85 -58.5t-52.5 -93t-27.5 -117.5t-7.5 -139.5z" />
    <glyph glyph-name="exclamdown" unicode="&#xa1;" horiz-adv-x="520" 
d="M315 1130h-110v99h110v-99zM293 819v-1024h-66v1024h66z" />
    <glyph glyph-name="cent" unicode="&#xa2;" horiz-adv-x="1847" 
d="M965 1290v-1147q246 3 399 92t207 257h71q-56 -194 -228.5 -300.5t-448.5 -109.5v-287h-62v287q-335 12 -516.5 179.5t-181.5 455.5t181.5 455.5t516.5 179.5v286h62v-286q276 -3 448.5 -109.5t228.5 -300.5h-71q-54 168 -207 256.5t-399 91.5zM270 717
q0 -114 32.5 -207.5t89.5 -159t137 -111t173.5 -69t200.5 -27.5v1147q-135 -5 -247 -41.5t-200 -104t-137 -176.5t-49 -251z" />
    <glyph glyph-name="sterling" unicode="&#xa3;" horiz-adv-x="1720" 
d="M975 1413q-246 0 -347 -148.5t-48 -449.5q12 -79 18 -147h721v-62h-717q4 -212 -76 -340.5t-241 -204.5h1231v-61h-1311v61q74 44 122 78t95 82t71.5 99.5t38 123.5t9.5 162h-336v62h332q-11 86 -23 147q-17 89 -18 170t14.5 155.5t52 135t91.5 105.5t136.5 69.5
t184.5 24.5q231 0 541 -62v-61q-274 61 -541 61z" />
    <glyph glyph-name="currency" unicode="&#xa4;" horiz-adv-x="1966" 
d="M1731 696q0 -187 -83 -326t-237 -218l350 -351l-45 -43l-366 367q-159 -64 -365 -64q-207 0 -369 64l-366 -367l-45 43l352 353q-153 79 -235 217.5t-82 324.5q0 182 78.5 319.5t224.5 217.5l-338 338l45 43l352 -352q167 69 383 69t383 -69l348 352l45 -43l-334 -338
q146 -80 225 -218t79 -319zM305 696q0 -141 52 -251.5t144.5 -180t215 -105.5t268.5 -36t268.5 36t215 105.5t144.5 180t52 251.5t-52 251.5t-144.5 180.5t-215.5 106t-268 36t-268 -36t-215.5 -106t-144.5 -180.5t-52 -251.5z" />
    <glyph glyph-name="yen" unicode="&#xa5;" horiz-adv-x="2164" 
d="M1874 1434h86l-797 -891h660v-62h-709v-143h709v-62h-709v-276h-65v276h-709v62h709v143h-709v62h659l-794 891h86l790 -885z" />
    <glyph glyph-name="brokenbar" unicode="&#xa6;" 
d="M205 891v747h65v-747h-65zM205 -307v747h65v-747h-65z" />
    <glyph glyph-name="section" unicode="&#xa7;" horiz-adv-x="1773" 
d="M1233 438q216 -35 303.5 -96.5t87.5 -194.5q0 -76 -29.5 -132.5t-80.5 -92t-130 -57t-167 -29.5t-203 -8t-209 9t-185.5 32.5t-157 62.5t-112 101.5t-61.5 146.5h65q57 -291 660 -291q282 0 413.5 57.5t131.5 200.5q0 103 -73 151q-69 45 -272 76q-45 7 -272 38
q-118 16 -186 26.5t-154 27t-132.5 33.5t-97.5 42t-75.5 56t-40.5 72.5t-16 94.5q0 141 103 213t329 92q-216 35 -303.5 96.5t-87.5 194.5q0 64 21 114t62.5 84.5t95.5 58.5t127.5 37.5t151 19t172.5 5.5q100 0 181 -6.5t158.5 -21t136.5 -41t107 -64.5t78.5 -93t43.5 -126
h-66q-11 59 -41.5 105.5t-77 77.5t-102 53t-126.5 33.5t-140 16.5t-152 5q-141 0 -242 -13t-175.5 -42t-111 -79.5t-36.5 -123.5q0 -46 12 -78.5t41 -56.5t69 -40.5t104 -29.5t137 -24t177 -25q50 -6 77 -10q81 -11 133 -18.5t117.5 -18.5t106 -20.5t90 -22.5t79 -27
t62 -32.5t51 -40t34.5 -47.5t22.5 -57.5t6.5 -68.5q0 -141 -103 -213t-329 -92zM305 774q0 -51 13 -88t48.5 -66t81 -49t130 -38t173.5 -30.5t232 -29.5q3 0 8.5 -1t7.5 -1q325 0 462.5 61t137.5 201q0 44 -11 77t-31.5 59.5t-61.5 47t-87.5 36.5t-125 30t-158.5 25.5
t-202 25.5q-3 0 -9 1t-8 1q-325 0 -462.5 -61t-137.5 -201z" />
    <glyph glyph-name="dieresis" unicode="&#xa8;" horiz-adv-x="950" 
d="M205 1425v99h110v-99h-110zM635 1425v99h110v-99h-110z" />
    <glyph glyph-name="copyright" unicode="&#xa9;" horiz-adv-x="2099" 
d="M1051 -20q-252 0 -444 90.5t-297 258.5t-105 390t105 389t297 256.5t444 89.5q383 0 613 -199.5t230 -535.5t-230 -537.5t-613 -201.5zM1051 41q179 0 326.5 52t246 143t152 215t53.5 268t-53.5 267.5t-151.5 214t-245.5 141.5t-327.5 51t-328 -51.5t-246.5 -142
t-152.5 -214t-54 -266.5q0 -144 54 -268.5t153 -215t247 -142.5t327 -52zM594 717q0 178 118 283.5t343 105.5q188 0 292.5 -79t131.5 -208h-72q-59 225 -352 225q-79 0 -147 -17.5t-125.5 -54.5t-90.5 -102.5t-33 -152.5t33 -152.5t90 -102.5t125 -55t146 -18
q295 0 354 225h72q-27 -129 -131.5 -207.5t-294.5 -78.5q-224 0 -341.5 105.5t-117.5 283.5z" />
    <glyph glyph-name="guillemotleft" unicode="&#xab;" horiz-adv-x="1544" 
d="M205 594l532 594h90l-532 -594l532 -594h-90zM717 594l532 594h90l-532 -594l532 -594h-90z" />
    <glyph glyph-name="logicalnot" unicode="&#xac;" horiz-adv-x="1916" 
d="M1712 727v-557h-65v496h-1442v61h1507z" />
    <glyph glyph-name="registered" unicode="&#xae;" horiz-adv-x="2099" 
d="M1051 -41q-251 0 -443.5 96t-297.5 268.5t-105 395.5q0 222 105 394t297.5 267t443.5 95q189 0 346.5 -55t266.5 -154t169.5 -239.5t60.5 -307.5t-60.5 -308t-169.5 -240.5t-266.5 -155.5t-346.5 -56zM1051 20q178 0 326 55t246 150t152 222.5t54 271.5q0 145 -53.5 271
t-151.5 220t-246 148.5t-327 54.5t-327.5 -54.5t-247 -149t-152.5 -220.5t-54 -270t54.5 -271.5t153 -222.5t247 -150t326.5 -55zM821 371h-65v698h385q147 0 216.5 -64.5t69.5 -170.5q0 -92 -52.5 -156t-160.5 -80l183 -227h-80l-178 223h-318v-223zM821 1008v-353h320
q221 0 221 179q0 174 -221 174h-320z" />
    <glyph glyph-name="macron" unicode="&#xaf;" horiz-adv-x="1206" 
d="M205 1464v62h796v-62h-796z" />
    <glyph glyph-name="degree" unicode="&#xb0;" horiz-adv-x="1333" 
d="M666 633q-105 0 -187.5 26t-133 67.5t-83 98.5t-45 113t-12.5 117q0 60 12.5 116t45 112.5t83 98t133 67.5t187.5 26q106 0 188.5 -26t133 -67.5t83 -98t45 -112t12.5 -116.5t-12.5 -117t-45 -113t-83 -98.5t-133 -67.5t-188.5 -26zM666 694q179 0 290 93.5t111 267.5
q0 175 -110.5 266.5t-290.5 91.5q-178 0 -289 -91.5t-111 -266.5q0 -174 111 -267.5t289 -93.5z" />
    <glyph glyph-name="plusminus" unicode="&#xb1;" horiz-adv-x="1884" 
d="M975 1434v-441h704v-61h-704v-440h-66v440h-704v61h704v441h66zM1679 174h-1474v62h1474v-62z" />
    <glyph glyph-name="acute" unicode="&#xb4;" horiz-adv-x="1124" 
d="M205 1403v61l715 164v-61z" />
    <glyph glyph-name="paragraph" unicode="&#xb6;" horiz-adv-x="1482" 
d="M866 1638h66v-1945h-66v1167q-101 0 -173 3.5t-145.5 13t-123 27t-94 46.5t-70 70t-40.5 98t-15 131t15 131t40.5 98t70 70t94 46.5t123 27t145.5 13t173 3.5zM1212 -307v1945h66v-1945h-66z" />
    <glyph glyph-name="periodcentered" unicode="&#xb7;" horiz-adv-x="520" 
d="M184 573v99h111v-99h-111z" />
    <glyph glyph-name="cedilla" unicode="&#xb8;" horiz-adv-x="925" 
d="M528 -117q83 0 138 -39.5t55 -126.5q0 -68 -42 -114t-113 -65t-164.5 -22.5t-196.5 13.5v61q89 -15 167 -17t142.5 10.5t102.5 46.5t38 87q0 49 -36 78.5t-91 32.5q-81 6 -176 -39l-73 10l40 201h66l-35 -154q83 37 178 37z" />
    <glyph glyph-name="guillemotright" unicode="&#xbb;" horiz-adv-x="1544" 
d="M205 1188h90l532 -594l-532 -594h-90l532 594zM717 1188h90l532 -594l-532 -594h-90l532 594z" />
    <glyph glyph-name="questiondown" unicode="&#xbf;" horiz-adv-x="1773" 
d="M1098 1229v-99h-111v99h111zM989 840h66q0 -87 -25.5 -153.5t-68.5 -108t-99 -72.5t-117.5 -51.5t-123 -39.5t-117.5 -42.5t-99 -54t-68.5 -80t-25.5 -115.5q0 -73 29.5 -128t79.5 -88.5t124.5 -54.5t153.5 -28.5t179 -7.5q126 0 222.5 13.5t178.5 46t135 86t82 135
t29 190.5h65q0 -147 -46 -250.5t-137.5 -165t-216 -89.5t-292.5 -28q-329 0 -490 85t-161 284q0 75 25.5 132.5t68.5 93t98.5 62t117.5 46.5t123.5 40t117 47.5t98.5 64t68.5 95.5t25.5 136z" />
    <glyph glyph-name="Agrave" unicode="&#xc0;" horiz-adv-x="2156" 
d="M719 1874l715 -164v-61l-715 163v62zM1972 0h-74l-231 391h-1178l-231 -391h-74l852 1434h82zM1077 1382l-551 -929h1104z" />
    <glyph glyph-name="Aacute" unicode="&#xc1;" horiz-adv-x="2156" 
d="M719 1710l715 164v-62l-715 -163v61zM1972 0h-74l-231 391h-1178l-231 -391h-74l852 1434h82zM1077 1382l-551 -929h1104z" />
    <glyph glyph-name="Acircumflex" unicode="&#xc2;" horiz-adv-x="2156" 
d="M1419 1690v-62l-342 164l-342 -164v62l342 163zM1972 0h-74l-231 391h-1178l-231 -391h-74l852 1434h82zM1077 1382l-551 -929h1104z" />
    <glyph glyph-name="Atilde" unicode="&#xc3;" horiz-adv-x="2156" 
d="M831 1823q-192 0 -192 -205h-66q0 29 5.5 59.5t22.5 69t44 68t75.5 49.5t110.5 20q69 0 125 -23t94.5 -56t75 -66.5t86.5 -56.5t111 -23q99 0 146 54t47 151h65q0 -29 -5.5 -60t-22.5 -69.5t-44 -67.5t-75.5 -49.5t-110.5 -20.5q-69 0 -125 23.5t-94.5 56.5t-75 66
t-86.5 56.5t-111 23.5zM1972 0h-74l-231 391h-1178l-231 -391h-74l852 1434h82zM1077 1382l-551 -929h1104z" />
    <glyph glyph-name="Adieresis" unicode="&#xc4;" horiz-adv-x="2156" 
d="M807 1769h111v-98h-111v98zM1237 1769h111v-98h-111v98zM1972 0h-74l-231 391h-1178l-231 -391h-74l852 1434h82zM1077 1382l-551 -929h1104z" />
    <glyph glyph-name="Aring" unicode="&#xc5;" horiz-adv-x="2156" 
d="M1077 1577q-186 0 -275 56t-89 153t89 153t275 56t275.5 -56t89.5 -153t-89.5 -153t-275.5 -56zM1077 1933q-162 0 -232.5 -37t-70.5 -110t70.5 -110.5t232.5 -37.5t232.5 37.5t70.5 110.5t-70.5 110t-232.5 37zM1972 0h-74l-231 391h-1178l-231 -391h-74l852 1434h82z
M1077 1382l-551 -929h1104z" />
    <glyph glyph-name="AE" unicode="&#xc6;" horiz-adv-x="2938" 
d="M2755 1372h-1287v-624h1246v-62h-1246v-625h1287v-61h-1352v412h-928l-219 -412h-72l762 1434h1809v-62zM1403 1372h-418l-477 -899h895v899z" />
    <glyph glyph-name="Ccedilla" unicode="&#xc7;" horiz-adv-x="1998" 
d="M1034 20q132 0 245 30.5t192 79.5t139 114.5t93 133t46 136.5h66q-17 -114 -79 -214t-160.5 -176t-238.5 -120.5t-303 -44.5h-49l-31 -133q83 37 179 37q83 0 137.5 -39.5t54.5 -126.5q0 -68 -42 -114t-113 -65.5t-164.5 -23t-196.5 13.5v62q89 -15 167 -17t143 10.5
t103 46.5t38 87q0 49 -36 78t-91 32q-84 6 -177 -38l-73 10l37 184q-339 32 -537.5 235.5t-198.5 520.5q0 343 231 549.5t619 206.5q163 0 303 -44t238 -119.5t160 -175t80 -212.5h-66q-13 69 -46 135.5t-93 131t-139 113.5t-192 79t-245 30q-188 0 -338 -52.5t-247 -146
t-148 -219.5t-51 -276q0 -151 51 -278t148 -221t247 -147t338 -53z" />
    <glyph glyph-name="Egrave" unicode="&#xc8;" horiz-adv-x="1740" 
d="M522 1874l715 -164v-61l-715 163v62zM1556 1434v-62h-1286v-624h1246v-62h-1246v-625h1286v-61h-1351v1434h1351z" />
    <glyph glyph-name="Eacute" unicode="&#xc9;" horiz-adv-x="1740" 
d="M522 1710l715 164v-62l-715 -163v61zM1556 1434v-62h-1286v-624h1246v-62h-1246v-625h1286v-61h-1351v1434h1351z" />
    <glyph glyph-name="Ecircumflex" unicode="&#xca;" horiz-adv-x="1740" 
d="M1223 1690v-62l-342 164l-342 -164v62l342 163zM1556 1434v-62h-1286v-624h1246v-62h-1246v-625h1286v-61h-1351v1434h1351z" />
    <glyph glyph-name="Edieresis" unicode="&#xcb;" horiz-adv-x="1740" 
d="M610 1769h111v-98h-111v98zM1040 1769h111v-98h-111v98zM1556 1434v-62h-1286v-624h1246v-62h-1246v-625h1286v-61h-1351v1434h1351z" />
    <glyph glyph-name="Igrave" unicode="&#xcc;" 
d="M-14 1874l499 -164v-61l-499 163v62zM205 1434h65v-1434h-65v1434z" />
    <glyph glyph-name="Iacute" unicode="&#xcd;" 
d="M-121 1649v61l715 164v-62zM205 1434h65v-1434h-65v1434z" />
    <glyph glyph-name="Icircumflex" unicode="&#xce;" 
d="M-2 1690l240 163l239 -163v-62l-239 164l-240 -164v62zM270 0h-65v1434h65v-1434z" />
    <glyph glyph-name="Idieresis" unicode="&#xcf;" 
d="M49 1671v98h78v-98h-78zM350 1671v98h78v-98h-78zM205 1434h65v-1434h-65v1434z" />
    <glyph glyph-name="Eth" unicode="&#xd0;" horiz-adv-x="2111" 
d="M1194 1434q118 0 225 -27.5t200 -85t161.5 -141t107.5 -202.5t39 -261t-39 -261t-107.5 -202.5t-161.5 -141t-200 -85t-225 -27.5h-840v686h-190v62h190v686h840zM420 61h754q316 0 502 175.5t186 480.5t-186 480t-502 175h-754v-624h563v-62h-563v-625z" />
    <glyph glyph-name="Ntilde" unicode="&#xd1;" horiz-adv-x="2011" 
d="M760 1823q-99 0 -146 -54t-47 -151h-65q0 29 5.5 59.5t22.5 69t44 68t75.5 49.5t110.5 20q69 0 125 -23t94 -56t75 -66.5t86.5 -56.5t110.5 -23q99 0 146 54t47 151h65q0 -29 -5.5 -60t-22.5 -69.5t-44 -67.5t-75.5 -49.5t-110.5 -20.5q-69 0 -125 23.5t-94 56.5t-75 66
t-86.5 56.5t-110.5 23.5zM1741 61v1373h65v-1434h-94l-1442 1372v-1372h-65v1434h94z" />
    <glyph glyph-name="Ograve" unicode="&#xd2;" horiz-adv-x="2088" 
d="M686 1874l715 -164v-61l-715 163v62zM1044 -41q-401 0 -630.5 206.5t-229.5 553.5q0 346 229.5 551t630.5 205q399 0 630 -206t231 -550q0 -346 -231 -553t-630 -207zM1044 20q187 0 338 52t250.5 144.5t153 221t53.5 281.5q0 152 -53 279.5t-152.5 219.5t-250.5 143.5
t-339 51.5t-338.5 -51t-250 -143t-152.5 -219.5t-53 -280.5q0 -154 53 -282.5t153 -221t250.5 -144t337.5 -51.5z" />
    <glyph glyph-name="Oacute" unicode="&#xd3;" horiz-adv-x="2088" 
d="M686 1649v61l715 164v-62zM1044 -41q-401 0 -630.5 206.5t-229.5 553.5q0 346 229.5 551t630.5 205q399 0 630 -206t231 -550q0 -346 -231 -553t-630 -207zM1044 20q187 0 338 52t250.5 144.5t153 221t53.5 281.5q0 152 -53 279.5t-152.5 219.5t-250.5 143.5t-339 51.5
t-338.5 -51t-250 -143t-152.5 -219.5t-53 -280.5q0 -154 53 -282.5t153 -221t250.5 -144t337.5 -51.5z" />
    <glyph glyph-name="Ocircumflex" unicode="&#xd4;" horiz-adv-x="2088" 
d="M1386 1690v-62l-342 164l-342 -164v62l342 163zM1044 1475q399 0 630 -206t231 -550q0 -346 -231 -553t-630 -207q-401 0 -630.5 206.5t-229.5 553.5q0 346 229.5 551t630.5 205zM1044 20q187 0 338 52t250.5 144.5t153 221t53.5 281.5q0 152 -53 279.5t-152.5 219.5
t-250.5 143.5t-339 51.5t-338.5 -51t-250 -143t-152.5 -219.5t-53 -280.5q0 -154 53 -282.5t153 -221t250.5 -144t337.5 -51.5z" />
    <glyph glyph-name="Otilde" unicode="&#xd5;" horiz-adv-x="2088" 
d="M606 1618h-65q0 29 5.5 59.5t22.5 69t44 68t75.5 49.5t110.5 20q69 0 125 -23t94 -56t75 -66.5t86.5 -56.5t110.5 -23q99 0 146 54t47 151h65q0 -29 -5.5 -60t-22.5 -69.5t-44 -67.5t-75.5 -49.5t-110.5 -20.5q-69 0 -125 23.5t-94 56.5t-75 66t-86.5 56.5t-110.5 23.5
q-99 0 -146 -54t-47 -151zM1044 -41q-401 0 -630.5 206.5t-229.5 553.5q0 346 229.5 551t630.5 205q399 0 630 -206t231 -550q0 -346 -231 -553t-630 -207zM1044 20q187 0 338 52t250.5 144.5t153 221t53.5 281.5q0 152 -53 279.5t-152.5 219.5t-250.5 143.5t-339 51.5
t-338.5 -51t-250 -143t-152.5 -219.5t-53 -280.5q0 -154 53 -282.5t153 -221t250.5 -144t337.5 -51.5z" />
    <glyph glyph-name="Odieresis" unicode="&#xd6;" horiz-adv-x="2088" 
d="M774 1671v98h111v-98h-111zM1204 1671v98h111v-98h-111zM1044 -41q-401 0 -630.5 206.5t-229.5 553.5q0 346 229.5 551t630.5 205q399 0 630 -206t231 -550q0 -346 -231 -553t-630 -207zM1044 20q187 0 338 52t250.5 144.5t153 221t53.5 281.5q0 152 -53 279.5
t-152.5 219.5t-250.5 143.5t-339 51.5t-338.5 -51t-250 -143t-152.5 -219.5t-53 -280.5q0 -154 53 -282.5t153 -221t250.5 -144t337.5 -51.5z" />
    <glyph glyph-name="multiply" unicode="&#xd7;" horiz-adv-x="1718" 
d="M1483 1112l30 -53l-591 -342l591 -342l-30 -53l-623 360l-624 -360l-31 53l592 342l-592 342l31 53l624 -360z" />
    <glyph glyph-name="Oslash" unicode="&#xd8;" horiz-adv-x="2088" 
d="M1343 1608l-47 -158q288 -60 448.5 -253t160.5 -478q0 -346 -231 -553t-630 -207q-105 0 -190 14l-43 -147h-66l48 158q-288 60 -448.5 254.5t-160.5 480.5q0 346 229.5 551t630.5 205q100 0 191 -15l43 148h65zM250 719q0 -260 146.5 -440t414.5 -236l406 1358
q-83 12 -173 12q-188 0 -338.5 -51t-250 -143t-152.5 -219.5t-53 -280.5zM1044 20q187 0 338 52t250.5 144.5t153 221t53.5 281.5q0 257 -146.5 436.5t-414.5 235.5l-406 -1358q89 -13 172 -13z" />
    <glyph glyph-name="Ugrave" unicode="&#xd9;" horiz-adv-x="2007" 
d="M645 1874l715 -164v-61l-715 163v62zM1802 1434v-736q0 -739 -798 -739q-799 0 -799 739v736h65v-736q0 -78 9 -146.5t32 -138.5t59 -127t93.5 -107.5t132.5 -85t178.5 -54t229.5 -19.5t229.5 20t178.5 54t132.5 84.5t93.5 107.5t58.5 127t31.5 138.5t9 146.5v736h65z
" />
    <glyph glyph-name="Uacute" unicode="&#xda;" horiz-adv-x="2007" 
d="M645 1649v61l715 164v-62zM1802 1434v-736q0 -739 -798 -739q-799 0 -799 739v736h65v-736q0 -78 9 -146.5t32 -138.5t59 -127t93.5 -107.5t132.5 -85t178.5 -54t229.5 -19.5t229.5 20t178.5 54t132.5 84.5t93.5 107.5t58.5 127t31.5 138.5t9 146.5v736h65z" />
    <glyph glyph-name="Ucircumflex" unicode="&#xdb;" horiz-adv-x="2007" 
d="M1346 1690v-62l-342 164l-342 -164v62l342 163zM1737 698v736h65v-736q0 -739 -798 -739q-799 0 -799 739v736h65v-736q0 -78 9 -146.5t32 -138.5t59 -127t93.5 -107.5t132.5 -85t178.5 -54t229.5 -19.5t229.5 20t178.5 54t132.5 84.5t93.5 107.5t58.5 127t31.5 138.5
t9 146.5z" />
    <glyph glyph-name="Udieresis" unicode="&#xdc;" horiz-adv-x="2007" 
d="M733 1671v98h111v-98h-111zM1163 1671v98h111v-98h-111zM1802 1434v-736q0 -739 -798 -739q-799 0 -799 739v736h65v-736q0 -78 9 -146.5t32 -138.5t59 -127t93.5 -107.5t132.5 -85t178.5 -54t229.5 -19.5t229.5 20t178.5 54t132.5 84.5t93.5 107.5t58.5 127t31.5 138.5
t9 146.5v736h65z" />
    <glyph glyph-name="Yacute" unicode="&#xdd;" horiz-adv-x="2123" 
d="M702 1710l715 164v-62l-715 -163v61zM1061 549l792 885h86l-845 -947v-487h-66v487l-844 947h86z" />
    <glyph glyph-name="Thorn" unicode="&#xde;" horiz-adv-x="1880" 
d="M270 1208h877q262 0 405.5 -125t143.5 -362t-143.5 -362.5t-405.5 -125.5h-877v-233h-65v1434h65v-226zM270 295h877q231 0 357 103t126 323t-126 323t-357 103h-877v-852z" />
    <glyph glyph-name="germandbls" unicode="&#xdf;" horiz-adv-x="1794" 
d="M1108 739q131 -8 219.5 -27.5t155 -59t97 -104t30.5 -159.5q0 -57 -10.5 -103t-29.5 -83.5t-54 -65.5t-77 -50t-104.5 -37t-130.5 -25t-163 -15.5t-192.5 -7.5t-227.5 -2v61q194 0 307 3t232 13.5t179.5 31.5t113.5 57.5t72 90.5t19 132q0 44 -6.5 78.5t-25.5 63t-38 50
t-60 38t-75.5 27.5t-100 18.5t-117 12t-144 6.5t-164 2.5t-192.5 0.5v62q370 0 544 79t174 271q0 168 -124.5 241.5t-368.5 73.5q-127 0 -215.5 -14.5t-160.5 -51t-114 -100.5t-64 -161.5t-22 -235.5v-850h-65v850q0 179 32.5 296t109.5 192t197 106t302 31q559 0 559 -377
q0 -269 -297 -359z" />
    <glyph glyph-name="agrave" unicode="&#xe0;" horiz-adv-x="1822" 
d="M604 1628l715 -164v-61l-715 164v61zM1016 1229q314 0 466.5 -117t155.5 -364v-748h-65v166q-114 -48 -189 -77t-183.5 -63t-215.5 -50.5t-217 -16.5q-158 0 -271.5 28t-181.5 82.5t-99.5 128.5t-31.5 173q0 420 678 420q298 0 711 -123v80q0 83 -22 149.5t-55 109.5
t-84 74t-97 47.5t-107 25.5t-101 11t-91 2q-150 0 -314.5 -25.5t-402.5 -97.5l-23 60q384 125 740 125zM768 20q192 0 389.5 56.5t415.5 150.5v373q-116 36 -201 59t-231.5 46.5t-278.5 23.5q-92 0 -172.5 -8.5t-164 -32.5t-142 -62.5t-96 -103.5t-37.5 -151
q0 -182 127 -266.5t391 -84.5z" />
    <glyph glyph-name="aacute" unicode="&#xe1;" horiz-adv-x="1822" 
d="M604 1464l715 164v-61l-715 -164v61zM1016 1229q314 0 466.5 -117t155.5 -364v-748h-65v166q-114 -48 -189 -77t-183.5 -63t-215.5 -50.5t-217 -16.5q-158 0 -271.5 28t-181.5 82.5t-99.5 128.5t-31.5 173q0 420 678 420q298 0 711 -123v80q0 83 -22 149.5t-55 109.5
t-84 74t-97 47.5t-107 25.5t-101 11t-91 2q-150 0 -314.5 -25.5t-402.5 -97.5l-23 60q384 125 740 125zM768 20q192 0 389.5 56.5t415.5 150.5v373q-116 36 -201 59t-231.5 46.5t-278.5 23.5q-92 0 -172.5 -8.5t-164 -32.5t-142 -62.5t-96 -103.5t-37.5 -151
q0 -182 127 -266.5t391 -84.5z" />
    <glyph glyph-name="acircumflex" unicode="&#xe2;" horiz-adv-x="1822" 
d="M1305 1444v-62l-342 164l-342 -164v62l342 164zM1016 1229q314 0 466.5 -117t155.5 -364v-748h-65v166q-114 -48 -189 -77t-183.5 -63t-215.5 -50.5t-217 -16.5q-158 0 -271.5 28t-181.5 82.5t-99.5 128.5t-31.5 173q0 420 678 420q298 0 711 -123v80q0 83 -22 149.5
t-55 109.5t-84 74t-97 47.5t-107 25.5t-101 11t-91 2q-150 0 -314.5 -25.5t-402.5 -97.5l-23 60q384 125 740 125zM768 20q192 0 389.5 56.5t415.5 150.5v373q-116 36 -201 59t-231.5 46.5t-278.5 23.5q-92 0 -172.5 -8.5t-164 -32.5t-142 -62.5t-96 -103.5t-37.5 -151
q0 -182 127 -266.5t391 -84.5z" />
    <glyph glyph-name="atilde" unicode="&#xe3;" horiz-adv-x="1822" 
d="M717 1577q-99 0 -146 -54t-47 -151h-65q0 29 5.5 59.5t22.5 69t44 68t75.5 49.5t110.5 20q69 0 125 -23t94 -56t75 -66.5t86.5 -56.5t110.5 -23q99 0 146 54t47 151h65q0 -29 -5.5 -59.5t-22.5 -69t-44 -68t-75.5 -49.5t-110.5 -20q-69 0 -125 23t-94 56t-75 66.5
t-86.5 56.5t-110.5 23zM1016 1229q314 0 466.5 -117t155.5 -364v-748h-65v166q-114 -48 -189 -77t-183.5 -63t-215.5 -50.5t-217 -16.5q-158 0 -271.5 28t-181.5 82.5t-99.5 128.5t-31.5 173q0 420 678 420q298 0 711 -123v80q0 83 -22 149.5t-55 109.5t-84 74t-97 47.5
t-107 25.5t-101 11t-91 2q-150 0 -314.5 -25.5t-402.5 -97.5l-23 60q384 125 740 125zM768 20q192 0 389.5 56.5t415.5 150.5v373q-116 36 -201 59t-231.5 46.5t-278.5 23.5q-92 0 -172.5 -8.5t-164 -32.5t-142 -62.5t-96 -103.5t-37.5 -151q0 -182 127 -266.5t391 -84.5z
" />
    <glyph glyph-name="adieresis" unicode="&#xe4;" horiz-adv-x="1822" 
d="M692 1524h111v-99h-111v99zM1122 1524h111v-99h-111v99zM1016 1229q314 0 466.5 -117t155.5 -364v-748h-65v166q-114 -48 -189 -77t-183.5 -63t-215.5 -50.5t-217 -16.5q-158 0 -271.5 28t-181.5 82.5t-99.5 128.5t-31.5 173q0 420 678 420q298 0 711 -123v80
q0 83 -22 149.5t-55 109.5t-84 74t-97 47.5t-107 25.5t-101 11t-91 2q-150 0 -314.5 -25.5t-402.5 -97.5l-23 60q384 125 740 125zM768 20q192 0 389.5 56.5t415.5 150.5v373q-116 36 -201 59t-231.5 46.5t-278.5 23.5q-92 0 -172.5 -8.5t-164 -32.5t-142 -62.5t-96 -103.5
t-37.5 -151q0 -182 127 -266.5t391 -84.5z" />
    <glyph glyph-name="aring" unicode="&#xe5;" horiz-adv-x="1822" 
d="M963 1331q-186 0 -275.5 56t-89.5 153t89.5 153t275.5 56t275 -56t89 -153t-89 -153t-275 -56zM963 1688q-162 0 -233 -37.5t-71 -110.5t71 -110t233 -37t232.5 37t70.5 110t-70.5 110.5t-232.5 37.5zM1016 1229q314 0 466.5 -117t155.5 -364v-748h-65v166
q-114 -48 -189 -77t-183.5 -63t-215.5 -50.5t-217 -16.5q-158 0 -271.5 28t-181.5 82.5t-99.5 128.5t-31.5 173q0 420 678 420q298 0 711 -123v80q0 83 -22 149.5t-55 109.5t-84 74t-97 47.5t-107 25.5t-101 11t-91 2q-150 0 -314.5 -25.5t-402.5 -97.5l-23 60
q384 125 740 125zM768 20q192 0 389.5 56.5t415.5 150.5v373q-116 36 -201 59t-231.5 46.5t-278.5 23.5q-92 0 -172.5 -8.5t-164 -32.5t-142 -62.5t-96 -103.5t-37.5 -151q0 -182 127 -266.5t391 -84.5z" />
    <glyph glyph-name="ae" unicode="&#xe6;" horiz-adv-x="3176" 
d="M2273 20q264 0 417.5 86.5t205.5 241.5h72q-52 -181 -226 -285t-469 -104q-305 0 -492.5 118.5t-242.5 336.5q-43 -117 -127 -206.5t-193.5 -142.5t-233 -79.5t-257.5 -26.5q-254 0 -398.5 90.5t-144.5 269.5q0 68 18 120t48.5 89.5t84 63.5t111.5 41.5t145.5 24
t171.5 11.5t202 3h553q0 85 -18.5 155.5t-50 120.5t-76.5 89t-95.5 63t-110 39.5t-116 21.5t-117.5 6q-272 0 -641 -125l-17 62q347 125 658 125q284 0 436 -95.5t195 -279.5q71 181 249 278t449 97q355 0 542 -166t187 -459h-1409v-10q0 -119 35 -215.5t97 -162.5
t149.5 -110.5t189.5 -65t219 -20.5zM2263 1167q-107 0 -201.5 -18t-178 -57t-145.5 -96.5t-101.5 -141.5t-49.5 -188h1338q-9 127 -63.5 224.5t-144 157t-204 89.5t-250.5 30zM1518 498v106l-545 6q-141 0 -220 -2t-175 -10.5t-146 -26.5t-97.5 -48.5t-66 -78t-18.5 -114.5
q0 -310 477 -310q136 0 259 27.5t231 83t187 149.5t114 218z" />
    <glyph glyph-name="ccedilla" unicode="&#xe7;" horiz-adv-x="1806" 
d="M930 20q252 0 408 89t212 260h72q-56 -197 -232.5 -303.5t-459.5 -106.5h-15l-30 -133q83 37 178 37q83 0 137.5 -39.5t54.5 -126.5q0 -68 -42 -114t-113 -65.5t-164.5 -23t-196.5 13.5v62q89 -15 167 -17t143 10.5t103 46.5t38 87q0 49 -36 78t-91 32q-83 6 -176 -38
l-74 10l37 182q-320 20 -493 186.5t-173 446.5q0 298 194.5 466.5t551.5 168.5q283 0 459.5 -106.5t232.5 -303.5h-72q-56 171 -212 259.5t-408 88.5q-114 0 -214 -20.5t-186.5 -65t-148 -110.5t-96.5 -162t-35 -215t35 -215.5t96.5 -162.5t148 -110.5t186.5 -65t214 -20.5z
" />
    <glyph glyph-name="egrave" unicode="&#xe8;" horiz-adv-x="1843" 
d="M580 1628l714 -164v-61l-714 164v61zM940 20q264 0 417.5 86.5t205.5 241.5h71q-52 -181 -225.5 -285t-468.5 -104q-365 0 -560.5 168t-195.5 467q0 298 194.5 466.5t551.5 168.5q355 0 542 -166t187 -459h-1409v-10q0 -119 35 -215.5t97 -162.5t149.5 -110.5t189.5 -65
t219 -20.5zM930 1167q-107 0 -201.5 -18t-178 -57t-145.5 -96.5t-101.5 -141.5t-49.5 -188h1337q-12 169 -103.5 283.5t-233 166t-324.5 51.5z" />
    <glyph glyph-name="eacute" unicode="&#xe9;" horiz-adv-x="1843" 
d="M580 1464l714 164v-61l-714 -164v61zM940 20q264 0 417.5 86.5t205.5 241.5h71q-52 -181 -225.5 -285t-468.5 -104q-365 0 -560.5 168t-195.5 467q0 298 194.5 466.5t551.5 168.5q355 0 542 -166t187 -459h-1409v-10q0 -119 35 -215.5t97 -162.5t149.5 -110.5t189.5 -65
t219 -20.5zM930 1167q-107 0 -201.5 -18t-178 -57t-145.5 -96.5t-101.5 -141.5t-49.5 -188h1337q-12 169 -103.5 283.5t-233 166t-324.5 51.5z" />
    <glyph glyph-name="ecircumflex" unicode="&#xea;" horiz-adv-x="1843" 
d="M1280 1444v-62l-342 164l-342 -164v62l342 164zM940 20q264 0 417.5 86.5t205.5 241.5h71q-52 -181 -225.5 -285t-468.5 -104q-365 0 -560.5 168t-195.5 467q0 298 194.5 466.5t551.5 168.5q355 0 542 -166t187 -459h-1409v-10q0 -119 35 -215.5t97 -162.5t149.5 -110.5
t189.5 -65t219 -20.5zM930 1167q-107 0 -201.5 -18t-178 -57t-145.5 -96.5t-101.5 -141.5t-49.5 -188h1337q-12 169 -103.5 283.5t-233 166t-324.5 51.5z" />
    <glyph glyph-name="edieresis" unicode="&#xeb;" horiz-adv-x="1843" 
d="M668 1524h110v-99h-110v99zM1098 1524h110v-99h-110v99zM940 20q264 0 417.5 86.5t205.5 241.5h71q-52 -181 -225.5 -285t-468.5 -104q-365 0 -560.5 168t-195.5 467q0 298 194.5 466.5t551.5 168.5q355 0 542 -166t187 -459h-1409v-10q0 -119 35 -215.5t97 -162.5
t149.5 -110.5t189.5 -65t219 -20.5zM930 1167q-107 0 -201.5 -18t-178 -57t-145.5 -96.5t-101.5 -141.5t-49.5 -188h1337q-12 169 -103.5 283.5t-233 166t-324.5 51.5z" />
    <glyph glyph-name="igrave" unicode="&#xec;" 
d="M-121 1628l715 -164v-61l-715 164v61zM205 0v1188h65v-1188h-65z" />
    <glyph glyph-name="iacute" unicode="&#xed;" 
d="M-121 1403v61l715 164v-61zM205 0v1188h65v-1188h-65z" />
    <glyph glyph-name="icircumflex" unicode="&#xee;" 
d="M-104 1444l342 164l342 -164v-62l-342 164l-342 -164v62zM270 0h-65v1188h65v-1188z" />
    <glyph glyph-name="idieresis" unicode="&#xef;" 
d="M-33 1425v99h111v-99h-111zM397 1425v99h111v-99h-111zM205 0v1188h65v-1188h-65z" />
    <glyph glyph-name="ntilde" unicode="&#xf1;" horiz-adv-x="1826" 
d="M748 1577q-99 0 -146 -54t-47 -151h-66q0 29 5.5 59.5t23 69t44.5 68t75.5 49.5t110.5 20q69 0 125 -23t94 -56t75 -66.5t86.5 -56.5t110.5 -23q99 0 146 54t47 151h65q0 -29 -5.5 -59.5t-22.5 -69t-44 -68t-75.5 -49.5t-110.5 -20q-69 0 -125 23t-94 56t-75 66.5
t-86.5 56.5t-110.5 23zM981 1229q127 0 224.5 -20t177 -67t130.5 -123t79 -188.5t30 -263.5v-567h-66v567q0 135 -23.5 236t-68.5 170.5t-115.5 112.5t-160 62t-207.5 19q-196 0 -357.5 -77.5t-257.5 -222t-96 -328.5v-539h-65v1188h65v-367q89 192 278.5 300t432.5 108z
" />
    <glyph glyph-name="ograve" unicode="&#xf2;" horiz-adv-x="1859" 
d="M571 1628l715 -164v-61l-715 164v61zM930 -41q-346 0 -546 170t-200 465t200 465t546 170t545.5 -170t199.5 -465t-199.5 -465t-545.5 -170zM930 20q145 0 268 36t215.5 106t144.5 180.5t52 251.5t-52 251.5t-144.5 180t-215 105.5t-268.5 36t-268.5 -36t-215 -105.5
t-144.5 -180t-52 -251.5t52 -251.5t144.5 -180.5t215.5 -106t268 -36z" />
    <glyph glyph-name="oacute" unicode="&#xf3;" horiz-adv-x="1859" 
d="M571 1403v61l715 164v-61zM930 -41q-346 0 -546 170t-200 465t200 465t546 170t545.5 -170t199.5 -465t-199.5 -465t-545.5 -170zM930 20q145 0 268 36t215.5 106t144.5 180.5t52 251.5t-52 251.5t-144.5 180t-215 105.5t-268.5 36t-268.5 -36t-215 -105.5t-144.5 -180
t-52 -251.5t52 -251.5t144.5 -180.5t215.5 -106t268 -36z" />
    <glyph glyph-name="ocircumflex" unicode="&#xf4;" horiz-adv-x="1859" 
d="M1272 1444v-62l-342 164l-342 -164v62l342 164zM930 1229q346 0 545.5 -170t199.5 -465t-199.5 -465t-545.5 -170t-546 170t-200 465t200 465t546 170zM930 20q145 0 268 36t215.5 106t144.5 180.5t52 251.5t-52 251.5t-144.5 180t-215 105.5t-268.5 36t-268.5 -36
t-215 -105.5t-144.5 -180t-52 -251.5t52 -251.5t144.5 -180.5t215.5 -106t268 -36z" />
    <glyph glyph-name="otilde" unicode="&#xf5;" horiz-adv-x="1859" 
d="M492 1372h-66q0 29 5.5 59.5t22.5 69t44 68t75.5 49.5t110.5 20q69 0 125 -23t94.5 -56t75 -66.5t86.5 -56.5t111 -23q192 0 192 205h66q0 -29 -5.5 -59.5t-22.5 -69t-44 -68t-75.5 -49.5t-110.5 -20q-69 0 -125 23t-94.5 56t-75 66.5t-86.5 56.5t-111 23
q-192 0 -192 -205zM930 -41q-346 0 -546 170t-200 465t200 465t546 170t545.5 -170t199.5 -465t-199.5 -465t-545.5 -170zM930 20q145 0 268 36t215.5 106t144.5 180.5t52 251.5t-52 251.5t-144.5 180t-215 105.5t-268.5 36t-268.5 -36t-215 -105.5t-144.5 -180t-52 -251.5
t52 -251.5t144.5 -180.5t215.5 -106t268 -36z" />
    <glyph glyph-name="odieresis" unicode="&#xf6;" horiz-adv-x="1859" 
d="M659 1425v99h111v-99h-111zM1090 1425v99h110v-99h-110zM930 -41q-346 0 -546 170t-200 465t200 465t546 170t545.5 -170t199.5 -465t-199.5 -465t-545.5 -170zM930 20q145 0 268 36t215.5 106t144.5 180.5t52 251.5t-52 251.5t-144.5 180t-215 105.5t-268.5 36
t-268.5 -36t-215 -105.5t-144.5 -180t-52 -251.5t52 -251.5t144.5 -180.5t215.5 -106t268 -36z" />
    <glyph glyph-name="divide" unicode="&#xf7;" horiz-adv-x="1884" 
d="M881 1024v98h110v-98h-110zM205 666v61h1474v-61h-1474zM881 270v99h110v-99h-110z" />
    <glyph glyph-name="oslash" unicode="&#xf8;" horiz-adv-x="1859" 
d="M1229 1485l-82 -277q251 -50 389.5 -209.5t138.5 -404.5q0 -295 -199.5 -465t-545.5 -170q-72 0 -154 10l-80 -266h-65l82 277q-251 50 -390 210t-139 404q0 295 200 465t546 170q71 0 153 -10l80 266h66zM250 594q0 -228 130 -369t351 -186l334 1120q-57 8 -135 8
q-146 0 -268.5 -36t-215 -105.5t-144.5 -180t-52 -251.5zM930 20q145 0 268 36t215.5 106t144.5 180.5t52 251.5q0 228 -130 369t-352 186l-333 -1120q65 -9 135 -9z" />
    <glyph glyph-name="ugrave" unicode="&#xf9;" horiz-adv-x="1826" 
d="M602 1628l715 -164v-61l-715 164v61zM1556 649v539h66v-1188h-66v367q-89 -192 -278 -300t-432 -108q-127 0 -224.5 20t-177 67t-130.5 123t-79 188.5t-30 263.5v567h65v-567q0 -169 35.5 -285t109.5 -185.5t178.5 -100t252.5 -30.5q146 0 276.5 46t226 127t151.5 199.5
t56 256.5z" />
    <glyph glyph-name="uacute" unicode="&#xfa;" horiz-adv-x="1826" 
d="M602 1464l715 164v-61l-715 -164v61zM1556 649v539h66v-1188h-66v367q-89 -192 -278 -300t-432 -108q-127 0 -224.5 20t-177 67t-130.5 123t-79 188.5t-30 263.5v567h65v-567q0 -169 35.5 -285t109.5 -185.5t178.5 -100t252.5 -30.5q146 0 276.5 46t226 127t151.5 199.5
t56 256.5z" />
    <glyph glyph-name="ucircumflex" unicode="&#xfb;" horiz-adv-x="1826" 
d="M1303 1444v-62l-342 164l-343 -164v62l343 164zM1556 649v539h66v-1188h-66v367q-89 -192 -278 -300t-432 -108q-127 0 -224.5 20t-177 67t-130.5 123t-79 188.5t-30 263.5v567h65v-567q0 -169 35.5 -285t109.5 -185.5t178.5 -100t252.5 -30.5q146 0 276.5 46t226 127
t151.5 199.5t56 256.5z" />
    <glyph glyph-name="udieresis" unicode="&#xfc;" horiz-adv-x="1826" 
d="M690 1524h111v-99h-111v99zM1120 1524h111v-99h-111v99zM1556 649v539h66v-1188h-66v367q-89 -192 -278 -300t-432 -108q-127 0 -224.5 20t-177 67t-130.5 123t-79 188.5t-30 263.5v567h65v-567q0 -169 35.5 -285t109.5 -185.5t178.5 -100t252.5 -30.5q146 0 276.5 46
t226 127t151.5 199.5t56 256.5z" />
    <glyph glyph-name="yacute" unicode="&#xfd;" horiz-adv-x="1830" 
d="M578 1464l714 164v-61l-714 -164v61zM922 29l651 1159h74l-717 -1272q-16 -28 -43 -77.5t-40.5 -73.5t-37.5 -64t-38.5 -60t-38 -49.5t-42 -44t-44.5 -33t-51.5 -26.5t-57 -14t-66.5 -6q-87 0 -262 30v62l66 -11t57.5 -9t43 -5.5t48.5 -4.5t47 -1q32 0 59.5 4.5t53 17.5
t44 24t41 37t36.5 43t36.5 55t35 59.5t39.5 71t42 75.5l47 84h-41l-680 1188h74z" />
    <glyph glyph-name="thorn" unicode="&#xfe;" horiz-adv-x="1839" 
d="M930 1229q166 0 303 -50t229 -138t142.5 -208t50.5 -260q0 -281 -194.5 -447.5t-530.5 -166.5q-241 0 -410.5 82.5t-249.5 237.5v-771h-65v2130h65v-761q81 167 251.5 259.5t408.5 92.5zM930 20q141 0 260.5 35.5t208.5 103.5t139.5 174t50.5 240q0 178 -87 314.5
t-236 208t-336 71.5q-189 0 -336.5 -67t-235.5 -203.5t-88 -323.5q0 -113 33 -205t92 -156t142 -107.5t181 -64t212 -20.5z" />
    <glyph glyph-name="ydieresis" unicode="&#xff;" horiz-adv-x="1830" 
d="M666 1524h110v-99h-110v99zM1096 1524h110v-99h-110v99zM922 29l651 1159h74l-717 -1272q-16 -28 -43 -77.5t-40.5 -73.5t-37.5 -64t-38.5 -60t-38 -49.5t-42 -44t-44.5 -33t-51.5 -26.5t-57 -14t-66.5 -6q-87 0 -262 30v62l66 -11t57.5 -9t43 -5.5t48.5 -4.5t47 -1
q32 0 59.5 4.5t53 17.5t44 24t41 37t36.5 43t36.5 55t35 59.5t39.5 71t42 75.5l47 84h-41l-680 1188h74z" />
    <glyph glyph-name="Amacron" unicode="&#x100;" horiz-adv-x="2156" 
d="M678 1772h797v-62h-797v62zM1972 0h-74l-231 391h-1178l-231 -391h-74l852 1434h82zM1077 1382l-551 -929h1104z" />
    <glyph glyph-name="amacron" unicode="&#x101;" horiz-adv-x="1822" 
d="M563 1526h797v-62h-797v62zM1016 1229q314 0 466.5 -117t155.5 -364v-748h-65v166q-114 -48 -189 -77t-183.5 -63t-215.5 -50.5t-217 -16.5q-158 0 -271.5 28t-181.5 82.5t-99.5 128.5t-31.5 173q0 420 678 420q298 0 711 -123v80q0 83 -22 149.5t-55 109.5t-84 74
t-97 47.5t-107 25.5t-101 11t-91 2q-150 0 -314.5 -25.5t-402.5 -97.5l-23 60q384 125 740 125zM768 20q192 0 389.5 56.5t415.5 150.5v373q-116 36 -201 59t-231.5 46.5t-278.5 23.5q-92 0 -172.5 -8.5t-164 -32.5t-142 -62.5t-96 -103.5t-37.5 -151q0 -182 127 -266.5
t391 -84.5z" />
    <glyph glyph-name="Abreve" unicode="&#x102;" horiz-adv-x="2156" 
d="M1077 1638q-197 0 -296 72t-99 236h66q0 -75 23.5 -124.5t70 -75.5t102 -36t133.5 -10t134 10t102.5 36t70 75.5t23.5 124.5h66q0 -164 -99.5 -236t-296.5 -72zM1972 0h-74l-231 391h-1178l-231 -391h-74l852 1434h82zM1077 1382l-551 -929h1104z" />
    <glyph glyph-name="abreve" unicode="&#x103;" horiz-adv-x="1822" 
d="M963 1393q-198 0 -297 71.5t-99 235.5h66q0 -75 23.5 -124.5t70 -75.5t102.5 -36t134 -10t133.5 10t102 36t70 75.5t23.5 124.5h66q0 -164 -98.5 -235.5t-296.5 -71.5zM1016 1229q314 0 466.5 -117t155.5 -364v-748h-65v166q-114 -48 -189 -77t-183.5 -63t-215.5 -50.5
t-217 -16.5q-158 0 -271.5 28t-181.5 82.5t-99.5 128.5t-31.5 173q0 420 678 420q298 0 711 -123v80q0 83 -22 149.5t-55 109.5t-84 74t-97 47.5t-107 25.5t-101 11t-91 2q-150 0 -314.5 -25.5t-402.5 -97.5l-23 60q384 125 740 125zM768 20q192 0 389.5 56.5t415.5 150.5
v373q-116 36 -201 59t-231.5 46.5t-278.5 23.5q-92 0 -172.5 -8.5t-164 -32.5t-142 -62.5t-96 -103.5t-37.5 -151q0 -182 127 -266.5t391 -84.5z" />
    <glyph glyph-name="Aogonek" unicode="&#x104;" horiz-adv-x="2156" 
d="M1712 -227q0 -97 66 -140t194 -43v-61q-67 0 -122 10.5t-102.5 34t-74 67.5t-26.5 105q0 169 251 254l-231 391h-1178l-231 -391h-74l852 1434h82l854 -1434q-34 -11 -51 -17t-49.5 -19t-50 -24t-42 -29t-36.5 -37t-21.5 -45t-9.5 -56zM1077 1382l-551 -929h1104z" />
    <glyph glyph-name="aogonek" unicode="&#x105;" horiz-adv-x="1839" 
d="M1016 1229q314 0 466.5 -117t155.5 -364v-748h-4q-34 -8 -72 -23.5t-83.5 -43.5t-75 -74t-29.5 -101q0 -75 69.5 -121.5t190.5 -46.5v-61q-88 0 -159.5 22t-118.5 72.5t-47 122.5q0 158 260 254h4v166q-114 -48 -189 -77t-183.5 -63t-215.5 -50.5t-217 -16.5
q-158 0 -271.5 28t-181.5 82.5t-99.5 128.5t-31.5 173q0 420 678 420q298 0 711 -123v80q0 83 -22 149.5t-55 109.5t-84 74t-97 47.5t-107 25.5t-101 11t-91 2q-150 0 -314.5 -25.5t-402.5 -97.5l-23 60q384 125 740 125zM768 20q192 0 389.5 56.5t415.5 150.5v373
q-116 36 -201 59t-231.5 46.5t-278.5 23.5q-92 0 -172.5 -8.5t-164 -32.5t-142 -62.5t-96 -103.5t-37.5 -151q0 -182 127 -266.5t391 -84.5z" />
    <glyph glyph-name="Cacute" unicode="&#x106;" horiz-adv-x="1998" 
d="M657 1649v61l715 164v-62zM184 719q0 343 231 549.5t619 206.5q163 0 303 -44t238 -119.5t160 -175t80 -212.5h-66q-13 69 -46 135.5t-93 131t-139 113.5t-192 79t-245 30q-188 0 -338 -52.5t-247 -146t-148 -219.5t-51 -276q0 -151 51 -278t148 -221t247 -147t338 -53
q132 0 245 30.5t192 79.5t139 114.5t93 133t46 136.5h66q-17 -114 -79 -214t-160.5 -176t-238.5 -120.5t-303 -44.5q-388 0 -619 207.5t-231 552.5z" />
    <glyph glyph-name="cacute" unicode="&#x107;" horiz-adv-x="1806" 
d="M573 1403v61l715 164v-61zM184 594q0 298 194.5 466.5t551.5 168.5q283 0 459.5 -106.5t232.5 -303.5h-72q-56 171 -212 259.5t-408 88.5q-114 0 -214 -20.5t-186.5 -65t-148 -110.5t-96.5 -162t-35 -215t35 -215.5t96.5 -162.5t148 -110.5t186.5 -65t214 -20.5
q252 0 408 89t212 260h72q-56 -197 -232.5 -303.5t-459.5 -106.5q-357 0 -551.5 168.5t-194.5 466.5z" />
    <glyph glyph-name="Cdotaccent" unicode="&#x10a;" horiz-adv-x="1998" 
d="M961 1671v98h110v-98h-110zM184 719q0 343 231 549.5t619 206.5q163 0 303 -44t238 -119.5t160 -175t80 -212.5h-66q-13 69 -46 135.5t-93 131t-139 113.5t-192 79t-245 30q-188 0 -338 -52.5t-247 -146t-148 -219.5t-51 -276q0 -151 51 -278t148 -221t247 -147t338 -53
q132 0 245 30.5t192 79.5t139 114.5t93 133t46 136.5h66q-17 -114 -79 -214t-160.5 -176t-238.5 -120.5t-303 -44.5q-388 0 -619 207.5t-231 552.5z" />
    <glyph glyph-name="cdotaccent" unicode="&#x10b;" horiz-adv-x="1806" 
d="M877 1425v99h110v-99h-110zM184 594q0 298 194.5 466.5t551.5 168.5q283 0 459.5 -106.5t232.5 -303.5h-72q-56 171 -212 259.5t-408 88.5q-114 0 -214 -20.5t-186.5 -65t-148 -110.5t-96.5 -162t-35 -215t35 -215.5t96.5 -162.5t148 -110.5t186.5 -65t214 -20.5
q252 0 408 89t212 260h72q-56 -197 -232.5 -303.5t-459.5 -106.5q-357 0 -551.5 168.5t-194.5 466.5z" />
    <glyph glyph-name="Ccaron" unicode="&#x10c;" horiz-adv-x="1998" 
d="M1358 1858v-62l-342 -164l-342 164v62l342 -164zM1034 20q132 0 245 30.5t192 79.5t139 114.5t93 133t46 136.5h66q-17 -114 -79 -214t-160.5 -176t-238.5 -120.5t-303 -44.5q-388 0 -619 207.5t-231 552.5q0 343 231 549.5t619 206.5q163 0 303 -44t238 -119.5t160 -175
t80 -212.5h-66q-13 69 -46 135.5t-93 131t-139 113.5t-192 79t-245 30q-188 0 -338 -52.5t-247 -146t-148 -219.5t-51 -276q0 -151 51 -278t148 -221t247 -147t338 -53z" />
    <glyph glyph-name="ccaron" unicode="&#x10d;" horiz-adv-x="1806" 
d="M1274 1612v-62l-342 -164l-342 164v62l342 -164zM930 20q252 0 408 89t212 260h72q-56 -197 -232.5 -303.5t-459.5 -106.5q-357 0 -551.5 168.5t-194.5 466.5t194.5 466.5t551.5 168.5q283 0 459.5 -106.5t232.5 -303.5h-72q-56 171 -212 259.5t-408 88.5
q-114 0 -214 -20.5t-186.5 -65t-148 -110.5t-96.5 -162t-35 -215t35 -215.5t96.5 -162.5t148 -110.5t186.5 -65t214 -20.5z" />
    <glyph glyph-name="Dcaron" unicode="&#x10e;" horiz-adv-x="1961" 
d="M1190 1858v-62l-342 -164l-342 164v62l342 -164zM1044 1434q148 0 278.5 -44.5t233 -130.5t162.5 -225.5t60 -316.5t-60 -316.5t-162.5 -225.5t-233 -130.5t-278.5 -44.5h-839v1434h839zM270 61h754q316 0 502 175.5t186 480.5t-186 480t-502 175h-754v-1311z" />
    <glyph glyph-name="dcaron" unicode="&#x10f;" horiz-adv-x="2109" 
d="M1569 850v788h65v-1638h-65v338q-71 -181 -244 -280t-428 -99q-336 0 -524.5 169.5t-188.5 465.5t188.5 465.5t524.5 169.5q255 0 428 -99t244 -280zM1794 1540v98h111v-98l-70 -287h-41l49 287h-49zM907 20q142 0 261.5 36t209.5 106t140.5 180.5t50.5 251.5
t-50.5 251.5t-141 180t-209.5 105.5t-261 36t-260.5 -36t-207.5 -105.5t-139 -180t-50 -251.5t50 -251.5t139 -180.5t207.5 -106t260.5 -36z" />
    <glyph glyph-name="Dcroat" unicode="&#x110;" horiz-adv-x="2111" 
d="M1194 1434q118 0 225 -27.5t200 -85t161.5 -141t107.5 -202.5t39 -261t-39 -261t-107.5 -202.5t-161.5 -141t-200 -85t-225 -27.5h-840v686h-190v62h190v686h840zM420 61h754q316 0 502 175.5t186 480.5t-186 480t-502 175h-754v-624h563v-62h-563v-625z" />
    <glyph glyph-name="dcroat" unicode="&#x111;" horiz-adv-x="1921" 
d="M1634 1434h123v-62h-123v-1372h-65v338q-71 -181 -244 -280t-428 -99q-336 0 -524.5 169.5t-188.5 465.5t188.5 465.5t524.5 169.5q255 0 428 -99t244 -280v522h-563v62h563v204h65v-204zM907 20q142 0 261.5 36t209.5 106t140.5 180.5t50.5 251.5t-50.5 251.5t-141 180
t-209.5 105.5t-261 36t-260.5 -36t-207.5 -105.5t-139 -180t-50 -251.5t50 -251.5t139 -180.5t207.5 -106t260.5 -36z" />
    <glyph glyph-name="Emacron" unicode="&#x112;" horiz-adv-x="1740" 
d="M481 1772h797v-62h-797v62zM1556 1434v-62h-1286v-624h1246v-62h-1246v-625h1286v-61h-1351v1434h1351z" />
    <glyph glyph-name="emacron" unicode="&#x113;" horiz-adv-x="1843" 
d="M539 1526h796v-62h-796v62zM940 20q264 0 417.5 86.5t205.5 241.5h71q-52 -181 -225.5 -285t-468.5 -104q-365 0 -560.5 168t-195.5 467q0 298 194.5 466.5t551.5 168.5q355 0 542 -166t187 -459h-1409v-10q0 -119 35 -215.5t97 -162.5t149.5 -110.5t189.5 -65t219 -20.5
zM930 1167q-107 0 -201.5 -18t-178 -57t-145.5 -96.5t-101.5 -141.5t-49.5 -188h1337q-12 169 -103.5 283.5t-233 166t-324.5 51.5z" />
    <glyph glyph-name="Edotaccent" unicode="&#x116;" horiz-adv-x="1740" 
d="M825 1769h111v-98h-111v98zM1556 1434v-62h-1286v-624h1246v-62h-1246v-625h1286v-61h-1351v1434h1351z" />
    <glyph glyph-name="edotaccent" unicode="&#x117;" horiz-adv-x="1843" 
d="M883 1524h110v-99h-110v99zM940 20q264 0 417.5 86.5t205.5 241.5h71q-52 -181 -225.5 -285t-468.5 -104q-365 0 -560.5 168t-195.5 467q0 298 194.5 466.5t551.5 168.5q355 0 542 -166t187 -459h-1409v-10q0 -119 35 -215.5t97 -162.5t149.5 -110.5t189.5 -65t219 -20.5
zM930 1167q-107 0 -201.5 -18t-178 -57t-145.5 -96.5t-101.5 -141.5t-49.5 -188h1337q-12 169 -103.5 283.5t-233 166t-324.5 51.5z" />
    <glyph glyph-name="Eogonek" unicode="&#x118;" horiz-adv-x="1740" 
d="M1556 1434v-62h-1286v-624h1246v-62h-1246v-625h1286v-61q-113 -15 -186.5 -70t-73.5 -151q0 -89 68.5 -139t191.5 -50v-61q-89 0 -159.5 23t-118 78.5t-47.5 136.5t62.5 143.5t176.5 89.5h-1265v1434h1351z" />
    <glyph glyph-name="eogonek" unicode="&#x119;" horiz-adv-x="1843" 
d="M940 20q264 0 417.5 86.5t205.5 241.5h71q-36 -129 -136.5 -221t-264.5 -135q-289 -81 -289 -234q0 -40 13 -68.5t46 -52t96 -35.5t156 -12v-61q-195 0 -285.5 52t-90.5 165q0 62 46 120.5t154 98.5q-68 -6 -139 -6q-365 0 -560.5 168t-195.5 467q0 298 194.5 466.5
t551.5 168.5q355 0 542 -166t187 -459h-1409v-10q0 -119 35 -215.5t97 -162.5t149.5 -110.5t189.5 -65t219 -20.5zM930 1167q-107 0 -201.5 -18t-178 -57t-145.5 -96.5t-101.5 -141.5t-49.5 -188h1337q-12 169 -103.5 283.5t-233 166t-324.5 51.5z" />
    <glyph glyph-name="Ecaron" unicode="&#x11a;" horiz-adv-x="1740" 
d="M1223 1858v-62l-342 -164l-342 164v62l342 -164zM1556 1434v-62h-1286v-624h1246v-62h-1246v-625h1286v-61h-1351v1434h1351z" />
    <glyph glyph-name="ecaron" unicode="&#x11b;" horiz-adv-x="1843" 
d="M1280 1612v-62l-342 -164l-342 164v62l342 -164zM940 20q264 0 417.5 86.5t205.5 241.5h71q-52 -181 -225.5 -285t-468.5 -104q-365 0 -560.5 168t-195.5 467q0 298 194.5 466.5t551.5 168.5q355 0 542 -166t187 -459h-1409v-10q0 -119 35 -215.5t97 -162.5t149.5 -110.5
t189.5 -65t219 -20.5zM930 1167q-107 0 -201.5 -18t-178 -57t-145.5 -96.5t-101.5 -141.5t-49.5 -188h1337q-12 169 -103.5 283.5t-233 166t-324.5 51.5z" />
    <glyph glyph-name="Gbreve" unicode="&#x11e;" horiz-adv-x="2000" 
d="M641 1946h66q0 -75 23.5 -124.5t70 -75.5t102 -36t133.5 -10t134 10t102.5 36t70 75.5t23.5 124.5h66q0 -164 -99.5 -236t-296.5 -72t-296 72t-99 236zM184 717q0 225 111.5 398.5t304.5 266.5t436 93q143 0 265.5 -31.5t210 -85t153 -125t102.5 -149t50 -160.5h-66
q-8 58 -34 119t-82 129t-133.5 120t-198.5 86.5t-267 34.5q-157 0 -289 -40t-222 -107.5t-153.5 -157.5t-92.5 -188.5t-29 -202.5t27.5 -202.5t89 -189t150 -158t219 -107.5t288.5 -40q222 0 382 46.5t345 150.5v389h-747v62h813v-484q-202 -117 -379.5 -171t-413.5 -54
q-242 0 -433 93t-299 266t-108 399z" />
    <glyph glyph-name="gbreve" unicode="&#x11f;" horiz-adv-x="1839" 
d="M911 1393q-198 0 -296.5 71.5t-98.5 235.5h66q0 -75 23.5 -124.5t70 -75.5t102 -36t133.5 -10t134 10t102.5 36t70 75.5t23.5 124.5h66q0 -164 -99 -235.5t-297 -71.5zM1569 850v338h65v-1153q0 -105 -16.5 -186t-59.5 -154.5t-114 -122t-185 -76.5t-268 -28
q-178 0 -317 8.5t-393 31.5v62q191 -17 260.5 -23t194 -12t247.5 -6q140 0 242 22t168 62t105.5 104t55 139.5t15.5 176.5v305q-71 -182 -243.5 -280.5t-426.5 -98.5q-337 0 -526 169.5t-189 465.5t189 465.5t526 169.5q254 0 426.5 -98.5t243.5 -280.5zM909 20
q142 0 261 36t208.5 106t140 180.5t50.5 251.5t-50.5 251.5t-140 180t-208.5 105.5t-261 36q-113 0 -212 -22.5t-181 -69t-141.5 -113.5t-92 -161t-32.5 -207q0 -141 50 -251.5t139.5 -180.5t208.5 -106t261 -36z" />
    <glyph glyph-name="Gdotaccent" unicode="&#x120;" horiz-adv-x="2000" 
d="M981 1671v98h111v-98h-111zM184 717q0 225 111.5 398.5t304.5 266.5t436 93q143 0 265.5 -31.5t210 -85t153 -125t102.5 -149t50 -160.5h-66q-8 58 -34 119t-82 129t-133.5 120t-198.5 86.5t-267 34.5q-157 0 -289 -40t-222 -107.5t-153.5 -157.5t-92.5 -188.5
t-29 -202.5t27.5 -202.5t89 -189t150 -158t219 -107.5t288.5 -40q222 0 382 46.5t345 150.5v389h-747v62h813v-484q-202 -117 -379.5 -171t-413.5 -54q-242 0 -433 93t-299 266t-108 399z" />
    <glyph glyph-name="gdotaccent" unicode="&#x121;" horiz-adv-x="1839" 
d="M856 1524h111v-99h-111v99zM1569 850v338h65v-1153q0 -105 -16.5 -186t-59.5 -154.5t-114 -122t-185 -76.5t-268 -28q-178 0 -317 8.5t-393 31.5v62q191 -17 260.5 -23t194 -12t247.5 -6q140 0 242 22t168 62t105.5 104t55 139.5t15.5 176.5v305q-71 -182 -243.5 -280.5
t-426.5 -98.5q-337 0 -526 169.5t-189 465.5t189 465.5t526 169.5q254 0 426.5 -98.5t243.5 -280.5zM909 20q142 0 261 36t208.5 106t140 180.5t50.5 251.5t-50.5 251.5t-140 180t-208.5 105.5t-261 36q-113 0 -212 -22.5t-181 -69t-141.5 -113.5t-92 -161t-32.5 -207
q0 -141 50 -251.5t139.5 -180.5t208.5 -106t261 -36z" />
    <glyph glyph-name="uni0122" unicode="&#x122;" horiz-adv-x="2000" 
d="M184 717q0 225 111.5 398.5t304.5 266.5t436 93q143 0 265.5 -31.5t210 -85t153 -125t102.5 -149t50 -160.5h-66q-8 58 -34 119t-82 129t-133.5 120t-198.5 86.5t-267 34.5q-157 0 -289 -40t-222 -107.5t-153.5 -157.5t-92.5 -188.5t-29 -202.5t27.5 -202.5t89 -189
t150 -158t219 -107.5t288.5 -40q222 0 382 46.5t345 150.5v389h-747v62h813v-484q-202 -117 -379.5 -171t-413.5 -54q-242 0 -433 93t-299 266t-108 399zM973 -274v98h110v-98l-84 -197h-41l60 197h-45z" />
    <glyph glyph-name="uni0123" unicode="&#x123;" horiz-adv-x="1839" 
d="M913 1565h45v-99h-110v99l84 196h41zM1569 850v338h65v-1153q0 -105 -16.5 -186t-59.5 -154.5t-114 -122t-185 -76.5t-268 -28q-178 0 -317 8.5t-393 31.5v62q191 -17 260.5 -23t194 -12t247.5 -6q140 0 242 22t168 62t105.5 104t55 139.5t15.5 176.5v305
q-71 -182 -243.5 -280.5t-426.5 -98.5q-337 0 -526 169.5t-189 465.5t189 465.5t526 169.5q254 0 426.5 -98.5t243.5 -280.5zM909 20q142 0 261 36t208.5 106t140 180.5t50.5 251.5t-50.5 251.5t-140 180t-208.5 105.5t-261 36q-113 0 -212 -22.5t-181 -69t-141.5 -113.5
t-92 -161t-32.5 -207q0 -141 50 -251.5t139.5 -180.5t208.5 -106t261 -36z" />
    <glyph glyph-name="Hbar" unicode="&#x126;" horiz-adv-x="2109" 
d="M1843 1188h164v-62h-164v-1126h-65v686h-1446v-686h-66v1126h-164v62h164v246h66v-246h1446v246h65v-246zM332 748h1446v378h-1446v-378z" />
    <glyph glyph-name="hbar" unicode="&#x127;" horiz-adv-x="1908" 
d="M1063 1229q127 0 224.5 -20t177 -67t130.5 -123t79 -188.5t30 -263.5v-567h-66v567q0 135 -23.5 236t-68.5 170.5t-115.5 112.5t-160 62t-207.5 19q-196 0 -357.5 -77.5t-257.5 -222t-96 -328.5v-539h-65v1372h-123v62h123v204h65v-204h563v-62h-563v-551
q89 192 278.5 300t432.5 108z" />
    <glyph glyph-name="Imacron" unicode="&#x12a;" 
d="M37 1710v62h399v-62h-399zM205 1434h65v-1434h-65v1434z" />
    <glyph glyph-name="imacron" unicode="&#x12b;" 
d="M-162 1464v62h797v-62h-797zM205 0v1188h65v-1188h-65z" />
    <glyph glyph-name="Iogonek" unicode="&#x12e;" horiz-adv-x="468" 
d="M66 -221q0 -89 68.5 -139t191.5 -50v-61q-89 0 -160 23t-118.5 78.5t-47.5 136.5q0 76 54 135t145 98v1434h65v-1434l-29 -14.5t-33 -17t-31.5 -18.5t-33 -23t-27.5 -27t-24 -34t-14 -39.5t-6 -47.5z" />
    <glyph glyph-name="iogonek" unicode="&#x12f;" 
d="M141 1524h111v-99h-111v99zM72 -221q0 -89 68.5 -139t191.5 -50v-61q-89 0 -160 23t-118.5 78.5t-47.5 136.5q0 76 54 135t145 98v1188h65v-1188l-29 -14.5t-33 -17t-31.5 -18.5t-33 -23t-27.5 -27t-24 -34t-14 -39.5t-6 -47.5z" />
    <glyph glyph-name="Idotaccent" unicode="&#x130;" 
d="M182 1671v98h111v-98h-111zM205 1434h65v-1434h-65v1434z" />
    <glyph glyph-name="dotlessi" unicode="&#x131;" 
d="M205 0v1188h65v-1188h-65z" />
    <glyph glyph-name="uni0136" unicode="&#x136;" horiz-adv-x="1916" 
d="M1624 1434h109l-824 -596l824 -838h-91l-786 799l-586 -424v-375h-65v1434h65v-981zM930 -274h-45v98h110v-98l-84 -197h-41z" />
    <glyph glyph-name="uni0137" unicode="&#x137;" horiz-adv-x="1722" 
d="M1421 1188h117l-682 -447l682 -741h-86l-651 707l-531 -349v-358h-65v1638h65v-1206zM819 -274h-45v98h111v-98l-84 -197h-41z" />
    <glyph glyph-name="Lacute" unicode="&#x139;" horiz-adv-x="1658" 
d="M205 1710l715 164v-62l-715 -163v61zM270 1434v-1373h1205v-61h-1270v1434h65z" />
    <glyph glyph-name="lacute" unicode="&#x13a;" 
d="M-121 1853v62l715 164v-62zM205 0v1638h65v-1638h-65z" />
    <glyph glyph-name="uni013B" unicode="&#x13b;" horiz-adv-x="1658" 
d="M270 1434v-1373h1205v-61h-1270v1434h65zM836 -274h-45v98h110v-98l-84 -197h-41z" />
    <glyph glyph-name="uni013C" unicode="&#x13c;" 
d="M205 0v1638h65v-1638h-65zM188 -274v98h111v-98l-84 -197h-41l59 197h-45z" />
    <glyph glyph-name="Lcaron" unicode="&#x13d;" horiz-adv-x="1658" 
d="M270 1434v-1373h1205v-61h-1270v1434h65zM1202 1294l-84 -196h-41l60 196h-45v99h110v-99z" />
    <glyph glyph-name="lcaron" unicode="&#x13e;" horiz-adv-x="624" 
d="M205 0v1638h65v-1638h-65zM412 1499v98h110v-98l-84 -196h-41l60 196h-45z" />
    <glyph glyph-name="Lslash" unicode="&#x141;" horiz-adv-x="2007" 
d="M475 647v-586h1204v-61h-1269v614l-246 -122v65l246 123v754h65v-721l758 377v-66z" />
    <glyph glyph-name="lslash" unicode="&#x142;" horiz-adv-x="802" 
d="M434 899l266 133v-65l-266 -133v-834h-65v801l-267 -133v65l267 133v772h65v-739z" />
    <glyph glyph-name="Nacute" unicode="&#x143;" horiz-adv-x="2011" 
d="M647 1710l715 164v-62l-715 -163v61zM1741 61v1373h65v-1434h-94l-1442 1372v-1372h-65v1434h94z" />
    <glyph glyph-name="nacute" unicode="&#x144;" horiz-adv-x="1826" 
d="M635 1464l715 164v-61l-715 -164v61zM981 1229q127 0 224.5 -20t177 -67t130.5 -123t79 -188.5t30 -263.5v-567h-66v567q0 135 -23.5 236t-68.5 170.5t-115.5 112.5t-160 62t-207.5 19q-196 0 -357.5 -77.5t-257.5 -222t-96 -328.5v-539h-65v1188h65v-367
q89 192 278.5 300t432.5 108z" />
    <glyph glyph-name="uni0145" unicode="&#x145;" horiz-adv-x="2011" 
d="M1741 61v1373h65v-1434h-94l-1442 1372v-1372h-65v1434h94zM1001 -274h-45v98h111v-98l-84 -197h-41z" />
    <glyph glyph-name="uni0146" unicode="&#x146;" horiz-adv-x="1826" 
d="M981 1229q127 0 224.5 -20t177 -67t130.5 -123t79 -188.5t30 -263.5v-567h-66v567q0 135 -23.5 236t-68.5 170.5t-115.5 112.5t-160 62t-207.5 19q-196 0 -357.5 -77.5t-257.5 -222t-96 -328.5v-539h-65v1188h65v-367q89 192 278.5 300t432.5 108zM948 -274h-45v98h111
v-98l-84 -197h-41z" />
    <glyph glyph-name="Ncaron" unicode="&#x147;" horiz-adv-x="2011" 
d="M1348 1858v-62l-342 -164l-342 164v62l342 -164zM1741 61v1373h65v-1434h-94l-1442 1372v-1372h-65v1434h94z" />
    <glyph glyph-name="ncaron" unicode="&#x148;" horiz-adv-x="1826" 
d="M1335 1612v-62l-342 -164l-342 164v62l342 -164zM981 1229q127 0 224.5 -20t177 -67t130.5 -123t79 -188.5t30 -263.5v-567h-66v567q0 135 -23.5 236t-68.5 170.5t-115.5 112.5t-160 62t-207.5 19q-196 0 -357.5 -77.5t-257.5 -222t-96 -328.5v-539h-65v1188h65v-367
q89 192 278.5 300t432.5 108z" />
    <glyph glyph-name="Eng" unicode="&#x14a;" horiz-adv-x="2011" 
d="M1741 61v1373h65v-1434q0 -102 -9.5 -174.5t-38 -140t-77 -108.5t-129 -65t-192.5 -24q-182 0 -363 51v62q203 -52 363 -52q144 0 224.5 40t118.5 137.5t38 273.5h-29l-1442 1372v-1372h-65v1434h94z" />
    <glyph glyph-name="eng" unicode="&#x14b;" horiz-adv-x="1826" 
d="M981 1229q127 0 224.5 -20t177 -67t130.5 -123t79 -188.5t30 -263.5v-567q0 -102 -9.5 -174.5t-38 -140t-77 -108.5t-129 -65t-192.5 -24q-182 0 -363 51v62q203 -52 363 -52q144 0 224 40t118 137.5t38 273.5v567q0 135 -23.5 236t-68.5 170.5t-115.5 112.5t-160 62
t-207.5 19q-196 0 -357.5 -77.5t-257.5 -222t-96 -328.5v-539h-65v1188h65v-367q89 192 278.5 300t432.5 108z" />
    <glyph glyph-name="Omacron" unicode="&#x14c;" horiz-adv-x="2088" 
d="M645 1710v62h797v-62h-797zM1044 -41q-401 0 -630.5 206.5t-229.5 553.5q0 346 229.5 551t630.5 205q399 0 630 -206t231 -550q0 -346 -231 -553t-630 -207zM1044 20q187 0 338 52t250.5 144.5t153 221t53.5 281.5q0 152 -53 279.5t-152.5 219.5t-250.5 143.5t-339 51.5
t-338.5 -51t-250 -143t-152.5 -219.5t-53 -280.5q0 -154 53 -282.5t153 -221t250.5 -144t337.5 -51.5z" />
    <glyph glyph-name="omacron" unicode="&#x14d;" horiz-adv-x="1859" 
d="M530 1464v62h797v-62h-797zM930 -41q-346 0 -546 170t-200 465t200 465t546 170t545.5 -170t199.5 -465t-199.5 -465t-545.5 -170zM930 20q145 0 268 36t215.5 106t144.5 180.5t52 251.5t-52 251.5t-144.5 180t-215 105.5t-268.5 36t-268.5 -36t-215 -105.5t-144.5 -180
t-52 -251.5t52 -251.5t144.5 -180.5t215.5 -106t268 -36z" />
    <glyph glyph-name="Ohungarumlaut" unicode="&#x150;" horiz-adv-x="2088" 
d="M662 1649v61l382 164v-62zM1126 1649v61l383 164v-62zM1044 -41q-401 0 -630.5 206.5t-229.5 553.5q0 346 229.5 551t630.5 205q399 0 630 -206t231 -550q0 -346 -231 -553t-630 -207zM1044 20q187 0 338 52t250.5 144.5t153 221t53.5 281.5q0 152 -53 279.5
t-152.5 219.5t-250.5 143.5t-339 51.5t-338.5 -51t-250 -143t-152.5 -219.5t-53 -280.5q0 -154 53 -282.5t153 -221t250.5 -144t337.5 -51.5z" />
    <glyph glyph-name="ohungarumlaut" unicode="&#x151;" horiz-adv-x="1859" 
d="M547 1403v61l383 164v-61zM1012 1403v61l383 164v-61zM930 -41q-346 0 -546 170t-200 465t200 465t546 170t545.5 -170t199.5 -465t-199.5 -465t-545.5 -170zM930 20q145 0 268 36t215.5 106t144.5 180.5t52 251.5t-52 251.5t-144.5 180t-215 105.5t-268.5 36t-268.5 -36
t-215 -105.5t-144.5 -180t-52 -251.5t52 -251.5t144.5 -180.5t215.5 -106t268 -36z" />
    <glyph glyph-name="OE" unicode="&#x152;" horiz-adv-x="3375" 
d="M3191 1434v-62h-1286v-624h1245v-62h-1245v-625h1286v-61h-1352v393q-92 -205 -297.5 -319.5t-497.5 -114.5q-401 0 -630.5 206.5t-229.5 553.5q0 346 229.5 551t630.5 205q292 0 497.5 -114t297.5 -317v390h1352zM1044 20q187 0 338 52t250.5 144.5t153 221t53.5 281.5
q0 152 -53 279.5t-152.5 219.5t-250.5 143.5t-339 51.5t-338.5 -51t-250 -143t-152.5 -219.5t-53 -280.5q0 -154 53 -282.5t153 -221t250.5 -144t337.5 -51.5z" />
    <glyph glyph-name="oe" unicode="&#x153;" horiz-adv-x="3268" 
d="M2365 20q264 0 417.5 86.5t205.5 241.5h72q-52 -181 -226 -285t-469 -104q-291 0 -476 108.5t-247 307.5q-66 -198 -251.5 -307t-460.5 -109q-346 0 -546 170t-200 465t200 465t546 170q275 0 460.5 -109t251.5 -307q62 199 245 307.5t468 108.5q355 0 542 -166t187 -459
h-1409v-10q0 -119 35 -215.5t97 -162.5t149.5 -110.5t189.5 -65t219 -20.5zM930 20q145 0 268 36t215.5 106t144.5 180.5t52 251.5t-52 251.5t-144.5 180t-215 105.5t-268.5 36t-268.5 -36t-215 -105.5t-144.5 -180t-52 -251.5t52 -251.5t144.5 -180.5t215.5 -106t268 -36z
M2355 1167q-107 0 -201.5 -18t-178 -57t-145.5 -96.5t-101.5 -141.5t-49.5 -188h1338q-9 127 -63.5 224.5t-144 157t-204 89.5t-250.5 30z" />
    <glyph glyph-name="Racute" unicode="&#x154;" horiz-adv-x="1900" 
d="M541 1710l714 164v-62l-714 -163v61zM1423 659q107 -14 169.5 -82t62.5 -180v-397h-66v397q0 98 -61.5 151.5t-163.5 53.5h-1094v-602h-65v1434h942q272 0 400 -101t128 -305q0 -285 -252 -369zM1147 1372h-877v-708h877q237 0 350 88t113 276q0 186 -111 265t-352 79z
" />
    <glyph glyph-name="racute" unicode="&#x155;" horiz-adv-x="1347" 
d="M336 1464l715 164v-61l-715 -164v61zM866 1229q170 0 338 -41v-62q-163 41 -338 41q-65 0 -125.5 -10t-136.5 -35.5t-161.5 -78t-172.5 -130.5v-913h-65v1188h65v-205q100 97 207.5 153.5t196 74.5t192.5 18z" />
    <glyph glyph-name="uni0156" unicode="&#x156;" horiz-adv-x="1900" 
d="M1423 659q107 -14 169.5 -82t62.5 -180v-397h-66v397q0 98 -61.5 151.5t-163.5 53.5h-1094v-602h-65v1434h942q272 0 400 -101t128 -305q0 -285 -252 -369zM1147 1372h-877v-708h877q237 0 350 88t113 276q0 186 -111 265t-352 79zM956 -274h-45v98h111v-98l-84 -197h-41
z" />
    <glyph glyph-name="uni0157" unicode="&#x157;" horiz-adv-x="1347" 
d="M866 1229q170 0 338 -41v-62q-163 41 -338 41q-65 0 -125.5 -10t-136.5 -35.5t-161.5 -78t-172.5 -130.5v-913h-65v1188h65v-205q100 97 207.5 153.5t196 74.5t192.5 18zM233 -274h-45v98h111v-98l-84 -197h-41z" />
    <glyph glyph-name="Rcaron" unicode="&#x158;" horiz-adv-x="1900" 
d="M1241 1858v-62l-342 -164l-342 164v62l342 -164zM1423 659q107 -14 169.5 -82t62.5 -180v-397h-66v397q0 98 -61.5 151.5t-163.5 53.5h-1094v-602h-65v1434h942q272 0 400 -101t128 -305q0 -285 -252 -369zM1147 1372h-877v-708h877q237 0 350 88t113 276q0 186 -111 265
t-352 79z" />
    <glyph glyph-name="rcaron" unicode="&#x159;" horiz-adv-x="1347" 
d="M1036 1612v-62l-342 -164l-342 164v62l342 -164zM866 1229q170 0 338 -41v-62q-163 41 -338 41q-65 0 -125.5 -10t-136.5 -35.5t-161.5 -78t-172.5 -130.5v-913h-65v1188h65v-205q100 97 207.5 153.5t196 74.5t192.5 18z" />
    <glyph glyph-name="Sacute" unicode="&#x15a;" horiz-adv-x="1978" 
d="M631 1649v61l715 164v-62zM164 485h65q0 -107 32 -185.5t94.5 -132t163.5 -86.5t229.5 -47t302.5 -14q171 0 295 17.5t217 57.5t139.5 109.5t46.5 168.5q0 66 -15 113t-59 81t-93.5 54t-148.5 35t-191 23t-253 17q-308 18 -470 60.5t-228 122t-66 223.5q0 205 179.5 289
t574.5 84q397 0 585.5 -121.5t188.5 -380.5h-65q0 101 -33 177t-93.5 126t-155 80.5t-207.5 43.5t-261 13q-341 0 -494 -70t-153 -241q0 -68 16 -117.5t56 -85.5t89.5 -58.5t136.5 -39t174.5 -25.5t225.5 -18q114 -7 178.5 -12t152.5 -14t135.5 -18.5t109 -24.5t93 -34.5
t67.5 -46t52 -60.5t27 -77.5t11 -97.5q0 -95 -35.5 -166.5t-100 -118.5t-164 -76t-217 -41t-268.5 -12q-228 0 -384.5 25t-267.5 85.5t-162.5 162.5t-51.5 253z" />
    <glyph glyph-name="sacute" unicode="&#x15b;" horiz-adv-x="1849" 
d="M563 1403v61l715 164v-61zM184 362h66q17 -99 73.5 -167t156 -105.5t223.5 -53.5t296 -16q328 0 464 64t136 219q0 44 -6.5 77t-24 59t-38.5 44t-61.5 32t-80 22.5t-107 16t-130 13t-160.5 12.5q-45 3 -69 5q-159 12 -265.5 26.5t-191.5 38t-131.5 58.5t-70 84t-23.5 118
q0 76 32 133t87.5 92.5t142 57t184 29.5t225.5 8q127 0 223 -9t182.5 -32.5t145 -62.5t98.5 -101t56 -147h-66q-12 59 -40.5 105.5t-73.5 77.5t-99 52.5t-125 33t-142 16.5t-159 5q-314 0 -460 -57.5t-146 -200.5q0 -42 11.5 -73.5t31.5 -55.5t62 -42.5t86 -31.5t122 -24
t152 -19t193 -18q28 -2 81 -7q89 -8 131 -12t112 -12t102 -15.5t81.5 -21t71.5 -29t51.5 -38t41.5 -51t21 -65t9 -81.5q0 -189 -157.5 -271.5t-508.5 -82.5q-115 0 -207 6.5t-183.5 23t-160.5 46t-125.5 73.5t-91.5 108t-47 146z" />
    <glyph glyph-name="Scedilla" unicode="&#x15e;" horiz-adv-x="1978" 
d="M1030 -41h-57l-31 -133q83 37 178 37q83 0 138 -39.5t55 -126.5q0 -68 -42 -114t-113 -65.5t-164.5 -23t-196.5 13.5v62q89 -15 167 -17t142.5 10.5t102.5 46.5t38 87q0 49 -36 78t-91 32q-83 6 -176 -38l-74 10l37 182q-389 12 -566 130t-177 394h65q0 -107 32 -185.5
t94.5 -132t163.5 -86.5t229.5 -47t302.5 -14q171 0 295 17.5t217 57.5t139.5 109.5t46.5 168.5q0 66 -15 113t-59 81t-93.5 54t-148.5 35t-191 23t-253 17q-308 18 -470 60.5t-228 122t-66 223.5q0 205 179.5 289t574.5 84q397 0 585.5 -121.5t188.5 -380.5h-65
q0 101 -33 177t-93.5 126t-155 80.5t-207.5 43.5t-261 13q-341 0 -494 -70t-153 -241q0 -68 16 -117.5t56 -85.5t89.5 -58.5t136.5 -39t174.5 -25.5t225.5 -18q114 -7 178.5 -12t152.5 -14t135.5 -18.5t109 -24.5t93 -34.5t67.5 -46t52 -60.5t27 -77.5t11 -97.5
q0 -95 -35.5 -166.5t-100 -118.5t-164 -76t-217 -41t-268.5 -12z" />
    <glyph glyph-name="scedilla" unicode="&#x15f;" horiz-adv-x="1849" 
d="M999 -41q-63 0 -94 2l-31 -135q83 37 179 37q83 0 137.5 -39.5t54.5 -126.5q0 -68 -42 -114t-113 -65.5t-164.5 -23t-196.5 13.5v62q89 -15 167 -17t143 10.5t103 46.5t38 87q0 49 -36 78t-91 32q-83 6 -176 -38l-74 10l37 184q-110 6 -199 20.5t-170.5 43.5t-138.5 73
t-96 110t-52 152h66q17 -99 73.5 -167t156 -105.5t223.5 -53.5t296 -16q328 0 464 64t136 219q0 44 -6.5 77t-24 59t-38.5 44t-61.5 32t-80 22.5t-107 16t-130 13t-160.5 12.5q-45 3 -69 5q-159 12 -265.5 26.5t-191.5 38t-131.5 58.5t-70 84t-23.5 118q0 76 32 133
t87.5 92.5t142 57t184 29.5t225.5 8q127 0 223 -9t182.5 -32.5t145 -62.5t98.5 -101t56 -147h-66q-12 59 -40.5 105.5t-73.5 77.5t-99 52.5t-125 33t-142 16.5t-159 5q-314 0 -460 -57.5t-146 -200.5q0 -42 11.5 -73.5t31.5 -55.5t62 -42.5t86 -31.5t122 -24t152 -19
t193 -18q28 -2 81 -7q89 -8 131 -12t112 -12t102 -15.5t81.5 -21t71.5 -29t51.5 -38t41.5 -51t21 -65t9 -81.5q0 -189 -157.5 -271.5t-508.5 -82.5z" />
    <glyph glyph-name="Scaron" unicode="&#x160;" horiz-adv-x="1978" 
d="M1331 1858v-62l-342 -164l-342 164v62l342 -164zM989 758q114 -7 178.5 -12t152.5 -14t135.5 -18.5t109 -24.5t93 -34.5t67.5 -46t52 -60.5t27 -77.5t11 -97.5q0 -95 -35.5 -166.5t-100 -118.5t-164 -76t-217 -41t-268.5 -12q-228 0 -384.5 25t-267.5 85.5t-162.5 162.5
t-51.5 253h65q0 -107 32 -185.5t94.5 -132t163.5 -86.5t229.5 -47t302.5 -14q171 0 295 17.5t217 57.5t139.5 109.5t46.5 168.5q0 66 -15 113t-59 81t-93.5 54t-148.5 35t-191 23t-253 17q-308 18 -470 60.5t-228 122t-66 223.5q0 205 179.5 289t574.5 84
q397 0 585.5 -121.5t188.5 -380.5h-65q0 101 -33 177t-93.5 126t-155 80.5t-207.5 43.5t-261 13q-341 0 -494 -70t-153 -241q0 -68 16 -117.5t56 -85.5t89.5 -58.5t136.5 -39t174.5 -25.5t225.5 -18z" />
    <glyph glyph-name="scaron" unicode="&#x161;" horiz-adv-x="1849" 
d="M1264 1612v-62l-342 -164l-342 164v62l342 -164zM963 645q28 -2 81 -7q89 -8 131 -12t112 -12t102 -15.5t81.5 -21t71.5 -29t51.5 -38t41.5 -51t21 -65t9 -81.5q0 -189 -157.5 -271.5t-508.5 -82.5q-115 0 -207 6.5t-183.5 23t-160.5 46t-125.5 73.5t-91.5 108t-47 146
h66q17 -99 73.5 -167t156 -105.5t223.5 -53.5t296 -16q328 0 464 64t136 219q0 44 -6.5 77t-24 59t-38.5 44t-61.5 32t-80 22.5t-107 16t-130 13t-160.5 12.5q-45 3 -69 5q-159 12 -265.5 26.5t-191.5 38t-131.5 58.5t-70 84t-23.5 118q0 76 32 133t87.5 92.5t142 57
t184 29.5t225.5 8q127 0 223 -9t182.5 -32.5t145 -62.5t98.5 -101t56 -147h-66q-12 59 -40.5 105.5t-73.5 77.5t-99 52.5t-125 33t-142 16.5t-159 5q-314 0 -460 -57.5t-146 -200.5q0 -42 11.5 -73.5t31.5 -55.5t62 -42.5t86 -31.5t122 -24t152 -19t193 -18z" />
    <glyph glyph-name="uni0162" unicode="&#x162;" horiz-adv-x="1966" 
d="M1782 1372h-766v-1372l-35 -154q83 37 178 37q83 0 138 -39.5t55 -126.5q0 -68 -42 -114t-113 -65t-164.5 -22.5t-196.5 13.5v61q89 -15 167 -17t142.5 10.5t102.5 46.5t38 87q0 49 -36 78.5t-91 32.5q-81 6 -176 -39l-74 10l41 201v1372h-766v62h1598v-62z" />
    <glyph glyph-name="uni0163" unicode="&#x163;" horiz-adv-x="1466" 
d="M1282 1188v-62h-674v-737q0 -71 8.5 -126t23.5 -94t41.5 -66t55.5 -43.5t73 -25t86 -11.5t103 -3q86 0 283 31v-61q-181 -31 -283 -31q-90 0 -147 8l-33 -141q83 37 178 37q83 0 138 -39.5t55 -126.5q0 -68 -42 -114t-113 -65.5t-164.5 -23t-196.5 13.5v62
q89 -15 167 -17t142.5 10.5t102.5 46.5t38 87q0 49 -36 78t-91 32q-83 6 -176 -38l-73 10l40 198q-84 19 -136.5 63.5t-80.5 130t-28 218.5v737h-379v62h379v325l65 43v-368h674z" />
    <glyph glyph-name="Tcaron" unicode="&#x164;" horiz-adv-x="1966" 
d="M1325 1858v-62l-342 -164l-342 164v62l342 -164zM1782 1434v-62h-766v-1372h-66v1372h-766v62h1598z" />
    <glyph glyph-name="tcaron" unicode="&#x165;" horiz-adv-x="1466" 
d="M989 1499l-84 -196h-41l60 196h-45v98h110v-98zM1282 1188v-62h-674v-737q0 -71 8.5 -126t23.5 -94t41.5 -66t55.5 -43.5t73 -25t86 -11.5t103 -3q86 0 283 31v-61q-181 -31 -283 -31q-96 0 -162 9t-125.5 35.5t-94 74t-54.5 124.5t-20 187v737h-379v62h379v325l65 43
v-368h674z" />
    <glyph glyph-name="Tbar" unicode="&#x166;" horiz-adv-x="1966" 
d="M1782 1434v-62h-766v-600h479v-61h-479v-711h-66v711h-479v61h479v600h-766v62h1598z" />
    <glyph glyph-name="tbar" unicode="&#x167;" horiz-adv-x="1466" 
d="M1282 1188v-62h-674v-419h674v-62h-674v-256q0 -71 8.5 -126t23.5 -94t41.5 -66t55.5 -43.5t73 -25t86 -11.5t103 -3q86 0 283 31v-61q-181 -31 -283 -31q-96 0 -162 9t-125.5 35.5t-94 74t-54.5 124.5t-20 187v256h-379v62h379v419h-379v62h379v325l65 43v-368h674z" />
    <glyph glyph-name="Umacron" unicode="&#x16a;" horiz-adv-x="2007" 
d="M604 1710v62h797v-62h-797zM1802 1434v-736q0 -739 -798 -739q-799 0 -799 739v736h65v-736q0 -78 9 -146.5t32 -138.5t59 -127t93.5 -107.5t132.5 -85t178.5 -54t229.5 -19.5t229.5 20t178.5 54t132.5 84.5t93.5 107.5t58.5 127t31.5 138.5t9 146.5v736h65z" />
    <glyph glyph-name="umacron" unicode="&#x16b;" horiz-adv-x="1826" 
d="M561 1526h797v-62h-797v62zM1556 649v539h66v-1188h-66v367q-89 -192 -278 -300t-432 -108q-127 0 -224.5 20t-177 67t-130.5 123t-79 188.5t-30 263.5v567h65v-567q0 -169 35.5 -285t109.5 -185.5t178.5 -100t252.5 -30.5q146 0 276.5 46t226 127t151.5 199.5t56 256.5z
" />
    <glyph glyph-name="Uring" unicode="&#x16e;" horiz-adv-x="2007" 
d="M1004 1577q-186 0 -275.5 56t-89.5 153t89.5 153t275.5 56t275 -56t89 -153t-89 -153t-275 -56zM1004 1638q162 0 232.5 37.5t70.5 110.5t-70.5 110t-232.5 37t-233 -37t-71 -110t71 -110.5t233 -37.5zM1802 1434v-736q0 -739 -798 -739q-799 0 -799 739v736h65v-736
q0 -78 9 -146.5t32 -138.5t59 -127t93.5 -107.5t132.5 -85t178.5 -54t229.5 -19.5t229.5 20t178.5 54t132.5 84.5t93.5 107.5t58.5 127t31.5 138.5t9 146.5v736h65z" />
    <glyph glyph-name="uring" unicode="&#x16f;" horiz-adv-x="1826" 
d="M961 1331q-186 0 -275.5 56t-89.5 153t89.5 153t275.5 56t275 -56t89 -153t-89 -153t-275 -56zM961 1688q-162 0 -233 -37.5t-71 -110.5t71 -110t233 -37t232.5 37t70.5 110t-70.5 110.5t-232.5 37.5zM1556 649v539h66v-1188h-66v367q-89 -192 -278 -300t-432 -108
q-127 0 -224.5 20t-177 67t-130.5 123t-79 188.5t-30 263.5v567h65v-567q0 -169 35.5 -285t109.5 -185.5t178.5 -100t252.5 -30.5q146 0 276.5 46t226 127t151.5 199.5t56 256.5z" />
    <glyph glyph-name="Uhungarumlaut" unicode="&#x170;" horiz-adv-x="2007" 
d="M621 1649v61l383 164v-62zM1085 1649v61l383 164v-62zM1802 1434v-736q0 -739 -798 -739q-799 0 -799 739v736h65v-736q0 -78 9 -146.5t32 -138.5t59 -127t93.5 -107.5t132.5 -85t178.5 -54t229.5 -19.5t229.5 20t178.5 54t132.5 84.5t93.5 107.5t58.5 127t31.5 138.5
t9 146.5v736h65z" />
    <glyph glyph-name="uhungarumlaut" unicode="&#x171;" horiz-adv-x="1826" 
d="M578 1464l383 164v-61l-383 -164v61zM1042 1464l383 164v-61l-383 -164v61zM1556 649v539h66v-1188h-66v367q-89 -192 -278 -300t-432 -108q-127 0 -224.5 20t-177 67t-130.5 123t-79 188.5t-30 263.5v567h65v-567q0 -169 35.5 -285t109.5 -185.5t178.5 -100t252.5 -30.5
q146 0 276.5 46t226 127t151.5 199.5t56 256.5z" />
    <glyph glyph-name="Uogonek" unicode="&#x172;" horiz-adv-x="2048" 
d="M1737 698v736h65v-736q0 -566 -467 -698h-2q-8 -4 -14 -4q-299 -84 -299 -238q0 -40 13 -68.5t46 -52t96 -35.5t156 -12v-61q-195 0 -286 52.5t-91 164.5q0 63 46.5 121.5t156.5 99.5q-63 -8 -153 -8q-799 0 -799 739v736h65v-736q0 -78 9 -146.5t32 -138.5t59 -127
t93.5 -107.5t132.5 -85t178.5 -54t229.5 -19.5t229.5 20t178.5 54t132.5 84.5t93.5 107.5t58.5 127t31.5 138.5t9 146.5z" />
    <glyph glyph-name="uogonek" unicode="&#x173;" horiz-adv-x="1826" 
d="M1556 649v539h66v-1188q-34 -8 -72 -23.5t-83.5 -43.5t-75 -74t-29.5 -101q0 -75 69.5 -121.5t190.5 -46.5v-61q-88 0 -159.5 22t-119 72.5t-47.5 122.5q0 158 260 254v367q-89 -192 -278 -300t-432 -108q-127 0 -224.5 20t-177 67t-130.5 123t-79 188.5t-30 263.5v567
h65v-567q0 -169 35.5 -285t109.5 -185.5t178.5 -100t252.5 -30.5q146 0 276.5 46t226 127t151.5 199.5t56 256.5z" />
    <glyph glyph-name="Wcircumflex" unicode="&#x174;" horiz-adv-x="3168" 
d="M1925 1690v-62l-342 164l-342 -164v62l342 163zM2316 74l596 1360h72l-631 -1434h-74l-696 1372l-696 -1372h-74l-629 1434h72l594 -1360l692 1360h82z" />
    <glyph glyph-name="wcircumflex" unicode="&#x175;" horiz-adv-x="2856" 
d="M1769 1444v-62l-342 164l-342 -164v62l342 164zM2056 70l547 1118h70l-580 -1188h-72v2l-591 1118l-596 -1120h-72l-578 1188h70l545 -1118l592 1118h75z" />
    <glyph glyph-name="Ycircumflex" unicode="&#x176;" horiz-adv-x="2123" 
d="M1403 1690v-62l-342 164l-342 -164v62l342 163zM1061 549l792 885h86l-845 -947v-487h-66v487l-844 947h86z" />
    <glyph glyph-name="ycircumflex" unicode="&#x177;" horiz-adv-x="1830" 
d="M1278 1444v-62l-342 164l-342 -164v62l342 164zM922 29l651 1159h74l-717 -1272q-16 -28 -43 -77.5t-40.5 -73.5t-37.5 -64t-38.5 -60t-38 -49.5t-42 -44t-44.5 -33t-51.5 -26.5t-57 -14t-66.5 -6q-87 0 -262 30v62l66 -11t57.5 -9t43 -5.5t48.5 -4.5t47 -1
q32 0 59.5 4.5t53 17.5t44 24t41 37t36.5 43t36.5 55t35 59.5t39.5 71t42 75.5l47 84h-41l-680 1188h74z" />
    <glyph glyph-name="Ydieresis" unicode="&#x178;" horiz-adv-x="2123" 
d="M791 1769h110v-98h-110v98zM1221 1769h110v-98h-110v98zM1061 549l792 885h86l-845 -947v-487h-66v487l-844 947h86z" />
    <glyph glyph-name="Zacute" unicode="&#x179;" horiz-adv-x="1863" 
d="M573 1710l715 164v-62l-715 -163v61zM205 1434h1454v-62l-1362 -1311h1362v-61h-1454v61l1362 1311h-1362v62z" />
    <glyph glyph-name="zacute" unicode="&#x17a;" horiz-adv-x="1667" 
d="M475 1464l715 164v-61l-715 -164v61zM205 1188h1257v-62l-1161 -1065h1161v-61h-1257v61l1161 1065h-1161v62z" />
    <glyph glyph-name="Zdotaccent" unicode="&#x17b;" horiz-adv-x="1863" 
d="M877 1769h110v-98h-110v98zM205 1434h1454v-62l-1362 -1311h1362v-61h-1454v61l1362 1311h-1362v62z" />
    <glyph glyph-name="zdotaccent" unicode="&#x17c;" horiz-adv-x="1667" 
d="M778 1524h111v-99h-111v99zM205 1188h1257v-62l-1161 -1065h1161v-61h-1257v61l1161 1065h-1161v62z" />
    <glyph glyph-name="Zcaron" unicode="&#x17d;" horiz-adv-x="1863" 
d="M1274 1858v-62l-342 -164l-342 164v62l342 -164zM205 1434h1454v-62l-1362 -1311h1362v-61h-1454v61l1362 1311h-1362v62z" />
    <glyph glyph-name="zcaron" unicode="&#x17e;" horiz-adv-x="1667" 
d="M1176 1612v-62l-342 -164l-342 164v62l342 -164zM205 1188h1257v-62l-1161 -1065h1161v-61h-1257v61l1161 1065h-1161v62z" />
    <glyph glyph-name="uni0218" unicode="&#x218;" horiz-adv-x="1978" 
d="M164 485h65q0 -107 32 -185.5t94.5 -132t163.5 -86.5t229.5 -47t302.5 -14q171 0 295 17.5t217 57.5t139.5 109.5t46.5 168.5q0 66 -15 113t-59 81t-93.5 54t-148.5 35t-191 23t-253 17q-308 18 -470 60.5t-228 122t-66 223.5q0 205 179.5 289t574.5 84
q397 0 585.5 -121.5t188.5 -380.5h-65q0 101 -33 177t-93.5 126t-155 80.5t-207.5 43.5t-261 13q-341 0 -494 -70t-153 -241q0 -68 16 -117.5t56 -85.5t89.5 -58.5t136.5 -39t174.5 -25.5t225.5 -18q114 -7 178.5 -12t152.5 -14t135.5 -18.5t109 -24.5t93 -34.5t67.5 -46
t52 -60.5t27 -77.5t11 -97.5q0 -95 -35.5 -166.5t-100 -118.5t-164 -76t-217 -41t-268.5 -12q-228 0 -384.5 25t-267.5 85.5t-162.5 162.5t-51.5 253zM940 -295v98h111v-98l-84 -197h-41l59 197h-45z" />
    <glyph glyph-name="uni0219" unicode="&#x219;" horiz-adv-x="1849" 
d="M184 362h66q17 -99 73.5 -167t156 -105.5t223.5 -53.5t296 -16q328 0 464 64t136 219q0 44 -6.5 77t-24 59t-38.5 44t-61.5 32t-80 22.5t-107 16t-130 13t-160.5 12.5q-45 3 -69 5q-159 12 -265.5 26.5t-191.5 38t-131.5 58.5t-70 84t-23.5 118q0 76 32 133t87.5 92.5
t142 57t184 29.5t225.5 8q127 0 223 -9t182.5 -32.5t145 -62.5t98.5 -101t56 -147h-66q-12 59 -40.5 105.5t-73.5 77.5t-99 52.5t-125 33t-142 16.5t-159 5q-314 0 -460 -57.5t-146 -200.5q0 -42 11.5 -73.5t31.5 -55.5t62 -42.5t86 -31.5t122 -24t152 -19t193 -18
q28 -2 81 -7q89 -8 131 -12t112 -12t102 -15.5t81.5 -21t71.5 -29t51.5 -38t41.5 -51t21 -65t9 -81.5q0 -189 -157.5 -271.5t-508.5 -82.5q-115 0 -207 6.5t-183.5 23t-160.5 46t-125.5 73.5t-91.5 108t-47 146zM872 -295v98h111v-98l-84 -197h-41l60 197h-46z" />
    <glyph glyph-name="uni021A" unicode="&#x21a;" horiz-adv-x="1966" 
d="M1782 1434v-62h-766v-1372h-66v1372h-766v62h1598zM979 -274h-45v98h110v-98l-83 -197h-41z" />
    <glyph glyph-name="uni021B" unicode="&#x21b;" horiz-adv-x="1466" 
d="M1282 1188v-62h-674v-737q0 -71 8.5 -126t23.5 -94t41.5 -66t55.5 -43.5t73 -25t86 -11.5t103 -3q86 0 283 31v-61q-181 -31 -283 -31q-96 0 -162 9t-125.5 35.5t-94 74t-54.5 124.5t-20 187v737h-379v62h379v325l65 43v-368h674zM885 -274h-45v98h110v-98l-84 -197h-41z
" />
    <glyph glyph-name="circumflex" unicode="&#x2c6;" horiz-adv-x="1093" 
d="M205 1444l342 164l342 -164v-62l-342 164l-342 -164v62z" />
    <glyph glyph-name="caron" unicode="&#x2c7;" horiz-adv-x="1093" 
d="M205 1612l342 -164l342 164v-62l-342 -164l-342 164v62z" />
    <glyph glyph-name="breve" unicode="&#x2d8;" horiz-adv-x="1200" 
d="M205 1700h65q0 -75 23.5 -124.5t70 -75.5t102.5 -36t134 -10t134 10t102.5 36t70 75.5t23.5 124.5h65q0 -164 -98.5 -235.5t-296.5 -71.5t-296.5 71.5t-98.5 235.5z" />
    <glyph glyph-name="dotaccent" unicode="&#x2d9;" horiz-adv-x="520" 
d="M205 1425v99h110v-99h-110z" />
    <glyph glyph-name="ring" unicode="&#x2da;" horiz-adv-x="1138" 
d="M569 1331q-186 0 -275 56t-89 153t89 153t275 56t275.5 -56t89.5 -153t-89.5 -153t-275.5 -56zM569 1393q162 0 232.5 37t70.5 110t-70.5 110.5t-232.5 37.5t-232.5 -37.5t-70.5 -110.5t70.5 -110t232.5 -37z" />
    <glyph glyph-name="ogonek" unicode="&#x2db;" horiz-adv-x="786" 
d="M582 -410v-61q-195 0 -286 52.5t-91 164.5q0 65 44.5 126t143.5 128h49q-2 -2 -24 -19t-27.5 -21.5t-24.5 -21t-26 -25t-21.5 -25t-20.5 -29t-14 -30t-11 -35t-3 -36.5q0 -40 13 -68.5t46.5 -52t96.5 -35.5t156 -12z" />
    <glyph glyph-name="tilde" unicode="&#x2dc;" horiz-adv-x="1417" 
d="M270 1372h-65q0 29 5.5 59.5t22.5 69t44 68t75.5 49.5t110.5 20q69 0 125 -23t94 -56t75 -66.5t86.5 -56.5t110.5 -23q99 0 146 54t47 151h65q0 -29 -5.5 -59.5t-22.5 -69t-44 -68t-75.5 -49.5t-110.5 -20q-69 0 -125 23t-94 56t-75 66.5t-86.5 56.5t-110.5 23
q-99 0 -146 -54t-47 -151z" />
    <glyph glyph-name="hungarumlaut" unicode="&#x2dd;" horiz-adv-x="1257" 
d="M205 1403v61l383 164v-61zM670 1403v61l383 164v-61z" />
    <glyph glyph-name="gravecomb" unicode="&#x300;" horiz-adv-x="0" 
d="M-961 1628l715 -164v-61l-715 164v61z" />
    <glyph glyph-name="acutecomb" unicode="&#x301;" horiz-adv-x="0" 
d="M-920 1403v61l715 164v-61z" />
    <glyph glyph-name="uni0302" unicode="&#x302;" horiz-adv-x="0" 
d="M-889 1444l342 164l342 -164v-62l-342 164l-342 -164v62z" />
    <glyph glyph-name="tildecomb" unicode="&#x303;" horiz-adv-x="0" 
d="M-1147 1372h-65q0 29 5.5 59.5t22.5 69t44 68t75.5 49.5t110.5 20q69 0 125 -23t94 -56t75 -66.5t86.5 -56.5t110.5 -23q99 0 146 54t47 151h65q0 -29 -5.5 -59.5t-22.5 -69t-44 -68t-75.5 -49.5t-110.5 -20q-69 0 -125 23t-94 56t-75 66.5t-86.5 56.5t-110.5 23
q-99 0 -146 -54t-47 -151z" />
    <glyph glyph-name="uni0304" unicode="&#x304;" horiz-adv-x="0" 
d="M-1001 1464v62h796v-62h-796z" />
    <glyph glyph-name="uni0306" unicode="&#x306;" horiz-adv-x="0" 
d="M-995 1700h65q0 -75 23.5 -124.5t70 -75.5t102.5 -36t134 -10t134 10t102.5 36t70 75.5t23.5 124.5h65q0 -164 -98.5 -235.5t-296.5 -71.5t-296.5 71.5t-98.5 235.5z" />
    <glyph glyph-name="uni0307" unicode="&#x307;" horiz-adv-x="0" 
d="M-315 1425v99h110v-99h-110z" />
    <glyph glyph-name="uni0308" unicode="&#x308;" horiz-adv-x="0" 
d="M-745 1425v99h110v-99h-110zM-315 1425v99h110v-99h-110z" />
    <glyph glyph-name="uni030A" unicode="&#x30a;" horiz-adv-x="0" 
d="M-569 1331q-186 0 -275.5 56t-89.5 153t89.5 153t275.5 56t275 -56t89 -153t-89 -153t-275 -56zM-569 1393q162 0 232.5 37t70.5 110t-70.5 110.5t-232.5 37.5t-232.5 -37.5t-70.5 -110.5t70.5 -110t232.5 -37z" />
    <glyph glyph-name="uni030B" unicode="&#x30b;" horiz-adv-x="0" 
d="M-1053 1403v61l383 164v-61zM-588 1403v61l383 164v-61z" />
    <glyph glyph-name="uni030C" unicode="&#x30c;" horiz-adv-x="0" 
d="M-889 1612l342 -164l342 164v-62l-342 -164l-342 164v62z" />
    <glyph glyph-name="uni0312" unicode="&#x312;" horiz-adv-x="0" 
d="M-219 1565v-99h-111v99l84 196h41l-59 -196h45z" />
    <glyph glyph-name="uni0326" unicode="&#x326;" horiz-adv-x="0" 
d="M-315 -274v98h110v-98l-84 -197h-41l60 197h-45z" />
    <glyph glyph-name="uni0327" unicode="&#x327;" horiz-adv-x="0" 
d="M-397 -117q83 0 137.5 -39.5t54.5 -126.5q0 -68 -42 -114t-113 -65t-164.5 -22.5t-196.5 13.5v61q89 -15 167 -17t143 10.5t103 46.5t38 87q0 49 -36 78.5t-91 32.5q-81 6 -176 -39l-74 10l41 201h65l-34 -154q83 37 178 37z" />
    <glyph glyph-name="uni0328" unicode="&#x328;" horiz-adv-x="0" 
d="M-205 -410v-61q-195 0 -286 52.5t-91 164.5q0 65 45 126t144 128h49q-2 -2 -24 -19t-27.5 -21.5t-24.5 -21t-26 -25t-21.5 -25t-20.5 -29t-14 -30t-11 -35t-3 -36.5q0 -40 13 -68.5t46 -52t96 -35.5t156 -12z" />
    <glyph glyph-name="uni0335" unicode="&#x335;" horiz-adv-x="0" 
d="M-1024 666v61h819v-61h-819z" />
    <glyph glyph-name="uni0336" unicode="&#x336;" horiz-adv-x="0" 
d="M-2089 666v61h1884v-61h-1884z" />
    <glyph glyph-name="uni0337" unicode="&#x337;" horiz-adv-x="0" 
d="M-270 1475h65l-532 -1782h-66z" />
    <glyph glyph-name="uni0338" unicode="&#x338;" horiz-adv-x="0" 
d="M-270 1577h65l-532 -1782h-66z" />
    <glyph glyph-name="Wgrave" unicode="&#x1e80;" horiz-adv-x="3168" 
d="M1225 1874l714 -164v-61l-714 163v62zM2316 74l596 1360h72l-631 -1434h-74l-696 1372l-696 -1372h-74l-629 1434h72l594 -1360l692 1360h82z" />
    <glyph glyph-name="wgrave" unicode="&#x1e81;" horiz-adv-x="2856" 
d="M1069 1628l715 -164v-61l-715 164v61zM2056 70l547 1118h70l-580 -1188h-72v2l-591 1118l-596 -1120h-72l-578 1188h70l545 -1118l592 1118h75z" />
    <glyph glyph-name="Wacute" unicode="&#x1e82;" horiz-adv-x="3168" 
d="M1225 1710l714 164v-62l-714 -163v61zM2316 74l596 1360h72l-631 -1434h-74l-696 1372l-696 -1372h-74l-629 1434h72l594 -1360l692 1360h82z" />
    <glyph glyph-name="wacute" unicode="&#x1e83;" horiz-adv-x="2856" 
d="M1069 1464l715 164v-61l-715 -164v61zM2056 70l547 1118h70l-580 -1188h-72v2l-591 1118l-596 -1120h-72l-578 1188h70l545 -1118l592 1118h75z" />
    <glyph glyph-name="Wdieresis" unicode="&#x1e84;" horiz-adv-x="3168" 
d="M1313 1769h110v-98h-110v98zM1743 1769h110v-98h-110v98zM2316 74l596 1360h72l-631 -1434h-74l-696 1372l-696 -1372h-74l-629 1434h72l594 -1360l692 1360h82z" />
    <glyph glyph-name="wdieresis" unicode="&#x1e85;" horiz-adv-x="2856" 
d="M1157 1524h111v-99h-111v99zM1587 1524h111v-99h-111v99zM2056 70l547 1118h70l-580 -1188h-72v2l-591 1118l-596 -1120h-72l-578 1188h70l545 -1118l592 1118h75z" />
    <glyph glyph-name="Ygrave" unicode="&#x1ef2;" horiz-adv-x="2123" 
d="M702 1874l715 -164v-61l-715 163v62zM1061 549l792 885h86l-845 -947v-487h-66v487l-844 947h86z" />
    <glyph glyph-name="ygrave" unicode="&#x1ef3;" horiz-adv-x="1830" 
d="M578 1628l714 -164v-61l-714 164v61zM922 29l651 1159h74l-717 -1272q-16 -28 -43 -77.5t-40.5 -73.5t-37.5 -64t-38.5 -60t-38 -49.5t-42 -44t-44.5 -33t-51.5 -26.5t-57 -14t-66.5 -6q-87 0 -262 30v62l66 -11t57.5 -9t43 -5.5t48.5 -4.5t47 -1q32 0 59.5 4.5t53 17.5
t44 24t41 37t36.5 43t36.5 55t35 59.5t39.5 71t42 75.5l47 84h-41l-680 1188h74z" />
    <glyph glyph-name="endash" unicode="&#x2013;" horiz-adv-x="2375" 
d="M246 666v61h1884v-61h-1884z" />
    <glyph glyph-name="emdash" unicode="&#x2014;" horiz-adv-x="2785" 
d="M246 666v61h2294v-61h-2294z" />
    <glyph glyph-name="quoteleft" unicode="&#x2018;" horiz-adv-x="604" 
d="M287 901h-62l103 655h51z" />
    <glyph glyph-name="quoteright" unicode="&#x2019;" horiz-adv-x="604" 
d="M317 1556h62l-103 -655h-51z" />
    <glyph glyph-name="quotesinglbase" unicode="&#x201a;" horiz-adv-x="520" 
d="M184 0v98h111v-98l-70 -287h-41l49 287h-49z" />
    <glyph glyph-name="quotedblleft" unicode="&#x201c;" horiz-adv-x="931" 
d="M287 901h-62l103 655h51zM614 901h-61l102 655h52z" />
    <glyph glyph-name="quotedblright" unicode="&#x201d;" horiz-adv-x="931" 
d="M317 1556h62l-103 -655h-51zM645 1556h62l-103 -655h-51z" />
    <glyph glyph-name="quotedblbase" unicode="&#x201e;" horiz-adv-x="765" 
d="M233 0h-49v98h111v-98l-70 -287h-41zM430 0v98h111v-98l-70 -287h-41l49 287h-49z" />
    <glyph glyph-name="dagger" unicode="&#x2020;" horiz-adv-x="1720" 
d="M895 1188h621v-62h-621v-1433h-66v1433h-624v62h624v287h66v-287z" />
    <glyph glyph-name="daggerdbl" unicode="&#x2021;" horiz-adv-x="1720" 
d="M1516 1188v-62h-621v-696h621v-61h-621v-676h-66v676h-624v61h624v696h-624v62h624v287h66v-287h621z" />
    <glyph glyph-name="bullet" unicode="&#x2022;" horiz-adv-x="690" 
d="M346 543q-73 0 -107 24t-34 76q0 51 34.5 74.5t106.5 23.5q71 0 105 -23.5t34 -74.5q0 -52 -34 -76t-105 -24z" />
    <glyph glyph-name="ellipsis" unicode="&#x2026;" horiz-adv-x="1339" 
d="M184 0v98h111v-98h-111zM594 0v98h111v-98h-111zM1004 0v98h110v-98h-110z" />
    <glyph glyph-name="perthousand" unicode="&#x2030;" horiz-adv-x="3678" 
d="M666 633q-99 0 -179.5 26t-132 68t-86 98t-49 113t-14.5 117q0 75 24.5 145.5t76 134t144.5 102t216 38.5q100 0 180.5 -26t132 -67.5t86 -97.5t49 -113t14.5 -116q0 -60 -14.5 -117t-49 -113.5t-86 -98t-132 -67.5t-180.5 -26zM1872 1434h82l-1235 -1434h-82zM666 694
q80 0 151 23t127.5 67t89.5 114t33 157q0 116 -57.5 199t-146.5 121t-197 38q-79 0 -150 -22.5t-127.5 -65.5t-89.5 -112.5t-33 -157.5q0 -87 33 -157t89.5 -114t127.5 -67t150 -23zM1923 -41q-99 0 -179.5 26t-132 68t-86 98t-49 113t-14.5 117q0 75 24.5 145.5t76 134
t144.5 102t216 38.5q100 0 180.5 -26t132 -67.5t86.5 -97.5t49.5 -113t14.5 -116q0 -60 -14.5 -117t-49.5 -113.5t-86.5 -98t-132 -67.5t-180.5 -26zM3011 -41q-99 0 -179.5 26t-132 68t-86 98t-49 113t-14.5 117q0 75 24.5 145.5t76 134t144.5 102t216 38.5
q100 0 180.5 -26t132 -67.5t86 -97.5t49 -113t14.5 -116q0 -60 -14.5 -117t-49 -113.5t-86 -98t-132 -67.5t-180.5 -26zM1923 20q80 0 151 23t127.5 67t89.5 114t33 157q0 116 -57.5 199t-146.5 121t-197 38q-79 0 -150 -22.5t-127 -65.5t-89 -112.5t-33 -157.5
q0 -115 57.5 -199t146 -123t195.5 -39zM3011 20q80 0 151 23t127.5 67t89.5 114t33 157q0 116 -57.5 199t-146.5 121t-197 38q-79 0 -150 -22.5t-127.5 -65.5t-89.5 -112.5t-33 -157.5q0 -87 33 -157t89.5 -114t127.5 -67t150 -23z" />
    <glyph glyph-name="guilsinglleft" unicode="&#x2039;" horiz-adv-x="1032" 
d="M205 594l532 594h90l-532 -594l532 -594h-90z" />
    <glyph glyph-name="guilsinglright" unicode="&#x203a;" horiz-adv-x="1032" 
d="M205 1188h90l532 -594l-532 -594h-90l532 594z" />
    <glyph glyph-name="fraction" unicode="&#x2044;" horiz-adv-x="1007" 
d="M737 1475h66l-533 -1782h-65z" />
    <glyph glyph-name="Euro" unicode="&#x20ac;" horiz-adv-x="1761" 
d="M1030 1413q-242 0 -390.5 -132t-184.5 -388h864v-62h-873q-4 -74 -4 -112q0 -43 4 -113h873v-61h-866q36 -265 183.5 -395t393.5 -130q224 0 526 82v-61q-302 -82 -526 -82q-288 0 -447.5 153.5t-195.5 432.5h-182v61h176q-4 74 -4 113q0 38 4 112h-176v62h184
q37 271 197.5 426.5t443.5 155.5q224 0 526 -82v-62q-302 82 -526 82z" />
    <glyph glyph-name="trademark" unicode="&#x2122;" horiz-adv-x="2236" 
d="M475 1372h-352v62h772v-62h-354v-637h-66v637zM1114 735h-65v699h75l416 -646l416 646h76v-699h-66v598l-383 -598h-86l-383 598v-598z" />
    <glyph glyph-name="arrowleft" unicode="&#x2190;" horiz-adv-x="1679" 
d="M1475 750v-66h-1156l472 -508l-46 -47l-540 590l540 586l46 -48l-472 -507h1156z" />
    <glyph glyph-name="arrowup" unicode="&#x2191;" horiz-adv-x="1585" 
d="M825 1217v-1156h-65v1156l-508 -472l-47 46l586 540l589 -540l-47 -46z" />
    <glyph glyph-name="arrowright" unicode="&#x2192;" horiz-adv-x="1679" 
d="M1360 684h-1155v66h1155l-471 507l45 48l541 -586l-541 -590l-45 47z" />
    <glyph glyph-name="arrowdown" unicode="&#x2193;" horiz-adv-x="1585" 
d="M760 1413h65v-1155l508 471l47 -45l-589 -541l-586 541l47 45l508 -471v1155z" />
    <glyph glyph-name="arrowboth" unicode="&#x2194;" horiz-adv-x="2594" 
d="M1804 1257l45 48l541 -586l-541 -590l-45 47l471 508h-1956l472 -508l-46 -47l-540 590l540 586l46 -48l-472 -507h1956z" />
    <glyph glyph-name="arrowupdn" unicode="&#x2195;" horiz-adv-x="1585" 
d="M825 -96l508 471l47 -45l-589 -541l-586 541l47 45l508 -471v1517l-508 -471l-47 45l586 541l589 -541l-47 -45l-508 471v-1517z" />
    <glyph glyph-name="uni2196" unicode="&#x2196;" horiz-adv-x="1363" 
d="M1159 264l-47 -47l-815 817l-27 -692l-65 -2l35 799l796 32l-2 -65l-692 -27z" />
    <glyph glyph-name="uni2197" unicode="&#x2197;" horiz-adv-x="1363" 
d="M1067 1034l-815 -817l-47 47l817 815l-692 27l-2 65l796 -32l35 -799l-65 2z" />
    <glyph glyph-name="uni2198" unicode="&#x2198;" horiz-adv-x="1363" 
d="M205 1169l47 48l815 -818l27 693l65 2l-35 -799l-796 -33l2 66l692 26z" />
    <glyph glyph-name="uni2199" unicode="&#x2199;" horiz-adv-x="1363" 
d="M297 399l815 818l47 -48l-817 -815l692 -26l2 -66l-796 33l-35 799l65 -2z" />
    <glyph glyph-name="emptyset" unicode="&#x2205;" horiz-adv-x="2338" 
d="M2134 1634l-274 -274q247 -229 247 -641q0 -199 -60.5 -360t-177 -275t-294.5 -176t-404 -62q-394 0 -639 187l-280 -281l-47 47l276 277q-248 230 -248 643q0 266 106.5 460t319 301t512.5 107q399 0 637 -184l279 278zM295 719q0 -383 233 -596l1235 1235
q-227 168 -592 168q-413 0 -644.5 -213.5t-231.5 -593.5zM1171 -92q412 0 643.5 215t231.5 596q0 382 -231 596l-1235 -1235q224 -172 591 -172z" />
    <glyph glyph-name="product" unicode="&#x220f;" horiz-adv-x="2668" 
d="M2464 1638v-61h-541v-1884h-65v1884h-1047v-1884h-66v1884h-540v61h2259z" />
    <glyph glyph-name="minus" unicode="&#x2212;" horiz-adv-x="1884" 
d="M205 666v61h1474v-61h-1474z" />
    <glyph glyph-name="integral" unicode="&#x222b;" horiz-adv-x="2033" 
d="M205 -307v61q134 0 228.5 10.5t173.5 40t130.5 74.5t92 120.5t65.5 172t45 234.5l74 520q20 143 55 253t76 185t103 127t118 80.5t141 44t152 19t170 3.5v-61q-106 0 -187 -8t-154.5 -27.5t-128 -52.5t-101 -82t-79.5 -118t-57.5 -158.5t-40.5 -204.5l-73 -520
q-17 -117 -42 -212t-51 -165.5t-69 -124t-76 -89t-93 -59.5t-98.5 -36.5t-114 -18.5t-118.5 -7t-131 -1h-10z" />
    <glyph glyph-name="approxequal" unicode="&#x2248;" horiz-adv-x="1867" 
d="M270 717h-65q0 44 2 79.5t10 89t22 94.5t41 85.5t64 74.5t93.5 49t127.5 19q76 0 141.5 -23.5t113 -61.5t91 -84t85 -92t84.5 -84t100.5 -61.5t122.5 -23.5q87 0 146.5 31.5t91 92.5t44 134t12.5 172h66q0 -44 -2 -79.5t-10 -89t-22 -94.5t-41 -85.5t-64 -74.5t-93.5 -49
t-127.5 -19q-76 0 -141.5 23.5t-113 61.5t-91 84t-85 92t-84.5 84t-100.5 61.5t-122.5 23.5q-70 0 -122.5 -21.5t-85 -58.5t-52.5 -93t-27.5 -117.5t-7.5 -139.5zM270 102h-65q0 44 2 79.5t10 89t22 94.5t41 86t64 74.5t93.5 49t127.5 19.5q76 0 141.5 -23.5t113 -61.5
t91 -84t85 -92t84.5 -84t100.5 -61.5t122.5 -23.5q87 0 146.5 31.5t91 92.5t44 134t12.5 172h66q0 -44 -2 -79.5t-10 -89t-22 -94.5t-41 -86t-64 -74.5t-93.5 -49t-127.5 -19.5q-76 0 -141.5 23.5t-113 61.5t-91 84t-85 92t-84.5 84t-100.5 61.5t-122.5 23.5
q-70 0 -122.5 -21.5t-85 -58.5t-52.5 -93t-27.5 -117.5t-7.5 -139.5z" />
    <glyph glyph-name="notequal" unicode="&#x2260;" horiz-adv-x="1884" 
d="M1679 1055v-62h-575l-176 -594h751v-61h-770l-159 -533h-66l160 533h-639v61h657l176 594h-833v62h852l160 532h65l-160 -532h557z" />
    <glyph glyph-name="lessequal" unicode="&#x2264;" horiz-adv-x="1884" 
d="M324 987l1314 -383v-65l-1433 413v70l1433 416v-66zM205 143v62h1474v-62h-1474z" />
    <glyph glyph-name="greaterequal" unicode="&#x2265;" horiz-adv-x="1884" 
d="M246 1372v66l1433 -416v-70l-1433 -413v65l1315 383zM1679 143h-1474v62h1474v-62z" />
    <glyph glyph-name="lozenge" unicode="&#x25ca;" horiz-adv-x="1761" 
d="M842 1638h82l632 -921l-632 -922h-82l-637 922zM287 717l596 -862l592 862l-592 862z" />
    <glyph glyph-name="A.ss01" horiz-adv-x="2478" 
d="M2294 0h-74l-246 412h-1470l-246 -412h-74l852 1434h406zM1077 1372l-536 -899h1396l-536 899h-324z" />
    <glyph glyph-name="Aacute.ss01" horiz-adv-x="2478" 
d="M881 1710l714 164v-62l-714 -163v61zM2294 0h-74l-246 412h-1470l-246 -412h-74l852 1434h406zM1077 1372l-536 -899h1396l-536 899h-324z" />
    <glyph glyph-name="Abreve.ss01" horiz-adv-x="2478" 
d="M1239 1638q-197 0 -296 72t-99 236h65q0 -75 23.5 -124.5t70 -75.5t102.5 -36t134 -10t134 10t102.5 36t70 75.5t23.5 124.5h65q0 -164 -99 -236t-296 -72zM2294 0h-74l-246 412h-1470l-246 -412h-74l852 1434h406zM1077 1372l-536 -899h1396l-536 899h-324z" />
    <glyph glyph-name="Acircumflex.ss01" horiz-adv-x="2478" 
d="M1581 1690v-62l-342 164l-342 -164v62l342 163zM2294 0h-74l-246 412h-1470l-246 -412h-74l852 1434h406zM1077 1372l-536 -899h1396l-536 899h-324z" />
    <glyph glyph-name="Adieresis.ss01" horiz-adv-x="2478" 
d="M969 1769h110v-98h-110v98zM1399 1769h110v-98h-110v98zM2294 0h-74l-246 412h-1470l-246 -412h-74l852 1434h406zM1077 1372l-536 -899h1396l-536 899h-324z" />
    <glyph glyph-name="Agrave.ss01" horiz-adv-x="2478" 
d="M881 1874l714 -164v-61l-714 163v62zM2294 0h-74l-246 412h-1470l-246 -412h-74l852 1434h406zM1077 1372l-536 -899h1396l-536 899h-324z" />
    <glyph glyph-name="Amacron.ss01" horiz-adv-x="2478" 
d="M840 1772h796v-62h-796v62zM2294 0h-74l-246 412h-1470l-246 -412h-74l852 1434h406zM1077 1372l-536 -899h1396l-536 899h-324z" />
    <glyph glyph-name="Aogonek.ss01" horiz-adv-x="2478" 
d="M2107 -242q0 -40 13 -68.5t46.5 -52t96.5 -35.5t156 -12v-61q-195 0 -286 52.5t-91 164.5q0 65 44.5 126t143.5 128h-10l-246 412h-1470l-246 -412h-74l852 1434h406l852 -1434h-15q-2 -2 -24 -19t-27.5 -21.5t-24.5 -21t-26 -25t-21.5 -25t-20.5 -29t-14 -30t-11 -35
t-3 -36.5zM1077 1372l-536 -899h1396l-536 899h-324z" />
    <glyph glyph-name="Aring.ss01" horiz-adv-x="2478" 
d="M1239 1577q-186 0 -275.5 56t-89.5 153t89.5 153t275.5 56t275.5 -56t89.5 -153t-89.5 -153t-275.5 -56zM1239 1933q-162 0 -232.5 -37t-70.5 -110t70.5 -110.5t232.5 -37.5t232.5 37.5t70.5 110.5t-70.5 110t-232.5 37zM2294 0h-74l-246 412h-1470l-246 -412h-74
l852 1434h406zM1077 1372l-536 -899h1396l-536 899h-324z" />
    <glyph glyph-name="Atilde.ss01" horiz-adv-x="2478" 
d="M993 1823q-192 0 -192 -205h-66q0 29 5.5 59.5t22.5 69t44 68t75.5 49.5t110.5 20q69 0 125 -23t94.5 -56t75 -66.5t86.5 -56.5t111 -23q192 0 192 205h66q0 -29 -5.5 -60t-22.5 -69.5t-44 -67.5t-75.5 -49.5t-110.5 -20.5q-69 0 -125 23.5t-94.5 56.5t-75 66t-86.5 56.5
t-111 23.5zM2294 0h-74l-246 412h-1470l-246 -412h-74l852 1434h406zM1077 1372l-536 -899h1396l-536 899h-324z" />
    <glyph glyph-name="K.ss01" horiz-adv-x="1916" 
d="M1640 1434h93l-770 -715l770 -719h-93l-737 688h-633v-688h-65v1434h65v-684h633z" />
    <glyph glyph-name="uni0136.ss01" horiz-adv-x="1916" 
d="M1640 1434h93l-770 -715l770 -719h-93l-737 688h-633v-688h-65v1434h65v-684h633zM889 -274h-45v98h110v-98l-84 -197h-41z" />
    <glyph glyph-name="R.ss01" horiz-adv-x="1880" 
d="M1696 987q0 -181 -106.5 -298.5t-319.5 -141.5l411 -547h-79l-408 541h-27h-897v-541h-65v1434h962q264 0 396.5 -122t132.5 -325zM270 1372v-770h897q232 0 347.5 100t115.5 285t-115.5 285t-347.5 100h-897z" />
    <glyph glyph-name="Racute.ss01" horiz-adv-x="1880" 
d="M520 1710l715 164v-62l-715 -163v61zM1696 987q0 -181 -106.5 -298.5t-319.5 -141.5l411 -547h-79l-408 541h-27h-897v-541h-65v1434h962q264 0 396.5 -122t132.5 -325zM270 1372v-770h897q232 0 347.5 100t115.5 285t-115.5 285t-347.5 100h-897z" />
    <glyph glyph-name="Rcaron.ss01" horiz-adv-x="1880" 
d="M1221 1858v-62l-342 -164l-342 164v62l342 -164zM1696 987q0 -181 -106.5 -298.5t-319.5 -141.5l411 -547h-79l-408 541h-27h-897v-541h-65v1434h962q264 0 396.5 -122t132.5 -325zM270 1372v-770h897q232 0 347.5 100t115.5 285t-115.5 285t-347.5 100h-897z" />
    <glyph glyph-name="uni0156.ss01" horiz-adv-x="1880" 
d="M1696 987q0 -181 -106.5 -298.5t-319.5 -141.5l411 -547h-79l-408 541h-27h-897v-541h-65v1434h962q264 0 396.5 -122t132.5 -325zM270 1372v-770h897q232 0 347.5 100t115.5 285t-115.5 285t-347.5 100h-897zM874 -274h-45v98h111v-98l-84 -197h-41z" />
    <glyph glyph-name="V.ss01" horiz-adv-x="2478" 
d="M2220 1434h74l-852 -1434h-406l-852 1434h74l819 -1373h324z" />
    <glyph glyph-name="W.ss01" horiz-adv-x="3516" 
d="M2658 61l604 1373h70l-631 -1434h-319l-615 1366l-614 -1366h-319l-650 1434h70l623 -1373h233l619 1373h77l619 -1373h233z" />
    <glyph glyph-name="Wacute.ss01" horiz-adv-x="3516" 
d="M1409 1710l715 164v-62l-715 -163v61zM2658 61l604 1373h70l-631 -1434h-319l-615 1366l-614 -1366h-319l-650 1434h70l623 -1373h233l619 1373h77l619 -1373h233z" />
    <glyph glyph-name="Wcircumflex.ss01" horiz-adv-x="3516" 
d="M2109 1690v-62l-342 164l-342 -164v62l342 163zM2658 61l604 1373h70l-631 -1434h-319l-615 1366l-614 -1366h-319l-650 1434h70l623 -1373h233l619 1373h77l619 -1373h233z" />
    <glyph glyph-name="Wdieresis.ss01" horiz-adv-x="3516" 
d="M1497 1769h111v-98h-111v98zM1927 1769h111v-98h-111v98zM2658 61l604 1373h70l-631 -1434h-319l-615 1366l-614 -1366h-319l-650 1434h70l623 -1373h233l619 1373h77l619 -1373h233z" />
    <glyph glyph-name="Wgrave.ss01" horiz-adv-x="3516" 
d="M1409 1874l715 -164v-61l-715 163v62zM2658 61l604 1373h70l-631 -1434h-319l-615 1366l-614 -1366h-319l-650 1434h70l623 -1373h233l619 1373h77l619 -1373h233z" />
    <glyph glyph-name="i.loclTRK" 
d="M182 1425v99h111v-99h-111zM205 0v1188h65v-1188h-65z" />
    <glyph glyph-name="a.001" horiz-adv-x="1822" 
d="M1016 1229q314 0 466.5 -117t155.5 -364v-748h-65v166q-114 -48 -189 -77t-183.5 -63t-215.5 -50.5t-217 -16.5q-158 0 -271.5 28t-181.5 82.5t-99.5 128.5t-31.5 173q0 420 678 420q298 0 711 -123v80q0 83 -22 149.5t-55 109.5t-84 74t-97 47.5t-107 25.5t-101 11
t-91 2q-150 0 -314.5 -25.5t-402.5 -97.5l-23 60q384 125 740 125zM768 20q192 0 389.5 56.5t415.5 150.5v373q-116 36 -201 59t-231.5 46.5t-278.5 23.5q-92 0 -172.5 -8.5t-164 -32.5t-142 -62.5t-96 -103.5t-37.5 -151q0 -182 127 -266.5t391 -84.5z" />
    <glyph glyph-name="a.ss01" horiz-adv-x="1839" 
d="M1569 850v338h65v-1188h-65v338q-71 -181 -244 -280t-428 -99q-336 0 -524.5 169.5t-188.5 465.5t188.5 465.5t524.5 169.5q255 0 428 -99t244 -280zM907 20q142 0 261.5 36t209.5 106t140.5 180.5t50.5 251.5t-50.5 251.5t-141 180t-209.5 105.5t-261 36t-260.5 -36
t-207.5 -105.5t-139 -180t-50 -251.5t50 -251.5t139 -180.5t207.5 -106t260.5 -36z" />
    <glyph glyph-name="aacute.ss01" horiz-adv-x="1839" 
d="M561 1464l715 164v-61l-715 -164v61zM1569 850v338h65v-1188h-65v338q-71 -181 -244 -280t-428 -99q-336 0 -524.5 169.5t-188.5 465.5t188.5 465.5t524.5 169.5q255 0 428 -99t244 -280zM907 20q142 0 261.5 36t209.5 106t140.5 180.5t50.5 251.5t-50.5 251.5t-141 180
t-209.5 105.5t-261 36t-260.5 -36t-207.5 -105.5t-139 -180t-50 -251.5t50 -251.5t139 -180.5t207.5 -106t260.5 -36z" />
    <glyph glyph-name="abreve.ss01" horiz-adv-x="1839" 
d="M920 1393q-198 0 -297 71.5t-99 235.5h66q0 -75 23.5 -124.5t70 -75.5t102.5 -36t134 -10t133.5 10t102 36t70 75.5t23.5 124.5h66q0 -164 -98.5 -235.5t-296.5 -71.5zM1569 850v338h65v-1188h-65v338q-71 -181 -244 -280t-428 -99q-336 0 -524.5 169.5t-188.5 465.5
t188.5 465.5t524.5 169.5q255 0 428 -99t244 -280zM907 20q142 0 261.5 36t209.5 106t140.5 180.5t50.5 251.5t-50.5 251.5t-141 180t-209.5 105.5t-261 36t-260.5 -36t-207.5 -105.5t-139 -180t-50 -251.5t50 -251.5t139 -180.5t207.5 -106t260.5 -36z" />
    <glyph glyph-name="acircumflex.ss01" horiz-adv-x="1839" 
d="M1262 1444v-62l-342 164l-342 -164v62l342 164zM1569 850v338h65v-1188h-65v338q-71 -181 -244 -280t-428 -99q-336 0 -524.5 169.5t-188.5 465.5t188.5 465.5t524.5 169.5q255 0 428 -99t244 -280zM907 20q142 0 261.5 36t209.5 106t140.5 180.5t50.5 251.5t-50.5 251.5
t-141 180t-209.5 105.5t-261 36t-260.5 -36t-207.5 -105.5t-139 -180t-50 -251.5t50 -251.5t139 -180.5t207.5 -106t260.5 -36z" />
    <glyph glyph-name="adieresis.ss01" horiz-adv-x="1839" 
d="M649 1524h111v-99h-111v99zM1079 1524h111v-99h-111v99zM1569 850v338h65v-1188h-65v338q-71 -181 -244 -280t-428 -99q-336 0 -524.5 169.5t-188.5 465.5t188.5 465.5t524.5 169.5q255 0 428 -99t244 -280zM907 20q142 0 261.5 36t209.5 106t140.5 180.5t50.5 251.5
t-50.5 251.5t-141 180t-209.5 105.5t-261 36t-260.5 -36t-207.5 -105.5t-139 -180t-50 -251.5t50 -251.5t139 -180.5t207.5 -106t260.5 -36z" />
    <glyph glyph-name="agrave.ss01" horiz-adv-x="1839" 
d="M561 1628l715 -164v-61l-715 164v61zM1569 850v338h65v-1188h-65v338q-71 -181 -244 -280t-428 -99q-336 0 -524.5 169.5t-188.5 465.5t188.5 465.5t524.5 169.5q255 0 428 -99t244 -280zM907 20q142 0 261.5 36t209.5 106t140.5 180.5t50.5 251.5t-50.5 251.5t-141 180
t-209.5 105.5t-261 36t-260.5 -36t-207.5 -105.5t-139 -180t-50 -251.5t50 -251.5t139 -180.5t207.5 -106t260.5 -36z" />
    <glyph glyph-name="amacron.ss01" horiz-adv-x="1839" 
d="M520 1526h797v-62h-797v62zM1569 850v338h65v-1188h-65v338q-71 -181 -244 -280t-428 -99q-336 0 -524.5 169.5t-188.5 465.5t188.5 465.5t524.5 169.5q255 0 428 -99t244 -280zM907 20q142 0 261.5 36t209.5 106t140.5 180.5t50.5 251.5t-50.5 251.5t-141 180
t-209.5 105.5t-261 36t-260.5 -36t-207.5 -105.5t-139 -180t-50 -251.5t50 -251.5t139 -180.5t207.5 -106t260.5 -36z" />
    <glyph glyph-name="aogonek.ss01" horiz-adv-x="1839" 
d="M1415 -242q0 -40 13 -68.5t46 -52t96 -35.5t156 -12v-61q-195 0 -285.5 52t-90.5 165q0 65 44.5 126t143.5 128h31v338q-71 -181 -244 -280t-428 -99q-336 0 -524.5 169.5t-188.5 465.5t188.5 465.5t524.5 169.5q255 0 428 -99t244 -280v338h65v-1188h-47q-2 -2 -24 -19
t-27.5 -21.5t-24.5 -21t-26 -25t-21.5 -25t-20.5 -29t-14 -30t-11 -35t-3 -36.5zM907 20q142 0 261.5 36t209.5 106t140.5 180.5t50.5 251.5t-50.5 251.5t-141 180t-209.5 105.5t-261 36t-260.5 -36t-207.5 -105.5t-139 -180t-50 -251.5t50 -251.5t139 -180.5t207.5 -106
t260.5 -36z" />
    <glyph glyph-name="aring.ss01" horiz-adv-x="1839" 
d="M920 1331q-186 0 -275.5 56t-89.5 153t89.5 153t275.5 56t275 -56t89 -153t-89 -153t-275 -56zM920 1688q-162 0 -233 -37.5t-71 -110.5t71 -110t233 -37t232.5 37t70.5 110t-70.5 110.5t-232.5 37.5zM1569 850v338h65v-1188h-65v338q-71 -181 -244 -280t-428 -99
q-336 0 -524.5 169.5t-188.5 465.5t188.5 465.5t524.5 169.5q255 0 428 -99t244 -280zM907 20q142 0 261.5 36t209.5 106t140.5 180.5t50.5 251.5t-50.5 251.5t-141 180t-209.5 105.5t-261 36t-260.5 -36t-207.5 -105.5t-139 -180t-50 -251.5t50 -251.5t139 -180.5
t207.5 -106t260.5 -36z" />
    <glyph glyph-name="atilde.ss01" horiz-adv-x="1839" 
d="M674 1577q-99 0 -146 -54t-47 -151h-65q0 29 5.5 59.5t22.5 69t44 68t75.5 49.5t110.5 20q69 0 125 -23t94 -56t75 -66.5t86.5 -56.5t110.5 -23q99 0 146 54t47 151h65q0 -29 -5.5 -59.5t-22.5 -69t-44 -68t-75.5 -49.5t-110.5 -20q-69 0 -125 23t-94 56t-75 66.5
t-86.5 56.5t-110.5 23zM1569 850v338h65v-1188h-65v338q-71 -181 -244 -280t-428 -99q-336 0 -524.5 169.5t-188.5 465.5t188.5 465.5t524.5 169.5q255 0 428 -99t244 -280zM907 20q142 0 261.5 36t209.5 106t140.5 180.5t50.5 251.5t-50.5 251.5t-141 180t-209.5 105.5
t-261 36t-260.5 -36t-207.5 -105.5t-139 -180t-50 -251.5t50 -251.5t139 -180.5t207.5 -106t260.5 -36z" />
    <glyph glyph-name="g.ss01" horiz-adv-x="1976" 
d="M1389 1188h485v-62q-76 0 -342 13q219 -102 219 -334q0 -103 -42.5 -180t-134.5 -133t-243.5 -84.5t-361.5 -28.5q-397 0 -537.5 -20t-140.5 -101q0 -95 157 -118t580 -23q103 0 179.5 -2t163 -9.5t147.5 -20t120 -34.5t95 -52.5t57.5 -74.5t21.5 -100q0 -356 -784 -356
q-124 0 -226.5 6.5t-201 21.5t-172 41.5t-130 64.5t-85.5 93t-29 125q0 49 18 89t46.5 66t72 46t87 31.5t98.5 19.5q-139 16 -210 58t-71 122q0 33 12.5 58.5t37 43t53 29t69 19t75.5 11t81 5.5q-369 89 -369 387q0 102 43 179t135 132.5t244 84t363 28.5q251 0 420 -41z
M1686 805q0 65 -19.5 117t-69.5 99t-129.5 78t-205.5 49.5t-293 18.5t-293.5 -18.5t-206.5 -49.5t-130 -78t-69.5 -99t-19.5 -117t19.5 -117.5t69.5 -100t130 -79t206.5 -50t293.5 -18.5t293 18.5t205.5 50t129.5 79t69.5 100t19.5 117.5zM1747 -176q0 42 -13.5 76
t-46.5 57.5t-64 41t-91 28t-101 16.5t-119.5 8.5t-122 3t-131.5 0.5h-30q-118 0 -207 -2.5t-174 -9t-144.5 -17.5t-109.5 -29t-80 -42.5t-46.5 -58t-16.5 -76.5q0 -151 197 -221t581 -70q114 0 213.5 8.5t194.5 29.5t162 53.5t108 84.5t41 119z" />
    <glyph glyph-name="gbreve.ss01" horiz-adv-x="1976" 
d="M911 1393q-198 0 -296.5 71.5t-98.5 235.5h66q0 -75 23.5 -124.5t70 -75.5t102 -36t133.5 -10t134 10t102.5 36t70 75.5t23.5 124.5h66q0 -164 -99 -235.5t-297 -71.5zM1389 1188h485v-62q-76 0 -342 13q219 -102 219 -334q0 -103 -42.5 -180t-134.5 -133t-243.5 -84.5
t-361.5 -28.5q-397 0 -537.5 -20t-140.5 -101q0 -95 157 -118t580 -23q103 0 179.5 -2t163 -9.5t147.5 -20t120 -34.5t95 -52.5t57.5 -74.5t21.5 -100q0 -356 -784 -356q-124 0 -226.5 6.5t-201 21.5t-172 41.5t-130 64.5t-85.5 93t-29 125q0 49 18 89t46.5 66t72 46
t87 31.5t98.5 19.5q-139 16 -210 58t-71 122q0 33 12.5 58.5t37 43t53 29t69 19t75.5 11t81 5.5q-369 89 -369 387q0 102 43 179t135 132.5t244 84t363 28.5q251 0 420 -41zM1686 805q0 65 -19.5 117t-69.5 99t-129.5 78t-205.5 49.5t-293 18.5t-293.5 -18.5t-206.5 -49.5
t-130 -78t-69.5 -99t-19.5 -117t19.5 -117.5t69.5 -100t130 -79t206.5 -50t293.5 -18.5t293 18.5t205.5 50t129.5 79t69.5 100t19.5 117.5zM1747 -176q0 42 -13.5 76t-46.5 57.5t-64 41t-91 28t-101 16.5t-119.5 8.5t-122 3t-131.5 0.5h-30q-118 0 -207 -2.5t-174 -9
t-144.5 -17.5t-109.5 -29t-80 -42.5t-46.5 -58t-16.5 -76.5q0 -151 197 -221t581 -70q114 0 213.5 8.5t194.5 29.5t162 53.5t108 84.5t41 119z" />
    <glyph glyph-name="uni0123.ss01" horiz-adv-x="1976" 
d="M913 1565h45v-99h-110v99l84 196h41zM1389 1188h485v-62q-76 0 -342 13q219 -102 219 -334q0 -103 -42.5 -180t-134.5 -133t-243.5 -84.5t-361.5 -28.5q-397 0 -537.5 -20t-140.5 -101q0 -95 157 -118t580 -23q103 0 179.5 -2t163 -9.5t147.5 -20t120 -34.5t95 -52.5
t57.5 -74.5t21.5 -100q0 -356 -784 -356q-124 0 -226.5 6.5t-201 21.5t-172 41.5t-130 64.5t-85.5 93t-29 125q0 49 18 89t46.5 66t72 46t87 31.5t98.5 19.5q-139 16 -210 58t-71 122q0 33 12.5 58.5t37 43t53 29t69 19t75.5 11t81 5.5q-369 89 -369 387q0 102 43 179
t135 132.5t244 84t363 28.5q251 0 420 -41zM1686 805q0 65 -19.5 117t-69.5 99t-129.5 78t-205.5 49.5t-293 18.5t-293.5 -18.5t-206.5 -49.5t-130 -78t-69.5 -99t-19.5 -117t19.5 -117.5t69.5 -100t130 -79t206.5 -50t293.5 -18.5t293 18.5t205.5 50t129.5 79t69.5 100
t19.5 117.5zM1747 -176q0 42 -13.5 76t-46.5 57.5t-64 41t-91 28t-101 16.5t-119.5 8.5t-122 3t-131.5 0.5h-30q-118 0 -207 -2.5t-174 -9t-144.5 -17.5t-109.5 -29t-80 -42.5t-46.5 -58t-16.5 -76.5q0 -151 197 -221t581 -70q114 0 213.5 8.5t194.5 29.5t162 53.5t108 84.5
t41 119z" />
    <glyph glyph-name="gdotaccent.ss01" horiz-adv-x="1976" 
d="M856 1524h111v-99h-111v99zM1389 1188h485v-62q-76 0 -342 13q219 -102 219 -334q0 -103 -42.5 -180t-134.5 -133t-243.5 -84.5t-361.5 -28.5q-397 0 -537.5 -20t-140.5 -101q0 -95 157 -118t580 -23q103 0 179.5 -2t163 -9.5t147.5 -20t120 -34.5t95 -52.5t57.5 -74.5
t21.5 -100q0 -356 -784 -356q-124 0 -226.5 6.5t-201 21.5t-172 41.5t-130 64.5t-85.5 93t-29 125q0 49 18 89t46.5 66t72 46t87 31.5t98.5 19.5q-139 16 -210 58t-71 122q0 33 12.5 58.5t37 43t53 29t69 19t75.5 11t81 5.5q-369 89 -369 387q0 102 43 179t135 132.5t244 84
t363 28.5q251 0 420 -41zM1686 805q0 65 -19.5 117t-69.5 99t-129.5 78t-205.5 49.5t-293 18.5t-293.5 -18.5t-206.5 -49.5t-130 -78t-69.5 -99t-19.5 -117t19.5 -117.5t69.5 -100t130 -79t206.5 -50t293.5 -18.5t293 18.5t205.5 50t129.5 79t69.5 100t19.5 117.5z
M1747 -176q0 42 -13.5 76t-46.5 57.5t-64 41t-91 28t-101 16.5t-119.5 8.5t-122 3t-131.5 0.5h-30q-118 0 -207 -2.5t-174 -9t-144.5 -17.5t-109.5 -29t-80 -42.5t-46.5 -58t-16.5 -76.5q0 -151 197 -221t581 -70q114 0 213.5 8.5t194.5 29.5t162 53.5t108 84.5t41 119z" />
    </font>
</defs>
</svg>
